<svg width="20" height="16" viewBox="0 0 20 16" fill="none" xmlns="http://www.w3.org/2000/svg">
<path d="M0 4C0 2.9 0.9 2 2 2H5L7 0H13L15 2H18C18.5304 2 19.0391 2.21071 19.4142 2.58579C19.7893 2.96086 20 3.46957 20 4V14C20 14.5304 19.7893 15.0391 19.4142 15.4142C19.0391 15.7893 18.5304 16 18 16H2C1.46957 16 0.960859 15.7893 0.585786 15.4142C0.210714 15.0391 0 14.5304 0 14V4ZM10 14C11.3261 14 12.5979 13.4732 13.5355 12.5355C14.4732 11.5979 15 10.3261 15 9C15 7.67392 14.4732 6.40215 13.5355 5.46447C12.5979 4.52678 11.3261 4 10 4C8.67392 4 7.40215 4.52678 6.46447 5.46447C5.52678 6.40215 5 7.67392 5 9C5 10.3261 5.52678 11.5979 6.46447 12.5355C7.40215 13.4732 8.67392 14 10 14ZM10 12C9.60603 12 9.21593 11.9224 8.85195 11.7716C8.48797 11.6209 8.15726 11.3999 7.87868 11.1213C7.6001 10.8427 7.37913 10.512 7.22836 10.1481C7.0776 9.78407 7 9.39397 7 9C7 8.60603 7.0776 8.21593 7.22836 7.85195C7.37913 7.48797 7.6001 7.15726 7.87868 6.87868C8.15726 6.6001 8.48797 6.37913 8.85195 6.22836C9.21593 6.0776 9.60603 6 10 6C10.7956 6 11.5587 6.31607 12.1213 6.87868C12.6839 7.44129 13 8.20435 13 9C13 9.79565 12.6839 10.5587 12.1213 11.1213C11.5587 11.6839 10.7956 12 10 12Z" fill="white"/>
</svg>
