<svg width="20" height="20" viewBox="0 0 20 20" fill="none" xmlns="http://www.w3.org/2000/svg">
<path d="M10 17.95C9.7528 17.9506 9.50792 17.9023 9.27945 17.8079C9.05099 17.7135 8.84344 17.5749 8.66875 17.4L2.23125 10.9625C1.72271 10.4484 1.32155 9.83831 1.05115 9.16767C0.780751 8.49704 0.646509 7.77929 0.656248 7.05626C0.661148 6.39366 0.796723 5.73853 1.05521 5.12841C1.31369 4.51829 1.69 3.96515 2.16259 3.50069C2.63518 3.03623 3.19476 2.66957 3.80927 2.42171C4.42379 2.17385 5.08116 2.04966 5.74375 2.05626C6.41819 2.04946 7.08714 2.17818 7.7109 2.43477C8.33467 2.69136 8.90055 3.0706 9.375 3.55001L10 4.17501L10.5125 3.66251C11.3974 2.75411 12.5816 2.1972 13.8457 2.09493C15.1097 1.99265 16.368 2.35194 17.3875 3.10626C17.9678 3.55316 18.4463 4.11858 18.791 4.76486C19.1357 5.41113 19.3388 6.12343 19.3867 6.85433C19.4346 7.58523 19.3262 8.31794 19.0688 9.00368C18.8114 9.68941 18.4108 10.3124 17.8937 10.8313L11.3312 17.4C11.1566 17.5749 10.949 17.7135 10.7205 17.8079C10.4921 17.9023 10.2472 17.9506 10 17.95ZM5.71875 3.30001C4.72532 3.29899 3.77048 3.68452 3.05625 4.37501C2.69212 4.72535 2.40255 5.14566 2.20493 5.61071C2.00731 6.07576 1.90572 6.57596 1.90625 7.08126C1.90077 7.63708 2.00568 8.18846 2.21489 8.70343C2.42409 9.2184 2.73344 9.68673 3.125 10.0813L9.5625 16.5188C9.6206 16.5773 9.68973 16.6238 9.76589 16.6556C9.84205 16.6873 9.92374 16.7036 10.0062 16.7036C10.0888 16.7036 10.1704 16.6873 10.2466 16.6556C10.3228 16.6238 10.3919 16.5773 10.45 16.5188L17.0187 9.94376C17.4043 9.55003 17.7022 9.07918 17.8929 8.56213C18.0836 8.04508 18.1627 7.49355 18.125 6.94376C18.0916 6.38833 17.9386 5.84667 17.6765 5.35585C17.4144 4.86503 17.0493 4.43664 16.6062 4.10001C15.8288 3.52681 14.8695 3.25579 13.9071 3.33743C12.9447 3.41907 12.0448 3.8478 11.375 4.54376L10.4437 5.50001C10.3856 5.55859 10.3165 5.60508 10.2404 5.63681C10.1642 5.66854 10.0825 5.68488 10 5.68488C9.91749 5.68488 9.8358 5.66854 9.75964 5.63681C9.68348 5.60508 9.61435 5.55859 9.55625 5.50001L8.49375 4.43751C7.76194 3.71205 6.77419 3.30349 5.74375 3.30001H5.71875Z" fill="white"/>
</svg>
