<svg width="19" height="16" viewBox="0 0 19 16" fill="none" xmlns="http://www.w3.org/2000/svg">
<path d="M9.34425 15.894C9.09705 15.8946 8.85217 15.8463 8.6237 15.7519C8.39523 15.6575 8.18768 15.5189 8.013 15.344L1.57549 8.90651C1.06696 8.39244 0.665801 7.78231 0.395399 7.11168C0.124997 6.44104 -0.00924482 5.72329 0.000494391 5.00026C0.00539421 4.33766 0.140969 3.68253 0.399452 3.07241C0.657935 2.46229 1.03425 1.90915 1.50684 1.44469C1.97943 0.980233 2.539 0.613571 3.15352 0.365711C3.76803 0.11785 4.42541 -0.00633941 5.08799 0.000255565C5.76244 -0.00653808 6.43138 0.122178 7.05515 0.37877C7.67891 0.635362 8.2448 1.0146 8.71925 1.49401L9.34425 2.11901L9.85675 1.60651C10.7417 0.69811 11.9259 0.141201 13.1899 0.0389271C14.454 -0.0633469 15.7123 0.295945 16.7317 1.05026C17.3121 1.49716 17.7905 2.06258 18.1352 2.70886C18.48 3.35513 18.683 4.06743 18.7309 4.79833C18.7788 5.52923 18.6704 6.26194 18.413 6.94768C18.1556 7.63341 17.755 8.25644 17.238 8.77526L10.6755 15.344C10.5008 15.5189 10.2933 15.6575 10.0648 15.7519C9.83632 15.8463 9.59144 15.8946 9.34425 15.894ZM5.06299 1.24401C4.06957 1.24299 3.11472 1.62852 2.40049 2.31901C2.03637 2.66935 1.7468 3.08966 1.54918 3.55471C1.35156 4.01976 1.24996 4.51996 1.25049 5.02526C1.24502 5.58108 1.34992 6.13246 1.55913 6.64743C1.76834 7.16241 2.07769 7.63073 2.46924 8.02526L8.90675 14.4628C8.96485 14.5213 9.03397 14.5678 9.11014 14.5996C9.1863 14.6313 9.26799 14.6476 9.3505 14.6476C9.433 14.6476 9.51469 14.6313 9.59086 14.5996C9.66702 14.5678 9.73614 14.5213 9.79425 14.4628L16.363 7.88776C16.7486 7.49403 17.0465 7.02318 17.2371 6.50613C17.4278 5.98908 17.5069 5.43755 17.4692 4.88776C17.4359 4.33233 17.2829 3.79067 17.0208 3.29985C16.7586 2.80903 16.3935 2.38064 15.9505 2.04401C15.1731 1.47081 14.2138 1.19979 13.2514 1.28143C12.2889 1.36307 11.389 1.7918 10.7192 2.48776L9.78799 3.44401C9.72989 3.50259 9.66077 3.54908 9.58461 3.58081C9.50844 3.61254 9.42675 3.62888 9.34425 3.62888C9.26174 3.62888 9.18005 3.61254 9.10388 3.58081C9.02772 3.54908 8.9586 3.50259 8.9005 3.44401L7.838 2.38151C7.10618 1.65605 6.11844 1.24749 5.08799 1.24401H5.06299Z" fill="#E90071"/>
<path d="M3.34424 0.944002C6.54424 -0.255998 8.67758 1.77734 9.34424 2.944C14.3442 -1.556 17.3442 2.444 17.3442 2.444C17.3442 2.444 18.8442 4.444 17.8442 6.944L9.34424 15.444L0.844245 6.944C0.344245 5.444 0.144245 2.144 3.34424 0.944002Z" fill="#E90071"/>
</svg>
