<svg width="6" height="10" viewBox="0 0 6 10" fill="none" xmlns="http://www.w3.org/2000/svg">
<g clip-path="url(#clip0_37_4)">
<path d="M4.51963 4.99866L0.452144 8.99866C0.411155 9.0372 0.379749 9.0848 0.360429 9.13766C0.341109 9.19052 0.334427 9.24719 0.340899 9.30311C0.347371 9.35902 0.366817 9.41264 0.3977 9.45968C0.428584 9.50672 0.470036 9.54589 0.518741 9.57402C0.624957 9.64408 0.751357 9.67697 0.878205 9.66757C1.00505 9.65816 1.12522 9.60698 1.21997 9.52202L5.55048 5.25802C5.58705 5.2249 5.61628 5.18446 5.63628 5.13933C5.65629 5.0942 5.66663 5.04539 5.66663 4.99602C5.66663 4.94665 5.65629 4.89783 5.63628 4.85271C5.61628 4.80758 5.58705 4.76714 5.55048 4.73402L1.21198 0.478034C1.10842 0.381314 0.971339 0.328695 0.829736 0.331346C0.716251 0.330273 0.605079 0.363502 0.510754 0.426683C0.462261 0.455124 0.42111 0.49455 0.390588 0.541795C0.360066 0.58904 0.341027 0.642796 0.335006 0.698737C0.328984 0.754678 0.33613 0.811228 0.355897 0.863898C0.375664 0.916568 0.407505 0.963868 0.448832 1.002L4.51963 4.99866Z" fill="#999999"/>
<path d="M0.829741 -9.57652e-06C1.0588 -0.00249527 1.27978 0.0845732 1.44572 0.242666L5.78357 4.498C5.8517 4.5622 5.90599 4.63967 5.9431 4.72566C5.98021 4.81164 5.99935 4.90433 5.99935 4.998C5.99935 5.09167 5.98021 5.18435 5.9431 5.27034C5.90599 5.35632 5.8517 5.43379 5.78357 5.498L1.44972 9.75731C1.28356 9.91498 1.06265 10.0018 0.833725 9.99934C0.653191 10.0008 0.476486 9.94727 0.326964 9.84598C0.237233 9.78655 0.161867 9.70785 0.106343 9.61559C0.0508188 9.52333 0.0165376 9.41984 0.00599039 9.31265C-0.00208227 9.2097 0.0127839 9.10625 0.0495211 9.00976C0.0862584 8.91326 0.14395 8.82613 0.218421 8.75467L4.0435 4.99535L0.215088 1.23868C0.140324 1.16724 0.0823658 1.08005 0.0453957 0.983429C0.00842548 0.886808 -0.00664127 0.783164 0.00131622 0.680003C0.0121713 0.573428 0.0465387 0.470595 0.101933 0.378937C0.157327 0.28728 0.232376 0.209098 0.321639 0.150015C0.471863 0.0495252 0.649089 -0.002819 0.829741 -9.57652e-06ZM0.834395 9.33332C0.88875 9.33528 0.941899 9.31701 0.983562 9.28201L5.31741 5.02265C5.32195 5.02059 5.32581 5.01725 5.32851 5.01305C5.33121 5.00886 5.33263 5.004 5.33263 4.99901C5.33263 4.99402 5.33121 4.98913 5.32851 4.98494C5.32581 4.98074 5.32195 4.9774 5.31741 4.97533L0.978908 0.718659C0.937341 0.683487 0.884125 0.665197 0.829741 0.667349C0.78265 0.665691 0.73617 0.67848 0.696548 0.704011C0.669911 0.722677 0.662589 0.738666 0.662589 0.742666C0.662589 0.746666 0.66593 0.754658 0.678583 0.767324L4.99178 4.99999L0.682566 9.23534C0.669914 9.24734 0.666593 9.25668 0.666593 9.25935C0.666593 9.26202 0.673914 9.28 0.700552 9.298C0.740631 9.32293 0.787252 9.33522 0.834395 9.33332Z" fill="#999999"/>
</g>
<defs>
<clipPath id="clip0_37_4">
<rect width="6" height="10" fill="white"/>
</clipPath>
</defs>
</svg>
