<svg width="228" height="322" viewBox="0 0 228 322" fill="none" xmlns="http://www.w3.org/2000/svg">
<rect width="228" height="322" fill="#EEEEEE"/>
<g clip-path="url(#clip0_171_2)">
<path d="M138.562 118.868L136.132 116.438L90.4375 162.132L92.868 164.562L96.3055 161.125H131.688C132.599 161.124 133.472 160.761 134.117 160.117C134.761 159.472 135.124 158.599 135.125 157.688V122.305L138.562 118.868ZM131.688 157.688H99.743L113.137 144.293L117.226 148.382C117.87 149.026 118.745 149.388 119.656 149.388C120.568 149.388 121.442 149.026 122.087 148.382L124.812 145.656L131.688 152.527V157.688ZM131.688 147.664L127.243 143.22C126.599 142.575 125.724 142.213 124.812 142.213C123.901 142.213 123.026 142.575 122.382 143.22L119.656 145.945L115.571 141.86L131.688 125.743V147.664Z" fill="#BBBBBB"/>
<path d="M97.3125 150.812V145.656L105.906 137.068L108.267 139.429L110.7 136.995L108.337 134.632C107.692 133.987 106.818 133.625 105.906 133.625C104.995 133.625 104.12 133.987 103.476 134.632L97.3125 140.795V123.312H124.812V119.875H97.3125C96.4011 119.876 95.5273 120.238 94.8828 120.883C94.2384 121.527 93.8759 122.401 93.875 123.312V150.812H97.3125Z" fill="#BBBBBB"/>
</g>
<mask id="path-4-outside-1_171_2" maskUnits="userSpaceOnUse" x="71" y="183" width="87" height="15" fill="black">
<rect fill="white" x="71" y="183" width="87" height="15"/>
<path d="M79.0124 197L73.0124 187.24V197H71.2324V183.7H72.9724L79.1724 193.74V183.7H80.9324V197H79.0124ZM89.3916 197.1C88.485 197.1 87.625 196.933 86.8116 196.6C86.0116 196.253 85.305 195.767 84.6916 195.14C84.0783 194.527 83.5983 193.813 83.2516 193C82.905 192.173 82.7316 191.307 82.7316 190.4C82.7316 189.493 82.8983 188.64 83.2316 187.84C83.5783 187.027 84.065 186.307 84.6916 185.68C85.305 185.067 86.0116 184.587 86.8116 184.24C87.625 183.893 88.485 183.72 89.3916 183.72C90.2983 183.72 91.1583 183.893 91.9716 184.24C92.785 184.587 93.4983 185.067 94.1116 185.68C94.725 186.293 95.205 187.007 95.5516 187.82C95.8983 188.633 96.0716 189.493 96.0716 190.4C96.0716 191.307 95.8983 192.173 95.5516 193C95.205 193.813 94.725 194.527 94.1116 195.14C93.4983 195.753 92.785 196.233 91.9716 196.58C91.1583 196.927 90.2983 197.1 89.3916 197.1ZM89.3916 185.54C88.7383 185.54 88.1116 185.667 87.5116 185.92C86.925 186.16 86.405 186.507 85.9516 186.96C85.4983 187.413 85.145 187.94 84.8916 188.54C84.6516 189.127 84.5316 189.747 84.5316 190.4C84.5316 191.067 84.6583 191.707 84.9116 192.32C85.165 192.92 85.5116 193.44 85.9516 193.88C86.405 194.333 86.925 194.687 87.5116 194.94C88.1116 195.18 88.7383 195.3 89.3916 195.3C90.045 195.3 90.665 195.18 91.2516 194.94C91.8516 194.687 92.3783 194.333 92.8316 193.88C93.2716 193.44 93.6183 192.92 93.8716 192.32C94.125 191.707 94.2516 191.067 94.2516 190.4C94.2516 189.747 94.125 189.127 93.8716 188.54C93.6316 187.94 93.285 187.413 92.8316 186.96C92.3783 186.507 91.8516 186.16 91.2516 185.92C90.665 185.667 90.045 185.54 89.3916 185.54ZM106.877 197V183.7H108.557V197H106.877ZM121.609 197V186.58L117.649 192.3H116.289L112.349 186.58V197H110.549V183.7H112.529L116.969 190.12L121.409 183.7H123.409V197H121.609ZM134.552 197L132.912 192.32H128.752L127.112 197H125.212L129.832 183.72H131.832L136.452 197H134.552ZM130.832 186.3L129.312 190.64H132.332L130.832 186.3ZM147.103 195.72C146.796 195.947 146.489 196.14 146.183 196.3C145.209 196.82 144.176 197.08 143.083 197.08C142.403 197.08 141.749 196.98 141.123 196.78C140.296 196.54 139.543 196.14 138.863 195.58C138.183 195.02 137.629 194.34 137.203 193.54C136.696 192.62 136.443 191.6 136.443 190.48C136.443 190.133 136.456 189.867 136.483 189.68C136.563 188.947 136.749 188.253 137.043 187.6C137.349 186.933 137.743 186.347 138.223 185.84C138.703 185.333 139.249 184.907 139.863 184.56C140.489 184.213 141.156 183.973 141.863 183.84C142.263 183.76 142.676 183.72 143.103 183.72C144.209 183.72 145.263 184 146.263 184.56C147.009 185 147.683 185.567 148.283 186.26L146.903 187.42C146.249 186.7 145.563 186.187 144.843 185.88C144.243 185.653 143.636 185.54 143.023 185.54C142.236 185.54 141.489 185.727 140.783 186.1C139.903 186.567 139.223 187.287 138.743 188.26C138.396 188.927 138.223 189.64 138.223 190.4C138.223 190.827 138.283 191.253 138.403 191.68C138.656 192.72 139.229 193.58 140.123 194.26C140.536 194.58 140.996 194.827 141.503 195C142.009 195.173 142.529 195.26 143.063 195.26C143.769 195.26 144.429 195.12 145.043 194.84C145.669 194.547 146.223 194.14 146.703 193.62V192.28H144.863V190.48H148.483V194.28C148.069 194.867 147.609 195.347 147.103 195.72ZM150.49 197V183.7H157.77V185.5H152.23V189.54H155.95V191.18H152.23V195.2H157.77V197H150.49Z"/>
</mask>
<path d="M79.0124 197L73.0124 187.24V197H71.2324V183.7H72.9724L79.1724 193.74V183.7H80.9324V197H79.0124ZM89.3916 197.1C88.485 197.1 87.625 196.933 86.8116 196.6C86.0116 196.253 85.305 195.767 84.6916 195.14C84.0783 194.527 83.5983 193.813 83.2516 193C82.905 192.173 82.7316 191.307 82.7316 190.4C82.7316 189.493 82.8983 188.64 83.2316 187.84C83.5783 187.027 84.065 186.307 84.6916 185.68C85.305 185.067 86.0116 184.587 86.8116 184.24C87.625 183.893 88.485 183.72 89.3916 183.72C90.2983 183.72 91.1583 183.893 91.9716 184.24C92.785 184.587 93.4983 185.067 94.1116 185.68C94.725 186.293 95.205 187.007 95.5516 187.82C95.8983 188.633 96.0716 189.493 96.0716 190.4C96.0716 191.307 95.8983 192.173 95.5516 193C95.205 193.813 94.725 194.527 94.1116 195.14C93.4983 195.753 92.785 196.233 91.9716 196.58C91.1583 196.927 90.2983 197.1 89.3916 197.1ZM89.3916 185.54C88.7383 185.54 88.1116 185.667 87.5116 185.92C86.925 186.16 86.405 186.507 85.9516 186.96C85.4983 187.413 85.145 187.94 84.8916 188.54C84.6516 189.127 84.5316 189.747 84.5316 190.4C84.5316 191.067 84.6583 191.707 84.9116 192.32C85.165 192.92 85.5116 193.44 85.9516 193.88C86.405 194.333 86.925 194.687 87.5116 194.94C88.1116 195.18 88.7383 195.3 89.3916 195.3C90.045 195.3 90.665 195.18 91.2516 194.94C91.8516 194.687 92.3783 194.333 92.8316 193.88C93.2716 193.44 93.6183 192.92 93.8716 192.32C94.125 191.707 94.2516 191.067 94.2516 190.4C94.2516 189.747 94.125 189.127 93.8716 188.54C93.6316 187.94 93.285 187.413 92.8316 186.96C92.3783 186.507 91.8516 186.16 91.2516 185.92C90.665 185.667 90.045 185.54 89.3916 185.54ZM106.877 197V183.7H108.557V197H106.877ZM121.609 197V186.58L117.649 192.3H116.289L112.349 186.58V197H110.549V183.7H112.529L116.969 190.12L121.409 183.7H123.409V197H121.609ZM134.552 197L132.912 192.32H128.752L127.112 197H125.212L129.832 183.72H131.832L136.452 197H134.552ZM130.832 186.3L129.312 190.64H132.332L130.832 186.3ZM147.103 195.72C146.796 195.947 146.489 196.14 146.183 196.3C145.209 196.82 144.176 197.08 143.083 197.08C142.403 197.08 141.749 196.98 141.123 196.78C140.296 196.54 139.543 196.14 138.863 195.58C138.183 195.02 137.629 194.34 137.203 193.54C136.696 192.62 136.443 191.6 136.443 190.48C136.443 190.133 136.456 189.867 136.483 189.68C136.563 188.947 136.749 188.253 137.043 187.6C137.349 186.933 137.743 186.347 138.223 185.84C138.703 185.333 139.249 184.907 139.863 184.56C140.489 184.213 141.156 183.973 141.863 183.84C142.263 183.76 142.676 183.72 143.103 183.72C144.209 183.72 145.263 184 146.263 184.56C147.009 185 147.683 185.567 148.283 186.26L146.903 187.42C146.249 186.7 145.563 186.187 144.843 185.88C144.243 185.653 143.636 185.54 143.023 185.54C142.236 185.54 141.489 185.727 140.783 186.1C139.903 186.567 139.223 187.287 138.743 188.26C138.396 188.927 138.223 189.64 138.223 190.4C138.223 190.827 138.283 191.253 138.403 191.68C138.656 192.72 139.229 193.58 140.123 194.26C140.536 194.58 140.996 194.827 141.503 195C142.009 195.173 142.529 195.26 143.063 195.26C143.769 195.26 144.429 195.12 145.043 194.84C145.669 194.547 146.223 194.14 146.703 193.62V192.28H144.863V190.48H148.483V194.28C148.069 194.867 147.609 195.347 147.103 195.72ZM150.49 197V183.7H157.77V185.5H152.23V189.54H155.95V191.18H152.23V195.2H157.77V197H150.49Z" fill="#BBBBBB"/>
<path d="M79.0124 197L78.842 197.105L78.9006 197.2H79.0124V197ZM73.0124 187.24L73.1828 187.135L72.8124 186.533V187.24H73.0124ZM73.0124 197V197.2H73.2124V197H73.0124ZM71.2324 197H71.0324V197.2H71.2324V197ZM71.2324 183.7V183.5H71.0324V183.7H71.2324ZM72.9724 183.7L73.1426 183.595L73.084 183.5H72.9724V183.7ZM79.1724 193.74L79.0023 193.845L79.3724 194.445V193.74H79.1724ZM79.1724 183.7V183.5H78.9724V183.7H79.1724ZM80.9324 183.7H81.1324V183.5H80.9324V183.7ZM80.9324 197V197.2H81.1324V197H80.9324ZM79.0124 197L79.1828 196.895L73.1828 187.135L73.0124 187.24L72.842 187.345L78.842 197.105L79.0124 197ZM73.0124 187.24H72.8124V197H73.0124H73.2124V187.24H73.0124ZM73.0124 197V196.8H71.2324V197V197.2H73.0124V197ZM71.2324 197H71.4324V183.7H71.2324H71.0324V197H71.2324ZM71.2324 183.7V183.9H72.9724V183.7V183.5H71.2324V183.7ZM72.9724 183.7L72.8023 183.805L79.0023 193.845L79.1724 193.74L79.3426 193.635L73.1426 183.595L72.9724 183.7ZM79.1724 193.74H79.3724V183.7H79.1724H78.9724V193.74H79.1724ZM79.1724 183.7V183.9H80.9324V183.7V183.5H79.1724V183.7ZM80.9324 183.7H80.7324V197H80.9324H81.1324V183.7H80.9324ZM80.9324 197V196.8H79.0124V197V197.2H80.9324V197ZM86.8116 196.6L86.7321 196.784L86.7358 196.785L86.8116 196.6ZM84.6916 195.14L84.8346 195L84.8331 194.999L84.6916 195.14ZM83.2516 193L83.0672 193.077L83.0677 193.078L83.2516 193ZM83.2316 187.84L83.0476 187.762L83.047 187.763L83.2316 187.84ZM84.6916 185.68L84.8331 185.821L84.8331 185.821L84.6916 185.68ZM86.8116 184.24L86.7332 184.056L86.7321 184.056L86.8116 184.24ZM91.9716 184.24L91.8932 184.424L91.8932 184.424L91.9716 184.24ZM95.5516 187.82L95.7356 187.742L95.7356 187.742L95.5516 187.82ZM95.5516 193L95.7356 193.078L95.7361 193.077L95.5516 193ZM94.1116 195.14L94.2531 195.281L94.2531 195.281L94.1116 195.14ZM91.9716 196.58L92.0501 196.764L92.0501 196.764L91.9716 196.58ZM87.5116 185.92L87.5874 186.105L87.5894 186.104L87.5116 185.92ZM85.9516 186.96L85.8102 186.819L85.8102 186.819L85.9516 186.96ZM84.8916 188.54L84.7074 188.462L84.7065 188.464L84.8916 188.54ZM84.9116 192.32L84.7268 192.396L84.7274 192.398L84.9116 192.32ZM85.9516 193.88L85.8102 194.021L85.8102 194.021L85.9516 193.88ZM87.5116 194.94L87.4323 195.124L87.4374 195.126L87.5116 194.94ZM91.2516 194.94L91.3274 195.125L91.3294 195.124L91.2516 194.94ZM92.8316 193.88L92.9731 194.021L92.8316 193.88ZM93.8716 192.32L94.0559 192.398L94.0565 192.396L93.8716 192.32ZM93.8716 188.54L93.6859 188.614L93.688 188.619L93.8716 188.54ZM92.8316 186.96L92.6902 187.101L92.6902 187.101L92.8316 186.96ZM91.2516 185.92L91.1723 186.104L91.1774 186.106L91.2516 185.92ZM89.3916 197.1V196.9C88.5102 196.9 87.676 196.738 86.8875 196.415L86.8116 196.6L86.7358 196.785C87.574 197.129 88.4598 197.3 89.3916 197.3V197.1ZM86.8116 196.6L86.8912 196.416C86.1151 196.08 85.4299 195.608 84.8346 195L84.6916 195.14L84.5487 195.28C85.18 195.925 85.9082 196.426 86.7321 196.784L86.8116 196.6ZM84.6916 195.14L84.8331 194.999C84.2382 194.404 83.7725 193.712 83.4356 192.922L83.2516 193L83.0677 193.078C83.4242 193.915 83.9184 194.65 84.5502 195.281L84.6916 195.14ZM83.2516 193L83.4361 192.923C83.0998 192.121 82.9316 191.28 82.9316 190.4H82.7316H82.5316C82.5316 191.333 82.7101 192.226 83.0672 193.077L83.2516 193ZM82.7316 190.4H82.9316C82.9316 189.518 83.0935 188.691 83.4163 187.917L83.2316 187.84L83.047 187.763C82.7031 188.589 82.5316 189.468 82.5316 190.4H82.7316ZM83.2316 187.84L83.4156 187.918C83.7522 187.129 84.2244 186.43 84.8331 185.821L84.6916 185.68L84.5502 185.539C83.9055 186.183 83.4044 186.925 83.0477 187.762L83.2316 187.84ZM84.6916 185.68L84.8331 185.821C85.4285 185.226 86.1141 184.76 86.8912 184.424L86.8116 184.24L86.7321 184.056C85.9091 184.413 85.1814 184.907 84.5502 185.539L84.6916 185.68ZM86.8116 184.24L86.8901 184.424C87.678 184.088 88.5112 183.92 89.3916 183.92V183.72V183.52C88.4587 183.52 87.572 183.699 86.7332 184.056L86.8116 184.24ZM89.3916 183.72V183.92C90.2721 183.92 91.1053 184.088 91.8932 184.424L91.9716 184.24L92.0501 184.056C91.2113 183.699 90.3246 183.52 89.3916 183.52V183.72ZM91.9716 184.24L91.8932 184.424C92.6835 184.761 93.3753 185.227 93.9702 185.821L94.1116 185.68L94.2531 185.539C93.6213 184.907 92.8865 184.413 92.0501 184.056L91.9716 184.24ZM94.1116 185.68L93.9702 185.821C94.5651 186.416 95.0308 187.108 95.3677 187.898L95.5516 187.82L95.7356 187.742C95.3791 186.905 94.8848 186.17 94.2531 185.539L94.1116 185.68ZM95.5516 187.82L95.3677 187.898C95.7035 188.686 95.8716 189.52 95.8716 190.4H96.0716H96.2716C96.2716 189.467 96.0931 188.58 95.7356 187.742L95.5516 187.82ZM96.0716 190.4H95.8716C95.8716 191.28 95.7035 192.121 95.3672 192.923L95.5516 193L95.7361 193.077C96.0931 192.226 96.2716 191.333 96.2716 190.4H96.0716ZM95.5516 193L95.3677 192.922C95.0308 193.712 94.5651 194.404 93.9702 194.999L94.1116 195.14L94.2531 195.281C94.8848 194.65 95.3791 193.915 95.7356 193.078L95.5516 193ZM94.1116 195.14L93.9702 194.999C93.3753 195.593 92.6835 196.059 91.8932 196.396L91.9716 196.58L92.0501 196.764C92.8865 196.407 93.6213 195.913 94.2531 195.281L94.1116 195.14ZM91.9716 196.58L91.8932 196.396C91.1053 196.732 90.2721 196.9 89.3916 196.9V197.1V197.3C90.3246 197.3 91.2113 197.121 92.0501 196.764L91.9716 196.58ZM89.3916 185.54V185.34C88.7117 185.34 88.0585 185.472 87.4338 185.736L87.5116 185.92L87.5894 186.104C88.1647 185.861 88.7649 185.74 89.3916 185.74V185.54ZM87.5116 185.92L87.4359 185.735C86.8244 185.985 86.2821 186.347 85.8102 186.819L85.9516 186.96L86.0931 187.101C86.5278 186.667 87.0256 186.335 87.5874 186.105L87.5116 185.92ZM85.9516 186.96L85.8102 186.819C85.3383 187.29 84.9706 187.839 84.7074 188.462L84.8916 188.54L85.0759 188.618C85.3193 188.041 85.6583 187.536 86.0931 187.101L85.9516 186.96ZM84.8916 188.54L84.7065 188.464C84.4564 189.076 84.3316 189.722 84.3316 190.4H84.5316H84.7316C84.7316 189.772 84.8469 189.178 85.0768 188.616L84.8916 188.54ZM84.5316 190.4H84.3316C84.3316 191.093 84.4634 191.759 84.7268 192.396L84.9116 192.32L85.0965 192.244C84.8532 191.655 84.7316 191.041 84.7316 190.4H84.5316ZM84.9116 192.32L84.7274 192.398C84.9903 193.02 85.3511 193.562 85.8102 194.021L85.9516 193.88L86.0931 193.739C85.6722 193.318 85.3397 192.82 85.0959 192.242L84.9116 192.32ZM85.9516 193.88L85.8102 194.021C86.2814 194.493 86.8224 194.86 87.4324 195.124L87.5116 194.94L87.5909 194.756C87.0275 194.513 86.5286 194.174 86.0931 193.739L85.9516 193.88ZM87.5116 194.94L87.4374 195.126C88.0613 195.375 88.7132 195.5 89.3916 195.5V195.3V195.1C88.7635 195.1 88.162 194.985 87.5859 194.754L87.5116 194.94ZM89.3916 195.3V195.5C90.0701 195.5 90.7159 195.375 91.3274 195.125L91.2516 194.94L91.1759 194.755C90.614 194.985 90.0198 195.1 89.3916 195.1V195.3ZM91.2516 194.94L91.3294 195.124C91.9528 194.861 92.5012 194.493 92.9731 194.021L92.8316 193.88L92.6902 193.739C92.2554 194.173 91.7505 194.512 91.1738 194.756L91.2516 194.94ZM92.8316 193.88L92.9731 194.021C93.4322 193.562 93.793 193.02 94.0559 192.398L93.8716 192.32L93.6874 192.242C93.4436 192.82 93.1111 193.318 92.6902 193.739L92.8316 193.88ZM93.8716 192.32L94.0565 192.396C94.3199 191.759 94.4516 191.093 94.4516 190.4H94.2516H94.0516C94.0516 191.041 93.9301 191.655 93.6868 192.244L93.8716 192.32ZM94.2516 190.4H94.4516C94.4516 189.72 94.3196 189.073 94.0553 188.461L93.8716 188.54L93.688 188.619C93.9303 189.18 94.0516 189.773 94.0516 190.4H94.2516ZM93.8716 188.54L94.0573 188.466C93.8074 187.841 93.4457 187.291 92.9731 186.819L92.8316 186.96L92.6902 187.101C93.1242 187.535 93.4559 188.039 93.6859 188.614L93.8716 188.54ZM92.8316 186.96L92.9731 186.819C92.5004 186.346 91.9509 185.984 91.3259 185.734L91.2516 185.92L91.1774 186.106C91.7524 186.336 92.2562 186.667 92.6902 187.101L92.8316 186.96ZM91.2516 185.92L91.3309 185.736C90.7187 185.472 90.0716 185.34 89.3916 185.34V185.54V185.74C90.0183 185.74 90.6113 185.861 91.1724 186.104L91.2516 185.92ZM106.877 197H106.677V197.2H106.877V197ZM106.877 183.7V183.5H106.677V183.7H106.877ZM108.557 183.7H108.757V183.5H108.557V183.7ZM108.557 197V197.2H108.757V197H108.557ZM106.877 197H107.077V183.7H106.877H106.677V197H106.877ZM106.877 183.7V183.9H108.557V183.7V183.5H106.877V183.7ZM108.557 183.7H108.357V197H108.557H108.757V183.7H108.557ZM108.557 197V196.8H106.877V197V197.2H108.557V197ZM121.609 197H121.409V197.2H121.609V197ZM121.609 186.58H121.809V185.94L121.444 186.466L121.609 186.58ZM117.649 192.3V192.5H117.754L117.813 192.414L117.649 192.3ZM116.289 192.3L116.124 192.413L116.184 192.5H116.289V192.3ZM112.349 186.58L112.514 186.467L112.149 185.937V186.58H112.349ZM112.349 197V197.2H112.549V197H112.349ZM110.549 197H110.349V197.2H110.549V197ZM110.549 183.7V183.5H110.349V183.7H110.549ZM112.529 183.7L112.693 183.586L112.634 183.5H112.529V183.7ZM116.969 190.12L116.804 190.234L116.969 190.472L117.133 190.234L116.969 190.12ZM121.409 183.7V183.5H121.304L121.244 183.586L121.409 183.7ZM123.409 183.7H123.609V183.5H123.409V183.7ZM123.409 197V197.2H123.609V197H123.409ZM121.609 197H121.809V186.58H121.609H121.409V197H121.609ZM121.609 186.58L121.444 186.466L117.484 192.186L117.649 192.3L117.813 192.414L121.773 186.694L121.609 186.58ZM117.649 192.3V192.1H116.289V192.3V192.5H117.649V192.3ZM116.289 192.3L116.454 192.187L112.514 186.467L112.349 186.58L112.184 186.693L116.124 192.413L116.289 192.3ZM112.349 186.58H112.149V197H112.349H112.549V186.58H112.349ZM112.349 197V196.8H110.549V197V197.2H112.349V197ZM110.549 197H110.749V183.7H110.549H110.349V197H110.549ZM110.549 183.7V183.9H112.529V183.7V183.5H110.549V183.7ZM112.529 183.7L112.364 183.814L116.804 190.234L116.969 190.12L117.133 190.006L112.693 183.586L112.529 183.7ZM116.969 190.12L117.133 190.234L121.573 183.814L121.409 183.7L121.244 183.586L116.804 190.006L116.969 190.12ZM121.409 183.7V183.9H123.409V183.7V183.5H121.409V183.7ZM123.409 183.7H123.209V197H123.409H123.609V183.7H123.409ZM123.409 197V196.8H121.609V197V197.2H123.409V197ZM134.552 197L134.363 197.066L134.41 197.2H134.552V197ZM132.912 192.32L133.101 192.254L133.054 192.12H132.912V192.32ZM128.752 192.32V192.12H128.61L128.563 192.254L128.752 192.32ZM127.112 197V197.2H127.254L127.301 197.066L127.112 197ZM125.212 197L125.023 196.934L124.931 197.2H125.212V197ZM129.832 183.72V183.52H129.69L129.643 183.654L129.832 183.72ZM131.832 183.72L132.021 183.654L131.974 183.52H131.832V183.72ZM136.452 197V197.2H136.733L136.641 196.934L136.452 197ZM130.832 186.3L131.021 186.235L130.833 185.691L130.643 186.234L130.832 186.3ZM129.312 190.64L129.123 190.574L129.03 190.84H129.312V190.64ZM132.332 190.64V190.84H132.613L132.521 190.575L132.332 190.64ZM134.552 197L134.741 196.934L133.101 192.254L132.912 192.32L132.723 192.386L134.363 197.066L134.552 197ZM132.912 192.32V192.12H128.752V192.32V192.52H132.912V192.32ZM128.752 192.32L128.563 192.254L126.923 196.934L127.112 197L127.301 197.066L128.941 192.386L128.752 192.32ZM127.112 197V196.8H125.212V197V197.2H127.112V197ZM125.212 197L125.401 197.066L130.021 183.786L129.832 183.72L129.643 183.654L125.023 196.934L125.212 197ZM129.832 183.72V183.92H131.832V183.72V183.52H129.832V183.72ZM131.832 183.72L131.643 183.786L136.263 197.066L136.452 197L136.641 196.934L132.021 183.654L131.832 183.72ZM136.452 197V196.8H134.552V197V197.2H136.452V197ZM130.832 186.3L130.643 186.234L129.123 190.574L129.312 190.64L129.501 190.706L131.021 186.366L130.832 186.3ZM129.312 190.64V190.84H132.332V190.64V190.44H129.312V190.64ZM132.332 190.64L132.521 190.575L131.021 186.235L130.832 186.3L130.643 186.365L132.143 190.705L132.332 190.64ZM147.103 195.72L146.984 195.559L146.984 195.559L147.103 195.72ZM146.183 196.3L146.09 196.123L146.088 196.124L146.183 196.3ZM141.123 196.78L141.183 196.589L141.178 196.588L141.123 196.78ZM138.863 195.58L138.99 195.426L138.99 195.426L138.863 195.58ZM137.203 193.54L137.379 193.446L137.378 193.444L137.203 193.54ZM136.483 189.68L136.681 189.708L136.681 189.702L136.483 189.68ZM137.043 187.6L136.861 187.516L136.86 187.518L137.043 187.6ZM138.223 185.84L138.368 185.978L138.368 185.978L138.223 185.84ZM139.863 184.56L139.766 184.385L139.764 184.386L139.863 184.56ZM141.863 183.84L141.9 184.037L141.902 184.036L141.863 183.84ZM146.263 184.56L146.364 184.388L146.36 184.385L146.263 184.56ZM148.283 186.26L148.411 186.413L148.567 186.283L148.434 186.129L148.283 186.26ZM146.903 187.42L146.754 187.554L146.884 187.697L147.031 187.573L146.903 187.42ZM144.843 185.88L144.921 185.696L144.913 185.693L144.843 185.88ZM140.783 186.1L140.689 185.923L140.689 185.923L140.783 186.1ZM138.743 188.26L138.92 188.352L138.922 188.348L138.743 188.26ZM138.403 191.68L138.597 191.633L138.595 191.626L138.403 191.68ZM140.123 194.26L140.245 194.102L140.244 194.101L140.123 194.26ZM141.503 195L141.438 195.189L141.438 195.189L141.503 195ZM145.043 194.84L145.126 195.022L145.127 195.021L145.043 194.84ZM146.703 193.62L146.85 193.756L146.903 193.698V193.62H146.703ZM146.703 192.28H146.903V192.08H146.703V192.28ZM144.863 192.28H144.663V192.48H144.863V192.28ZM144.863 190.48V190.28H144.663V190.48H144.863ZM148.483 190.48H148.683V190.28H148.483V190.48ZM148.483 194.28L148.646 194.395L148.683 194.343V194.28H148.483ZM147.103 195.72L146.984 195.559C146.685 195.78 146.387 195.968 146.09 196.123L146.183 196.3L146.275 196.477C146.592 196.312 146.907 196.113 147.221 195.881L147.103 195.72ZM146.183 196.3L146.088 196.124C145.144 196.628 144.143 196.88 143.083 196.88V197.08V197.28C144.209 197.28 145.275 197.012 146.277 196.476L146.183 196.3ZM143.083 197.08V196.88C142.423 196.88 141.79 196.783 141.183 196.589L141.123 196.78L141.062 196.971C141.709 197.177 142.383 197.28 143.083 197.28V197.08ZM141.123 196.78L141.178 196.588C140.378 196.356 139.649 195.969 138.99 195.426L138.863 195.58L138.735 195.734C139.436 196.311 140.213 196.724 141.067 196.972L141.123 196.78ZM138.863 195.58L138.99 195.426C138.331 194.883 137.794 194.223 137.379 193.446L137.203 193.54L137.026 193.634C137.465 194.457 138.035 195.157 138.735 195.734L138.863 195.58ZM137.203 193.54L137.378 193.444C136.888 192.555 136.643 191.569 136.643 190.48H136.443H136.243C136.243 191.631 136.503 192.685 137.027 193.636L137.203 193.54ZM136.443 190.48H136.643C136.643 190.136 136.656 189.881 136.681 189.708L136.483 189.68L136.285 189.652C136.256 189.852 136.243 190.13 136.243 190.48H136.443ZM136.483 189.68L136.681 189.702C136.759 188.989 136.941 188.316 137.225 187.682L137.043 187.6L136.86 187.518C136.558 188.191 136.366 188.905 136.284 189.658L136.483 189.68ZM137.043 187.6L137.224 187.684C137.522 187.036 137.904 186.468 138.368 185.978L138.223 185.84L138.077 185.702C137.582 186.226 137.176 186.831 136.861 187.516L137.043 187.6ZM138.223 185.84L138.368 185.978C138.834 185.485 139.365 185.071 139.961 184.734L139.863 184.56L139.764 184.386C139.134 184.742 138.571 185.181 138.077 185.702L138.223 185.84ZM139.863 184.56L139.959 184.735C140.567 184.399 141.214 184.166 141.9 184.037L141.863 183.84L141.825 183.643C141.098 183.781 140.411 184.028 139.766 184.385L139.863 184.56ZM141.863 183.84L141.902 184.036C142.288 183.959 142.688 183.92 143.103 183.92V183.72V183.52C142.663 183.52 142.237 183.561 141.823 183.644L141.863 183.84ZM143.103 183.72V183.92C144.174 183.92 145.194 184.191 146.165 184.735L146.263 184.56L146.36 184.385C145.332 183.809 144.245 183.52 143.103 183.52V183.72ZM146.263 184.56L146.161 184.732C146.888 185.161 147.545 185.713 148.131 186.391L148.283 186.26L148.434 186.129C147.82 185.42 147.131 184.839 146.364 184.388L146.263 184.56ZM148.283 186.26L148.154 186.107L146.774 187.267L146.903 187.42L147.031 187.573L148.411 186.413L148.283 186.26ZM146.903 187.42L147.051 187.286C146.383 186.549 145.673 186.016 144.921 185.696L144.843 185.88L144.764 186.064C145.452 186.357 146.116 186.851 146.754 187.554L146.903 187.42ZM144.843 185.88L144.913 185.693C144.292 185.458 143.661 185.34 143.023 185.34V185.54V185.74C143.611 185.74 144.193 185.849 144.772 186.067L144.843 185.88ZM143.023 185.54V185.34C142.203 185.34 141.424 185.535 140.689 185.923L140.783 186.1L140.876 186.277C141.554 185.918 142.269 185.74 143.023 185.74V185.54ZM140.783 186.1L140.689 185.923C139.768 186.411 139.06 187.164 138.563 188.172L138.743 188.26L138.922 188.348C139.385 187.409 140.037 186.722 140.876 186.277L140.783 186.1ZM138.743 188.26L138.565 188.168C138.203 188.863 138.023 189.608 138.023 190.4H138.223H138.423C138.423 189.672 138.588 188.99 138.92 188.352L138.743 188.26ZM138.223 190.4H138.023C138.023 190.846 138.085 191.291 138.21 191.734L138.403 191.68L138.595 191.626C138.48 191.216 138.423 190.808 138.423 190.4H138.223ZM138.403 191.68L138.208 191.727C138.473 192.814 139.074 193.713 140.001 194.419L140.123 194.26L140.244 194.101C139.385 193.447 138.839 192.626 138.597 191.633L138.403 191.68ZM140.123 194.26L140 194.418C140.431 194.752 140.911 195.009 141.438 195.189L141.503 195L141.567 194.811C141.081 194.644 140.641 194.408 140.245 194.102L140.123 194.26ZM141.503 195L141.438 195.189C141.965 195.37 142.507 195.46 143.063 195.46V195.26V195.06C142.551 195.06 142.053 194.977 141.567 194.811L141.503 195ZM143.063 195.26V195.46C143.796 195.46 144.485 195.314 145.126 195.022L145.043 194.84L144.96 194.658C144.374 194.926 143.742 195.06 143.063 195.06V195.26ZM145.043 194.84L145.127 195.021C145.778 194.717 146.352 194.294 146.85 193.756L146.703 193.62L146.556 193.484C146.093 193.986 145.56 194.377 144.958 194.659L145.043 194.84ZM146.703 193.62H146.903V192.28H146.703H146.503V193.62H146.703ZM146.703 192.28V192.08H144.863V192.28V192.48H146.703V192.28ZM144.863 192.28H145.063V190.48H144.863H144.663V192.28H144.863ZM144.863 190.48V190.68H148.483V190.48V190.28H144.863V190.48ZM148.483 190.48H148.283V194.28H148.483H148.683V190.48H148.483ZM148.483 194.28L148.319 194.165C147.916 194.736 147.471 195.2 146.984 195.559L147.103 195.72L147.221 195.881C147.747 195.493 148.222 194.997 148.646 194.395L148.483 194.28ZM150.49 197H150.29V197.2H150.49V197ZM150.49 183.7V183.5H150.29V183.7H150.49ZM157.77 183.7H157.97V183.5H157.77V183.7ZM157.77 185.5V185.7H157.97V185.5H157.77ZM152.23 185.5V185.3H152.03V185.5H152.23ZM152.23 189.54H152.03V189.74H152.23V189.54ZM155.95 189.54H156.15V189.34H155.95V189.54ZM155.95 191.18V191.38H156.15V191.18H155.95ZM152.23 191.18V190.98H152.03V191.18H152.23ZM152.23 195.2H152.03V195.4H152.23V195.2ZM157.77 195.2H157.97V195H157.77V195.2ZM157.77 197V197.2H157.97V197H157.77ZM150.49 197H150.69V183.7H150.49H150.29V197H150.49ZM150.49 183.7V183.9H157.77V183.7V183.5H150.49V183.7ZM157.77 183.7H157.57V185.5H157.77H157.97V183.7H157.77ZM157.77 185.5V185.3H152.23V185.5V185.7H157.77V185.5ZM152.23 185.5H152.03V189.54H152.23H152.43V185.5H152.23ZM152.23 189.54V189.74H155.95V189.54V189.34H152.23V189.54ZM155.95 189.54H155.75V191.18H155.95H156.15V189.54H155.95ZM155.95 191.18V190.98H152.23V191.18V191.38H155.95V191.18ZM152.23 191.18H152.03V195.2H152.23H152.43V191.18H152.23ZM152.23 195.2V195.4H157.77V195.2V195H152.23V195.2ZM157.77 195.2H157.57V197H157.77H157.97V195.2H157.77ZM157.77 197V196.8H150.49V197V197.2H157.77V197Z" fill="#BBBBBB" mask="url(#path-4-outside-1_171_2)"/>
<defs>
<clipPath id="clip0_171_2">
<rect width="55" height="55" fill="white" transform="translate(87 113)"/>
</clipPath>
</defs>
</svg>
