<svg width="228" height="322" viewBox="0 0 228 322" fill="none" xmlns="http://www.w3.org/2000/svg">
<rect width="228" height="322" fill="#DDDDDD"/>
<g clip-path="url(#clip0_172_11)">
<path d="M150.75 127.962L147.038 124.25L77.25 194.038L80.962 197.75L86.212 192.5H140.25C141.642 192.498 142.976 191.944 143.96 190.96C144.944 189.976 145.498 188.642 145.5 187.25V133.212L150.75 127.962ZM140.25 187.25H91.462L111.918 166.793L118.163 173.037C119.147 174.022 120.483 174.575 121.875 174.575C123.267 174.575 124.603 174.022 125.587 173.037L129.75 168.875L140.25 179.368V187.25ZM140.25 171.942L133.462 165.154C132.478 164.169 131.142 163.616 129.75 163.616C128.358 163.616 127.022 164.169 126.038 165.154L121.875 169.317L115.635 163.077L140.25 138.462V171.942Z" fill="#BBBBBB"/>
<path d="M87.75 176.75V168.875L100.875 155.759L104.48 159.364L108.197 155.647L104.587 152.037C103.603 151.053 102.267 150.5 100.875 150.5C99.4826 150.5 98.1473 151.053 97.1627 152.037L87.75 161.45V134.75H129.75V129.5H87.75C86.358 129.501 85.0235 130.055 84.0392 131.039C83.055 132.023 82.5014 133.358 82.5 134.75V176.75H87.75Z" fill="#BBBBBB"/>
</g>
<defs>
<clipPath id="clip0_172_11">
<rect width="84" height="84" fill="white" transform="translate(72 119)"/>
</clipPath>
</defs>
</svg>
