<svg width="58" height="58" viewBox="0 0 58 58" fill="none" xmlns="http://www.w3.org/2000/svg">
<g clip-path="url(#clip0_82_10)">
<path d="M29 0C12.9835 0 0 12.9835 0 29C0 45.0165 12.9835 58 29 58C45.0165 58 58 45.0165 58 29C58 12.9835 45.0165 0 29 0ZM4.83333 29C4.83333 15.6528 15.6528 4.83333 29 4.83333C34.8604 4.83333 40.229 6.92013 44.4123 10.388L10.388 44.4123C6.92013 40.229 4.83333 34.8604 4.83333 29ZM29 53.1667C23.2532 53.1667 17.9812 51.1524 13.833 47.8029L47.8017 13.8354C51.1524 17.9812 53.1667 23.2532 53.1667 29C53.1667 42.3473 42.3473 53.1667 29 53.1667Z" fill="#CCCCCC"/>
</g>
<defs>
<clipPath id="clip0_82_10">
<rect width="58" height="58" fill="white"/>
</clipPath>
</defs>
</svg>
