<svg width="87" height="93" viewBox="0 0 87 93" fill="none" xmlns="http://www.w3.org/2000/svg">
<path d="M43.3333 43.3333C55.2995 43.3333 65 33.6328 65 21.6667C65 9.7005 55.2995 0 43.3333 0C31.3672 0 21.6667 9.7005 21.6667 21.6667C21.6667 33.6328 31.3672 43.3333 43.3333 43.3333Z" fill="white"/>
<path d="M86.6667 81.25V86.6667C86.6667 88.1033 86.096 89.481 85.0802 90.4968C84.0643 91.5127 82.6866 92.0833 81.25 92.0833H5.41667C3.98008 92.0833 2.60233 91.5127 1.58651 90.4968C0.570684 89.481 0 88.1033 0 86.6667V81.25C0 72.6305 3.4241 64.364 9.51903 58.269C15.614 52.1741 23.8805 48.75 32.5 48.75H54.1667C62.7862 48.75 71.0527 52.1741 77.1476 58.269C83.2426 64.364 86.6667 72.6305 86.6667 81.25Z" fill="white"/>
</svg>
