<svg width="20" height="20" viewBox="0 0 20 20" fill="none" xmlns="http://www.w3.org/2000/svg">
<g clip-path="url(#clip0_66_42)">
<path d="M10 0.833344C8.187 0.833344 6.41472 1.37096 4.90727 2.37821C3.39982 3.38545 2.22491 4.81709 1.5311 6.49208C0.8373 8.16707 0.655769 10.0102 1.00947 11.7883C1.36317 13.5665 2.23621 15.1998 3.51819 16.4818C4.80017 17.7638 6.43351 18.6368 8.21167 18.9905C9.98983 19.3442 11.8329 19.1627 13.5079 18.4689C15.1829 17.7751 16.6146 16.6002 17.6218 15.0927C18.6291 13.5853 19.1667 11.813 19.1667 10C19.1667 7.56886 18.2009 5.23728 16.4818 3.5182C14.7627 1.79911 12.4311 0.833344 10 0.833344ZM13.9225 12.7442C14.0021 12.821 14.0656 12.913 14.1092 13.0147C14.1529 13.1163 14.1759 13.2257 14.1769 13.3363C14.1778 13.447 14.1568 13.5567 14.1149 13.6591C14.0729 13.7616 14.0111 13.8546 13.9328 13.9328C13.8546 14.0111 13.7615 14.073 13.6591 14.1149C13.5567 14.1568 13.447 14.1778 13.3363 14.1769C13.2257 14.1759 13.1163 14.1529 13.0147 14.1093C12.913 14.0656 12.821 14.0021 12.7442 13.9225L10 11.1783L7.25583 13.9225C7.17896 14.0021 7.08701 14.0656 6.98534 14.1093C6.88367 14.1529 6.77432 14.1759 6.66367 14.1769C6.55302 14.1778 6.44328 14.1568 6.34087 14.1149C6.23846 14.073 6.14541 14.0111 6.06717 13.9328C5.98893 13.8546 5.92705 13.7616 5.88515 13.6591C5.84325 13.5567 5.82216 13.447 5.82312 13.3363C5.82408 13.2257 5.84707 13.1163 5.89075 13.0147C5.93442 12.913 5.99791 12.821 6.0775 12.7442L8.82167 10L6.0775 7.25584C5.99791 7.17897 5.93442 7.08702 5.89075 6.98535C5.84707 6.88368 5.82408 6.77433 5.82312 6.66368C5.82216 6.55303 5.84325 6.4433 5.88515 6.34088C5.92705 6.23847 5.98893 6.14542 6.06717 6.06718C6.14541 5.98894 6.23846 5.92706 6.34087 5.88516C6.44328 5.84326 6.55302 5.82217 6.66367 5.82313C6.77432 5.8241 6.88367 5.84708 6.98534 5.89076C7.08701 5.93443 7.17896 5.99792 7.25583 6.07751L10 8.82168L12.7442 6.07751C12.821 5.99792 12.913 5.93443 13.0147 5.89076C13.1163 5.84708 13.2257 5.8241 13.3363 5.82313C13.447 5.82217 13.5567 5.84326 13.6591 5.88516C13.7615 5.92706 13.8546 5.98894 13.9328 6.06718C14.0111 6.14542 14.0729 6.23847 14.1149 6.34088C14.1568 6.4433 14.1778 6.55303 14.1769 6.66368C14.1759 6.77433 14.1529 6.88368 14.1092 6.98535C14.0656 7.08702 14.0021 7.17897 13.9225 7.25584L11.1783 10L13.9225 12.7442Z" fill="#999999"/>
</g>
<defs>
<clipPath id="clip0_66_42">
<rect width="20" height="20" fill="white"/>
</clipPath>
</defs>
</svg>
