<svg width="18" height="18" viewBox="0 0 18 18" fill="none" xmlns="http://www.w3.org/2000/svg">
<path d="M7.0215 6.86851C7.0215 6.86851 4.6515 7.13101 3.0705 7.30651C2.928 7.32376 2.802 7.41901 2.75475 7.56376C2.7075 7.70851 2.75475 7.85926 2.85975 7.95451C4.03425 9.02626 5.799 10.6313 5.799 10.6313C5.7975 10.6313 5.3145 12.966 4.9935 14.5238C4.9665 14.6648 5.0175 14.814 5.1405 14.9033C5.26275 14.9925 5.42025 14.994 5.544 14.9243C6.927 14.1383 8.9985 12.9563 8.9985 12.9563C8.9985 12.9563 11.0708 14.1383 12.4515 14.925C12.5775 14.994 12.735 14.9925 12.8573 14.9033C12.9803 14.814 13.0313 14.6648 13.0035 14.5245C12.6825 12.966 12.2003 10.6313 12.2003 10.6313C12.2003 10.6313 13.965 9.02626 15.1395 7.95676C15.2445 7.85851 15.291 7.70776 15.2445 7.56376C15.198 7.41976 15.072 7.32451 14.9295 7.30801C13.3485 7.13101 10.9778 6.86851 10.9778 6.86851C10.9778 6.86851 9.99525 4.69501 9.3405 3.24601C9.279 3.11626 9.15 3.02551 8.9985 3.02551C8.847 3.02551 8.71725 3.11701 8.65875 3.24601C8.00325 4.69501 7.0215 6.86851 7.0215 6.86851Z" fill="#999999"/>
</svg>
