<svg width="13" height="12" viewBox="0 0 13 12" fill="none" xmlns="http://www.w3.org/2000/svg">
<path d="M4.28509 3.843C4.28509 3.843 1.91509 4.1055 0.334089 4.281C0.191589 4.29825 0.0655895 4.3935 0.0183395 4.53825C-0.0289105 4.683 0.0183394 4.83375 0.123339 4.929C1.29784 6.00075 3.06259 7.60575 3.06259 7.60575C3.06109 7.60575 2.57809 9.9405 2.25709 11.4982C2.23009 11.6392 2.28109 11.7885 2.40409 11.8777C2.52634 11.967 2.68384 11.9685 2.80759 11.8987C4.19059 11.1127 6.26209 9.93075 6.26209 9.93075C6.26209 9.93075 8.33434 11.1127 9.71509 11.8995C9.84109 11.9685 9.99859 11.967 10.1208 11.8777C10.2438 11.7885 10.2948 11.6392 10.2671 11.499C9.94609 9.9405 9.46384 7.60575 9.46384 7.60575C9.46384 7.60575 11.2286 6.00075 12.4031 4.93125C12.5081 4.833 12.5546 4.68225 12.5081 4.53825C12.4616 4.39425 12.3356 4.299 12.1931 4.2825C10.6121 4.1055 8.24134 3.843 8.24134 3.843C8.24134 3.843 7.25884 1.6695 6.60409 0.2205C6.54259 0.0907501 6.41359 0 6.26209 0C6.11059 0 5.98084 0.0915001 5.92234 0.2205C5.26684 1.6695 4.28509 3.843 4.28509 3.843Z" fill="#CCCCCC"/>
</svg>
