<svg width="14" height="12" viewBox="0 0 14 12" fill="none" xmlns="http://www.w3.org/2000/svg">
<path d="M5.02149 3.86851C5.02149 3.86851 2.65149 4.13101 1.07049 4.30651C0.927994 4.32376 0.801994 4.41901 0.754744 4.56376C0.707494 4.70851 0.754744 4.85926 0.859744 4.95451C2.03424 6.02626 3.79899 7.63126 3.79899 7.63126C3.79749 7.63126 3.31449 9.96601 2.99349 11.5238C2.96649 11.6648 3.01749 11.814 3.14049 11.9033C3.26274 11.9925 3.42024 11.994 3.54399 11.9243C4.92699 11.1383 6.99849 9.95626 6.99849 9.95626C6.99849 9.95626 9.07074 11.1383 10.4515 11.925C10.5775 11.994 10.735 11.9925 10.8572 11.9033C10.9802 11.814 11.0312 11.6648 11.0035 11.5245C10.6825 9.96601 10.2002 7.63126 10.2002 7.63126C10.2002 7.63126 11.965 6.02626 13.1395 4.95676C13.2445 4.85851 13.291 4.70776 13.2445 4.56376C13.198 4.41976 13.072 4.32451 12.9295 4.30801C11.3485 4.13101 8.97774 3.86851 8.97774 3.86851C8.97774 3.86851 7.99524 1.69501 7.34049 0.246013C7.27899 0.116263 7.14999 0.0255127 6.99849 0.0255127C6.84699 0.0255127 6.71724 0.117013 6.65874 0.246013C6.00324 1.69501 5.02149 3.86851 5.02149 3.86851Z" fill="#F3B720"/>
</svg>
