<svg width="50" height="50" viewBox="0 0 50 50" fill="none" xmlns="http://www.w3.org/2000/svg">
<path d="M46.875 12.5C46.875 13.2996 46.5698 14.0996 45.9595 14.709L20.9595 39.709C20.3516 40.3223 19.5508 40.625 18.75 40.625C17.9492 40.625 17.1504 40.3198 16.541 39.7095L4.04102 27.2095C3.43066 26.6016 3.125 25.8008 3.125 25C3.125 23.2148 4.58496 21.875 6.25 21.875C7.04961 21.875 7.84961 22.1802 8.45898 22.7905L18.75 33.0859L41.543 10.293C42.1484 9.68066 42.9492 9.375 43.75 9.375C45.4199 9.375 46.875 10.7129 46.875 12.5Z" fill="white"/>
</svg>
