<svg width="21" height="21" viewBox="0 0 21 21" fill="none" xmlns="http://www.w3.org/2000/svg">
<g clip-path="url(#clip0_97_16)">
<path d="M1.3125 20.3438C1.21989 20.3443 1.12822 20.3253 1.0435 20.2879C0.958779 20.2505 0.882933 20.1956 0.820948 20.1268C0.758963 20.058 0.712242 19.9768 0.683856 19.8887C0.65547 19.8005 0.646062 19.7074 0.65625 19.6153L1.24688 14.2538C1.26343 14.1046 1.3306 13.9656 1.43719 13.86L13.9584 1.34532C14.1756 1.12686 14.4337 0.953488 14.7181 0.835184C15.0025 0.71688 15.3075 0.655975 15.6155 0.655975C15.9235 0.655975 16.2284 0.71688 16.5128 0.835184C16.7972 0.953488 17.0554 1.12686 17.2725 1.34532L19.6875 3.7275C19.906 3.94463 20.0793 4.20281 20.1976 4.48719C20.3159 4.77156 20.3768 5.07653 20.3768 5.38453C20.3768 5.69254 20.3159 5.99751 20.1976 6.28188C20.0793 6.56626 19.906 6.82444 19.6875 7.04157L7.14 19.5563C7.03437 19.6628 6.8954 19.73 6.74625 19.7466L1.38469 20.3438H1.3125ZM2.53313 14.6213L2.05406 18.9459L6.37875 18.4669L18.7294 6.10969C18.9209 5.91564 19.0284 5.65393 19.0284 5.38125C19.0284 5.10857 18.9209 4.84687 18.7294 4.65282L16.3472 2.27063C16.1531 2.07906 15.8914 1.97165 15.6188 1.97165C15.3461 1.97165 15.0844 2.07906 14.8903 2.27063L2.53313 14.6213Z" fill="#888888"/>
<path d="M17.4038 9.01688C17.2316 9.01616 17.0666 8.94781 16.9444 8.82657L12.1734 4.05563C12.0507 3.92945 11.9832 3.75969 11.9856 3.5837C11.9881 3.40771 12.0604 3.2399 12.1866 3.1172C12.3127 2.99449 12.4825 2.92694 12.6585 2.9294C12.8345 2.93186 13.0023 3.00414 13.125 3.13032L17.8697 7.87501C17.9919 7.99797 18.0605 8.16429 18.0605 8.33766C18.0605 8.51104 17.9919 8.67736 17.8697 8.80032C17.8106 8.8659 17.7389 8.91889 17.6588 8.9561C17.5787 8.99331 17.492 9.01398 17.4038 9.01688Z" fill="#888888"/>
<path d="M12.1688 7.90161L6.2105 13.8599L7.13857 14.7879L13.0968 8.82968L12.1688 7.90161Z" fill="#888888"/>
</g>
<defs>
<clipPath id="clip0_97_16">
<rect width="21" height="21" fill="white"/>
</clipPath>
</defs>
</svg>
