<svg width="16" height="16" viewBox="0 0 16 16" fill="none" xmlns="http://www.w3.org/2000/svg">
<path d="M5.52938 6.42979V7.52941H2.00003V6.42979H5.52938ZM6.42979 5.52938V2.00003C6.42979 1.50297 6.02644 1.09963 5.52938 1.09963H2.00003C1.50297 1.09963 1.09963 1.50297 1.09963 2.00003V5.52938C1.09963 6.02645 1.50297 6.42979 2.00003 6.42979V7.52941L1.79593 7.51965C0.787193 7.41742 0 6.56508 0 5.52938V2.00003C0 0.895444 0.895444 4.02665e-09 2.00003 0H5.52938C6.63397 0 7.52941 0.895444 7.52941 2.00003V5.52938C7.52941 6.63397 6.63397 7.52941 5.52938 7.52941V6.42979C6.02645 6.42979 6.42979 6.02644 6.42979 5.52938Z" fill="white"/>
<path d="M14 6.42979V7.52941H10.4706V6.42979H14ZM14.9004 5.52938V2.00003C14.9004 1.50297 14.497 1.09963 14 1.09963H10.4706C9.97355 1.09963 9.57021 1.50297 9.57021 2.00003V5.52938C9.57021 6.02645 9.97355 6.42979 10.4706 6.42979V7.52941L10.2665 7.51965C9.25777 7.41742 8.47058 6.56508 8.47058 5.52938V2.00003C8.47058 0.895444 9.36603 4.02665e-09 10.4706 0H14C15.1045 0 16 0.895444 16 2.00003V5.52938C16 6.63397 15.1045 7.52941 14 7.52941V6.42979C14.497 6.42979 14.9004 6.02644 14.9004 5.52938Z" fill="white"/>
<path d="M5.52938 14.9005V16.0001H2.00003V14.9005H5.52938ZM6.42979 14.0001V10.4707C6.42979 9.97367 6.02644 9.57033 5.52938 9.57033H2.00003C1.50297 9.57033 1.09963 9.97367 1.09963 10.4707V14.0001C1.09963 14.4971 1.50297 14.9005 2.00003 14.9005V16.0001L1.79593 15.9903C0.787193 15.8881 0 15.0358 0 14.0001V10.4707C0 9.36615 0.895444 8.4707 2.00003 8.4707H5.52938C6.63397 8.4707 7.52941 9.36615 7.52941 10.4707V14.0001C7.52941 15.1047 6.63397 16.0001 5.52938 16.0001V14.9005C6.02645 14.9005 6.42979 14.4971 6.42979 14.0001Z" fill="white"/>
<path d="M13.9994 14.9005V16.0001H10.47V14.9005H13.9994ZM14.8998 14.0001V10.4707C14.8998 9.97367 14.4964 9.57033 13.9994 9.57033H10.47C9.97297 9.57033 9.56963 9.97367 9.56963 10.4707V14.0001C9.56963 14.4971 9.97297 14.9005 10.47 14.9005V16.0001L10.2659 15.9903C9.25719 15.8881 8.47 15.0358 8.47 14.0001V10.4707C8.47 9.36615 9.36545 8.4707 10.47 8.4707H13.9994C15.104 8.4707 15.9994 9.36615 15.9994 10.4707V14.0001C15.9994 15.1047 15.104 16.0001 13.9994 16.0001V14.9005C14.4964 14.9005 14.8998 14.4971 14.8998 14.0001Z" fill="white"/>
</svg>
