<svg width="18" height="18" viewBox="0 0 18 18" fill="none" xmlns="http://www.w3.org/2000/svg">
<path d="M6.92793 14.3823C6.06182 14.3823 5.35318 15.091 5.35318 15.9571C5.35318 16.8232 6.06182 17.5318 6.92793 17.5318C7.79405 17.5318 8.50269 16.8232 8.50269 15.9571C8.50269 15.091 7.79405 14.3823 6.92793 14.3823ZM6.92793 16.7445C6.49488 16.7445 6.14056 16.3901 6.14056 15.9571C6.14056 15.524 6.49488 15.1697 6.92793 15.1697C7.36099 15.1697 7.71531 15.524 7.71531 15.9571C7.71531 16.3901 7.36099 16.7445 6.92793 16.7445Z" fill="black"/>
<path d="M8.29337 15.9574C8.29337 15.207 7.67848 14.5922 6.92811 14.5921C6.17767 14.5921 5.56285 15.207 5.56285 15.9574C5.56293 16.7078 6.17772 17.3227 6.92811 17.3227C7.67843 17.3226 8.29329 16.7077 8.29337 15.9574ZM7.50592 15.9574C7.50592 15.6401 7.24543 15.3797 6.92811 15.3796C6.61072 15.3796 6.3503 15.64 6.3503 15.9574C6.35039 16.2747 6.61078 16.5352 6.92811 16.5352C7.24537 16.5351 7.50583 16.2747 7.50592 15.9574ZM7.92521 15.9574C7.92513 16.506 7.47672 16.9544 6.92811 16.9545C6.37943 16.9545 5.93109 16.5061 5.93101 15.9574C5.93101 15.4087 6.37938 14.9603 6.92811 14.9603C7.47677 14.9604 7.92521 15.4087 7.92521 15.9574ZM8.71164 15.9574C8.71156 16.9391 7.90977 17.7409 6.92811 17.7409C5.94637 17.7409 5.14364 16.9391 5.14355 15.9574C5.14355 14.9756 5.94632 14.1729 6.92811 14.1729C7.90983 14.1729 8.71164 14.9757 8.71164 15.9574Z" fill="black"/>
<path d="M14.0144 14.3823C13.1482 14.3823 12.4396 15.091 12.4396 15.9571C12.4396 16.8232 13.1482 17.5318 14.0144 17.5318C14.8805 17.5318 15.5891 16.8232 15.5891 15.9571C15.5891 15.091 14.8805 14.3823 14.0144 14.3823ZM14.0144 16.7445C13.5813 16.7445 13.227 16.3901 13.227 15.9571C13.227 15.524 13.5813 15.1697 14.0144 15.1697C14.4474 15.1697 14.8017 15.524 14.8017 15.9571C14.8017 16.3901 14.4474 16.7445 14.0144 16.7445Z" fill="black"/>
<path d="M15.3798 15.9574C15.3798 15.207 14.7649 14.5922 14.0145 14.5921C13.2641 14.5921 12.6492 15.207 12.6492 15.9574C12.6493 16.7078 13.2641 17.3227 14.0145 17.3227C14.7648 17.3226 15.3797 16.7077 15.3798 15.9574ZM14.5923 15.9574C14.5923 15.6401 14.3318 15.3797 14.0145 15.3796C13.6971 15.3796 13.4367 15.64 13.4367 15.9574C13.4368 16.2747 13.6972 16.5352 14.0145 16.5352C14.3318 16.5351 14.5922 16.2747 14.5923 15.9574ZM15.0116 15.9574C15.0115 16.506 14.5631 16.9544 14.0145 16.9545C13.4658 16.9545 13.0175 16.5061 13.0174 15.9574C13.0174 15.4087 13.4658 14.9603 14.0145 14.9603C14.5632 14.9604 15.0116 15.4087 15.0116 15.9574ZM15.798 15.9574C15.798 16.9391 14.9962 17.7409 14.0145 17.7409C13.0328 17.7409 12.23 16.9391 12.2299 15.9574C12.2299 14.9756 13.0327 14.1729 14.0145 14.1729C14.9962 14.1729 15.798 14.9757 15.798 15.9574Z" fill="black"/>
<path d="M16.6127 3.12277C16.3371 2.76845 15.8647 2.5716 15.3923 2.5716H4.4871L4.32962 1.54801C4.21151 0.800005 3.54224 0.209473 2.75487 0.209473H0.23526V0.99685H2.75487C3.14855 0.99685 3.50287 1.27243 3.54224 1.66612L5.19574 12.3351C5.35321 13.0831 6.02248 13.6343 6.77049 13.6343H15.1954V12.8469H6.77049C6.3768 12.8469 6.06185 12.5713 5.98311 12.1776L5.82564 11.2328H14.5655C15.3135 11.2328 15.9828 10.6816 16.1403 9.85484L16.967 4.3432C17.0458 3.91014 16.9277 3.47709 16.6127 3.12277ZM16.1796 4.26446L15.3529 9.7761C15.2742 10.2092 14.9592 10.4847 14.5655 10.4847H5.70753L4.6052 3.39835H15.3923C15.6285 3.39835 15.8647 3.51646 16.0222 3.67393C16.1796 3.79204 16.219 4.02825 16.1796 4.26446Z" fill="black"/>
<path d="M2.7551 0C3.59094 0.000115057 4.30727 0.58645 4.50386 1.35912L4.53659 1.51559L4.66647 2.36236H15.3922C15.9121 2.36236 16.4454 2.57671 16.7687 2.98414C17.1233 3.38333 17.2604 3.87774 17.1727 4.37293L17.1737 4.37395L16.3474 9.88613L16.3464 9.89431C16.1714 10.8129 15.421 11.4424 14.5659 11.4426H6.07264L6.1882 12.137L6.21888 12.2454C6.30843 12.4865 6.51995 12.6369 6.7701 12.6371H15.4045V13.8438H6.7701C5.92038 13.8437 5.16792 13.2204 4.99065 12.3784L4.98861 12.3671L3.33496 1.69865L3.33393 1.6874C3.30689 1.41702 3.05814 1.20686 2.7551 1.20675H0.0256042V0H2.7551ZM0.444898 0.787454H2.7551C3.23568 0.787569 3.69087 1.12377 3.74811 1.63422L5.40074 12.2925L5.43142 12.4121C5.6114 13.0037 6.16432 13.4244 6.7701 13.4246H14.9862V13.0564H6.7701C6.26896 13.0562 5.87485 12.7024 5.77811 12.2188L5.77606 12.2127L5.61857 11.2677L5.57869 11.0233H14.5659C15.2065 11.0231 15.7943 10.5501 15.9342 9.81556L16.7595 4.31259L16.7605 4.30543C16.8273 3.93735 16.7289 3.56954 16.4558 3.26231L16.4466 3.25208L16.4476 3.25106C16.2188 2.95701 15.8125 2.78166 15.3922 2.78166H4.30751L4.2799 2.60371L4.12241 1.58104L4.09787 1.46139C3.94725 0.871498 3.3956 0.41941 2.7551 0.419294H0.444898V0.787454ZM15.3922 3.18868C15.6938 3.18868 15.9812 3.33695 16.1705 3.52616C16.4015 3.71825 16.4272 4.04256 16.3862 4.29418L16.3873 4.2952L15.5599 9.80738L15.5589 9.81352C15.4643 10.3338 15.0725 10.6939 14.5659 10.694H5.52858L4.36069 3.18868H15.3922ZM5.88651 10.2758H14.5659C14.8463 10.2756 15.0839 10.0843 15.1468 9.73886L15.9721 4.23384L15.9731 4.22975C16.0083 4.01809 15.9574 3.88812 15.8964 3.84216L15.8841 3.83296L15.8739 3.82171C15.7481 3.69614 15.5629 3.60797 15.3922 3.60797H4.84953L5.88651 10.2758Z" fill="black"/>
</svg>
