<svg width="16" height="16" viewBox="0 0 16 16" fill="none" xmlns="http://www.w3.org/2000/svg">
<path d="M10.2236 0C11.3181 0 12.206 0.887002 12.2061 1.98145V9.69629H15.5996V12.6484C15.5995 14.2784 14.2784 15.5995 12.6484 15.5996H2.95117C1.32121 15.5995 7.97596e-05 14.2784 0 12.6484V1.98145C9.5992e-05 0.887059 0.887059 9.59921e-05 1.98145 0H10.2236ZM1.98145 1.05469C1.46947 1.05478 1.05478 1.46947 1.05469 1.98145V12.6484C1.05477 13.696 1.90362 14.5448 2.95117 14.5449H11.1514V1.98145C11.1513 1.46941 10.7357 1.05469 10.2236 1.05469H1.98145ZM12.2061 10.751V14.5449H12.6484C13.696 14.5448 14.5448 13.696 14.5449 12.6484V10.751H12.2061ZM5.86035 10.666C6.15141 10.666 6.38749 10.9023 6.3877 11.1934C6.3877 11.4846 6.15154 11.7207 5.86035 11.7207H3.43652C3.14532 11.7207 2.90918 11.4846 2.90918 11.1934C2.90939 10.9023 3.14545 10.666 3.43652 10.666H5.86035ZM8.76953 7.27246C9.06071 7.27248 9.29687 7.50862 9.29688 7.7998C9.29688 8.09099 9.06071 8.32713 8.76953 8.32715H3.43652C3.14532 8.32715 2.90918 8.091 2.90918 7.7998C2.90918 7.50861 3.14532 7.27246 3.43652 7.27246H8.76953ZM8.76953 3.87891C9.06071 3.87892 9.29688 4.11506 9.29688 4.40625C9.29667 4.69727 9.06058 4.93358 8.76953 4.93359H3.43652C3.14545 4.93359 2.90939 4.69728 2.90918 4.40625C2.90918 4.11505 3.14532 3.87891 3.43652 3.87891H8.76953Z" fill="black"/>
</svg>
