<svg width="18" height="18" viewBox="0 0 18 18" fill="none" xmlns="http://www.w3.org/2000/svg">
<path d="M7.51524 14.3823C6.64913 14.3823 5.94049 15.091 5.94049 15.9571C5.94049 16.8232 6.64913 17.5318 7.51524 17.5318C8.38136 17.5318 9.09 16.8232 9.09 15.9571C9.09 15.091 8.38136 14.3823 7.51524 14.3823ZM7.51524 16.7445C7.08219 16.7445 6.72787 16.3901 6.72787 15.9571C6.72787 15.524 7.08219 15.1697 7.51524 15.1697C7.9483 15.1697 8.30262 15.524 8.30262 15.9571C8.30262 16.3901 7.9483 16.7445 7.51524 16.7445Z" fill="white"/>
<path d="M8.88065 15.9574C8.88065 15.207 8.26576 14.5922 7.51539 14.5921C6.76495 14.5921 6.15013 15.207 6.15013 15.9574C6.15021 16.7078 6.765 17.3227 7.51539 17.3227C8.26571 17.3226 8.88057 16.7077 8.88065 15.9574ZM8.0932 15.9574C8.0932 15.6401 7.83271 15.3797 7.51539 15.3796C7.198 15.3796 6.93758 15.64 6.93758 15.9574C6.93767 16.2747 7.19806 16.5352 7.51539 16.5352C7.83265 16.5351 8.09311 16.2747 8.0932 15.9574ZM8.51249 15.9574C8.51241 16.506 8.064 16.9544 7.51539 16.9545C6.96671 16.9545 6.51837 16.5061 6.51829 15.9574C6.51829 15.4087 6.96666 14.9603 7.51539 14.9603C8.06405 14.9604 8.51249 15.4087 8.51249 15.9574ZM9.29892 15.9574C9.29884 16.9391 8.49705 17.7409 7.51539 17.7409C6.53365 17.7409 5.73092 16.9391 5.73083 15.9574C5.73083 14.9756 6.5336 14.1729 7.51539 14.1729C8.49711 14.1729 9.29892 14.9757 9.29892 15.9574Z" fill="white"/>
<path d="M14.6016 14.3823C13.7355 14.3823 13.0269 15.091 13.0269 15.9571C13.0269 16.8232 13.7355 17.5318 14.6016 17.5318C15.4678 17.5318 16.1764 16.8232 16.1764 15.9571C16.1764 15.091 15.4678 14.3823 14.6016 14.3823ZM14.6016 16.7445C14.1686 16.7445 13.8143 16.3901 13.8143 15.9571C13.8143 15.524 14.1686 15.1697 14.6016 15.1697C15.0347 15.1697 15.389 15.524 15.389 15.9571C15.389 16.3901 15.0347 16.7445 14.6016 16.7445Z" fill="white"/>
<path d="M15.9671 15.9574C15.9671 15.207 15.3522 14.5922 14.6018 14.5921C13.8514 14.5921 13.2366 15.207 13.2366 15.9574C13.2366 16.7078 13.8514 17.3227 14.6018 17.3227C15.3521 17.3226 15.967 16.7077 15.9671 15.9574ZM15.1796 15.9574C15.1796 15.6401 14.9191 15.3797 14.6018 15.3796C14.2844 15.3796 14.024 15.64 14.024 15.9574C14.0241 16.2747 14.2845 16.5352 14.6018 16.5352C14.9191 16.5351 15.1795 16.2747 15.1796 15.9574ZM15.5989 15.9574C15.5988 16.506 15.1504 16.9544 14.6018 16.9545C14.0531 16.9545 13.6048 16.5061 13.6047 15.9574C13.6047 15.4087 14.0531 14.9603 14.6018 14.9603C15.1505 14.9604 15.5989 15.4087 15.5989 15.9574ZM16.3853 15.9574C16.3853 16.9391 15.5835 17.7409 14.6018 17.7409C13.6201 17.7409 12.8173 16.9391 12.8173 15.9574C12.8173 14.9756 13.62 14.1729 14.6018 14.1729C15.5835 14.1729 16.3853 14.9757 16.3853 15.9574Z" fill="white"/>
<path d="M17.2 3.12277C16.9244 2.76845 16.452 2.5716 15.9795 2.5716H5.07438L4.9169 1.54801C4.79879 0.800005 4.12952 0.209473 3.34215 0.209473H0.82254V0.99685H3.34215C3.73584 0.99685 4.09015 1.27243 4.12952 1.66612L5.78302 12.3351C5.94049 13.0831 6.60976 13.6343 7.35777 13.6343H15.7827V12.8469H7.35777C6.96408 12.8469 6.64913 12.5713 6.57039 12.1776L6.41292 11.2328H15.1528C15.9008 11.2328 16.5701 10.6816 16.7276 9.85484L17.5543 4.3432C17.633 3.91014 17.5149 3.47709 17.2 3.12277ZM16.7669 4.26446L15.9402 9.7761C15.8614 10.2092 15.5465 10.4847 15.1528 10.4847H6.29481L5.19248 3.39835H15.9795C16.2158 3.39835 16.452 3.51646 16.6094 3.67393C16.7669 3.79204 16.8063 4.02825 16.7669 4.26446Z" fill="white"/>
<path d="M3.34238 0C4.17822 0.000115057 4.89455 0.58645 5.09115 1.35912L5.12387 1.51559L5.25375 2.36236H15.9795C16.4994 2.36236 17.0327 2.57671 17.356 2.98414C17.7106 3.38333 17.8477 3.87774 17.7599 4.37293L17.761 4.37395L16.9347 9.88613L16.9336 9.89431C16.7586 10.8129 16.0083 11.4424 15.1532 11.4426H6.65992L6.77548 12.137L6.80616 12.2454C6.89571 12.4865 7.10723 12.6369 7.35738 12.6371H15.9918V13.8438H7.35738C6.50766 13.8437 5.7552 13.2204 5.57793 12.3784L5.57589 12.3671L3.92224 1.69865L3.92121 1.6874C3.89418 1.41702 3.64542 1.20686 3.34238 1.20675H0.612885V0H3.34238ZM1.03218 0.787454H3.34238C3.82296 0.787569 4.27815 1.12377 4.33539 1.63422L5.98802 12.2925L6.0187 12.4121C6.19868 13.0037 6.7516 13.4244 7.35738 13.4246H15.5735V13.0564H7.35738C6.85624 13.0562 6.46213 12.7024 6.36539 12.2188L6.36334 12.2127L6.20585 11.2677L6.16597 11.0233H15.1532C15.7937 11.0231 16.3816 10.5501 16.5215 9.81556L17.3468 4.31259L17.3478 4.30543C17.4146 3.93735 17.3162 3.56954 17.0431 3.26231L17.0339 3.25208L17.0349 3.25106C16.8061 2.95701 16.3997 2.78166 15.9795 2.78166H4.89479L4.86718 2.60371L4.70969 1.58104L4.68515 1.46139C4.53453 0.871498 3.98288 0.41941 3.34238 0.419294H1.03218V0.787454ZM15.9795 3.18868C16.2811 3.18868 16.5685 3.33695 16.7577 3.52616C16.9888 3.71825 17.0145 4.04256 16.9735 4.29418L16.9745 4.2952L16.1472 9.80738L16.1462 9.81352C16.0516 10.3338 15.6598 10.6939 15.1532 10.694H6.11586L4.94797 3.18868H15.9795ZM6.47379 10.2758H15.1532C15.4336 10.2756 15.6712 10.0843 15.734 9.73886L16.5593 4.23384L16.5604 4.22975C16.5955 4.01809 16.5447 3.88812 16.4837 3.84216L16.4714 3.83296L16.4612 3.82171C16.3354 3.69614 16.1502 3.60797 15.9795 3.60797H5.43681L6.47379 10.2758Z" fill="white"/>
</svg>
