<svg width="16" height="16" viewBox="0 0 16 16" fill="none" xmlns="http://www.w3.org/2000/svg">
<path d="M4.56808 3H3.94255C3.69261 3 3.45291 3.09929 3.27617 3.27603C3.09943 3.45276 3.00014 3.69247 3.00014 3.94241V4.54324C2.99795 4.66819 3.02074 4.79231 3.06717 4.90833C3.1136 5.02435 3.18273 5.12992 3.27052 5.21886C3.3583 5.30779 3.46297 5.3783 3.57837 5.42623C3.69378 5.47417 3.81759 5.49857 3.94255 5.498H4.55574C4.68158 5.49966 4.80647 5.4761 4.92306 5.4287C5.03964 5.38131 5.14556 5.31105 5.23455 5.22206C5.32354 5.13307 5.3938 5.02715 5.44119 4.91057C5.48859 4.79398 5.51215 4.66908 5.51049 4.54324V3.92595C5.50513 3.67921 5.4036 3.44432 5.22756 3.27135C5.05152 3.09838 4.81488 3.00101 4.56808 3ZM4.68743 4.54324C4.68744 4.55873 4.68433 4.57406 4.67828 4.58831C4.67223 4.60257 4.66337 4.61546 4.65223 4.62621C4.64109 4.63697 4.6279 4.64537 4.61344 4.65091C4.59898 4.65646 4.58356 4.65903 4.56808 4.65847H3.94255C3.92708 4.65903 3.91165 4.65646 3.89719 4.65091C3.88273 4.64537 3.86954 4.63697 3.8584 4.62621C3.84726 4.61546 3.8384 4.60257 3.83236 4.58831C3.82631 4.57406 3.8232 4.55873 3.82321 4.54324V3.92595C3.82321 3.89429 3.83578 3.86394 3.85816 3.84156C3.88054 3.81918 3.9109 3.8066 3.94255 3.8066H4.55574C4.58739 3.8066 4.61774 3.81918 4.64012 3.84156C4.66251 3.86394 4.67508 3.89429 4.67508 3.92595L4.68743 4.54324Z" fill="white"/>
<path d="M12.884 4.11328H6.70188C6.6356 4.12634 6.57403 4.19051 6.52921 4.29325C6.4844 4.396 6.45956 4.52992 6.45956 4.66885C6.45956 4.80777 6.4844 4.9417 6.52921 5.04444C6.57403 5.14718 6.6356 5.21136 6.70188 5.22441H12.884C12.9503 5.21136 13.0119 5.14718 13.0567 5.04444C13.1015 4.9417 13.1263 4.80777 13.1263 4.66885C13.1263 4.52992 13.1015 4.396 13.0567 4.29325C13.0119 4.19051 12.9503 4.12634 12.884 4.11328Z" fill="white"/>
<path d="M4.56815 6.73292H3.94262C3.81906 6.73238 3.6966 6.75625 3.58229 6.80316C3.46797 6.85007 3.36405 6.9191 3.27649 7.00628C3.18892 7.09346 3.11944 7.19708 3.07203 7.31119C3.02462 7.4253 3.00021 7.54765 3.00021 7.67121V8.28851C3.00021 8.53845 3.0995 8.77816 3.27624 8.95489C3.45297 9.13163 3.69268 9.23092 3.94262 9.23092H4.55581C4.80541 9.22984 5.04449 9.1302 5.22099 8.9537C5.39749 8.77719 5.49713 8.53812 5.49821 8.28851V7.67121C5.49715 7.42411 5.39908 7.1873 5.22513 7.0118C5.05117 6.83631 4.81524 6.73615 4.56815 6.73292ZM4.6875 8.28851C4.6875 8.32016 4.67492 8.35052 4.65254 8.3729C4.63016 8.39528 4.5998 8.40785 4.56815 8.40785H3.94262C3.91097 8.40785 3.88061 8.39528 3.85823 8.3729C3.83585 8.35052 3.82328 8.32016 3.82328 8.28851V7.67121C3.82434 7.64028 3.83739 7.61097 3.85965 7.58947C3.88192 7.56797 3.91167 7.55596 3.94262 7.55598H4.55581C4.58676 7.55596 4.6165 7.56797 4.63877 7.58947C4.66104 7.61097 4.67408 7.64028 4.67515 7.67121L4.6875 8.28851Z" fill="white"/>
<path d="M12.884 7.44678H6.70188C6.6356 7.45983 6.57403 7.52401 6.52921 7.62675C6.4844 7.72949 6.45956 7.86342 6.45956 8.00234C6.45956 8.14126 6.4844 8.27519 6.52921 8.37794C6.57403 8.48068 6.6356 8.54485 6.70188 8.55791H12.884C12.9503 8.54485 13.0119 8.48068 13.0567 8.37794C13.1015 8.27519 13.1263 8.14126 13.1263 8.00234C13.1263 7.86342 13.1015 7.72949 13.0567 7.62675C13.0119 7.52401 12.9503 7.45983 12.884 7.44678Z" fill="white"/>
<path d="M4.56815 10.5059H3.94262C3.81906 10.5053 3.6966 10.5292 3.58229 10.5761C3.46797 10.623 3.36405 10.692 3.27649 10.7792C3.18892 10.8664 3.11944 10.97 3.07203 11.0841C3.02462 11.1982 3.00021 11.3206 3.00021 11.4442V12.0615C3.00021 12.185 3.02462 12.3074 3.07203 12.4215C3.11944 12.5356 3.18892 12.6392 3.27649 12.7264C3.36405 12.8136 3.46797 12.8826 3.58229 12.9295C3.6966 12.9764 3.81906 13.0003 3.94262 12.9998H4.55581C4.80504 12.9998 5.04412 12.901 5.22074 12.7252C5.39736 12.5493 5.49712 12.3107 5.49821 12.0615V11.4442C5.49715 11.1971 5.39908 10.9603 5.22513 10.7848C5.05117 10.6093 4.81524 10.5091 4.56815 10.5059ZM4.6875 12.0615C4.68751 12.0769 4.68439 12.0923 4.67835 12.1065C4.6723 12.1208 4.66344 12.1337 4.6523 12.1444C4.64116 12.1552 4.62797 12.1636 4.61351 12.1691C4.59905 12.1747 4.58363 12.1772 4.56815 12.1767H3.94262C3.92715 12.1772 3.91172 12.1747 3.89726 12.1691C3.8828 12.1636 3.86961 12.1552 3.85847 12.1444C3.84733 12.1337 3.83847 12.1208 3.83243 12.1065C3.82638 12.0923 3.82327 12.0769 3.82328 12.0615V11.4442C3.82327 11.4287 3.82638 11.4133 3.83243 11.3991C3.83847 11.3848 3.84733 11.3719 3.85847 11.3612C3.86961 11.3504 3.8828 11.342 3.89726 11.3365C3.91172 11.331 3.92715 11.3284 3.94262 11.3289H4.55581C4.57128 11.3284 4.58671 11.331 4.60117 11.3365C4.61562 11.342 4.62882 11.3504 4.63996 11.3612C4.6511 11.3719 4.65995 11.3848 4.666 11.3991C4.67205 11.4133 4.67516 11.4287 4.67515 11.4442L4.6875 12.0615Z" fill="white"/>
<path d="M12.884 10.7803H6.70188C6.6356 10.7933 6.57403 10.8575 6.52921 10.9602C6.4844 11.063 6.45956 11.1969 6.45956 11.3358C6.45956 11.4748 6.4844 11.6087 6.52921 11.7114C6.57403 11.8142 6.6356 11.8783 6.70188 11.8914H12.884C12.9503 11.8783 13.0119 11.8142 13.0567 11.7114C13.1015 11.6087 13.1263 11.4748 13.1263 11.3358C13.1263 11.1969 13.1015 11.063 13.0567 10.9602C13.0119 10.8575 12.9503 10.7933 12.884 10.7803Z" fill="white"/>
<path d="M14 15V16H2V15H14ZM15 14V2C15 1.44772 14.5523 1 14 1H2C1.44772 1 1 1.44772 1 2V14C1 14.5523 1.44772 15 2 15V16C0.895431 16 0 15.1046 0 14V2C0 0.895431 0.895431 0 2 0H14C15.1046 0 16 0.895431 16 2V14C16 15.1046 15.1046 16 14 16V15C14.5523 15 15 14.5523 15 14Z" fill="white"/>
</svg>
