<svg width="16" height="16" viewBox="0 0 16 16" fill="none" xmlns="http://www.w3.org/2000/svg">
<path d="M8.186 1.03625C8.06662 0.988406 7.93338 0.988406 7.814 1.03625L1.846 3.42325L4.25 4.38425L10.404 1.92325L8.186 1.03625ZM11.75 2.46225L5.596 4.92325L8 5.88425L14.154 3.42325L11.75 2.46225ZM15 4.16225L8.5 6.76225V14.6842L15 12.0843V4.16225ZM7.5 14.6853V6.76125L1 4.16225V12.0852L7.5 14.6853ZM7.443 0.107251C7.80057 -0.0357502 8.19943 -0.0357502 8.557 0.107251L15.686 2.95925C15.7787 2.9964 15.8581 3.06044 15.9141 3.14314C15.9701 3.22584 16 3.3234 16 3.42325V12.0852C15.9999 12.2851 15.9399 12.4803 15.8278 12.6457C15.7157 12.8111 15.5566 12.9391 15.371 13.0133L8.186 15.8872C8.06662 15.9351 7.93338 15.9351 7.814 15.8872L0.63 13.0133C0.444251 12.9393 0.284942 12.8113 0.172642 12.6459C0.0603417 12.4805 0.000206329 12.2852 0 12.0852L0 3.42325C2.32399e-05 3.3234 0.0299437 3.22584 0.085907 3.14314C0.14187 3.06044 0.221313 2.9964 0.314 2.95925L7.443 0.107251Z" fill="white"/>
</svg>
