<svg width="16" height="16" viewBox="0 0 16 16" fill="none" xmlns="http://www.w3.org/2000/svg">
<path d="M14 14.9004V16H2V14.9004H14ZM14.9004 14V2C14.9004 1.50294 14.4971 1.09961 14 1.09961H2C1.50294 1.09961 1.09961 1.50294 1.09961 2V14C1.09961 14.4971 1.50294 14.9004 2 14.9004V16C0.895431 16 0 15.1046 0 14V2C0 0.895431 0.895431 0 2 0H14C15.1046 0 16 0.895431 16 2V14C16 15.1046 15.1046 16 14 16V14.9004C14.4971 14.9004 14.9004 14.4971 14.9004 14Z" fill="white"/>
<path d="M11.4502 3.90039C11.7539 3.9005 12 4.1465 12 4.4502C11.9999 4.7538 11.7538 4.99989 11.4502 5H4.5498C4.2462 4.99989 4.00011 4.7538 4 4.4502C4 4.1465 4.24614 3.9005 4.5498 3.90039H11.4502Z" fill="white"/>
<path d="M11.4502 6.90039C11.7539 6.9005 12 7.1465 12 7.4502C11.9999 7.7538 11.7538 7.99989 11.4502 8H4.5498C4.2462 7.99989 4.00011 7.7538 4 7.4502C4 7.1465 4.24614 6.9005 4.5498 6.90039H11.4502Z" fill="white"/>
<path d="M7.4502 9.90039C7.75386 9.9005 8 10.1465 8 10.4502C7.99989 10.7538 7.7538 10.9999 7.4502 11H4.5498C4.2462 10.9999 4.00011 10.7538 4 10.4502C4 10.1465 4.24614 9.9005 4.5498 9.90039H7.4502Z" fill="white"/>
</svg>
