<svg width="18" height="16" viewBox="0 0 18 16" fill="none" xmlns="http://www.w3.org/2000/svg">
<path d="M8.68501 14.3127H3.37501V7.09774H12.265V7.99274C12.265 8.11208 12.3124 8.22654 12.3968 8.31094C12.4812 8.39533 12.5957 8.44274 12.715 8.44274C12.8344 8.44274 12.9488 8.39533 13.0332 8.31094C13.1176 8.22654 13.165 8.11208 13.165 7.99274V6.64774C13.165 6.52839 13.1176 6.41393 13.0332 6.32954C12.9488 6.24515 12.8344 6.19774 12.715 6.19774H2.92501C2.80567 6.19774 2.69121 6.24515 2.60682 6.32954C2.52242 6.41393 2.47501 6.52839 2.47501 6.64774V14.3327H1.60501C1.51205 14.3348 1.41964 14.3177 1.3336 14.2825C1.24756 14.2472 1.16974 14.1945 1.10501 14.1277C1.03045 14.054 0.97162 13.9659 0.932086 13.8688C0.892552 13.7717 0.873137 13.6676 0.875014 13.5627V5.95774C0.872997 5.8332 0.901028 5.71001 0.956731 5.5986C1.01244 5.48719 1.09417 5.39085 1.19501 5.31774L7.29501 1.02774C7.40624 0.949412 7.53897 0.907371 7.67501 0.907371C7.81106 0.907371 7.94378 0.949412 8.05501 1.02774L14.105 5.17774C14.2089 5.2521 14.2931 5.35054 14.3506 5.46462C14.4081 5.5787 14.4371 5.70502 14.435 5.83274V7.99774C14.4343 8.05659 14.4454 8.115 14.4674 8.16957C14.4895 8.22414 14.5222 8.27378 14.5636 8.31564C14.605 8.35749 14.6542 8.39072 14.7085 8.41339C14.7629 8.43607 14.8211 8.44774 14.88 8.44774C14.9396 8.4505 14.9992 8.44096 15.055 8.4197C15.1108 8.39845 15.1616 8.36594 15.2043 8.32419C15.247 8.28245 15.2806 8.23237 15.3031 8.17706C15.3256 8.12176 15.3364 8.06242 15.335 8.00274V5.83774C15.3361 5.56654 15.2711 5.29917 15.1456 5.05873C15.0202 4.81828 14.8381 4.61201 14.615 4.45774L8.56001 0.282742C8.29877 0.0987533 7.98704 0 7.66751 0C7.34798 0 7.03626 0.0987533 6.77501 0.282742L0.705014 4.57774C0.486553 4.73544 0.308703 4.9428 0.186127 5.18274C0.0635512 5.42267 -0.000239326 5.68831 1.48357e-05 5.95774V13.5677C-0.000925129 13.7917 0.0428098 14.0137 0.128662 14.2206C0.214514 14.4275 0.340759 14.6152 0.500015 14.7727C0.645194 14.9197 0.818021 15.0364 1.00853 15.1162C1.19904 15.196 1.40346 15.2373 1.61001 15.2377H2.95001H8.69001C8.80936 15.2377 8.92382 15.1903 9.00821 15.1059C9.0926 15.0215 9.14001 14.9071 9.14001 14.7877C9.14001 14.6684 9.0926 14.5539 9.00821 14.4695C8.92382 14.3851 8.80936 14.3377 8.69001 14.3377L8.68501 14.3127Z" fill="black"/>
<path d="M17.55 11.8623H16.115V9.16728C16.115 9.04794 16.0676 8.93348 15.9832 8.84909C15.8988 8.7647 15.7844 8.71729 15.665 8.71729H11.895C11.7757 8.71729 11.6612 8.7647 11.5768 8.84909C11.4924 8.93348 11.445 9.04794 11.445 9.16728V11.8623H10C9.88067 11.8623 9.76621 11.9097 9.68182 11.9941C9.59743 12.0785 9.55002 12.1929 9.55002 12.3123V15.4573C9.55002 15.5766 9.59743 15.6911 9.68182 15.7755C9.76621 15.8599 9.88067 15.9073 10 15.9073H17.55C17.6694 15.9073 17.7838 15.8599 17.8682 15.7755C17.9526 15.6911 18 15.5766 18 15.4573V12.3073C17.9987 12.1888 17.9507 12.0756 17.8665 11.9923C17.7822 11.909 17.6685 11.8623 17.55 11.8623ZM12.345 9.61728H15.215V11.8623H12.345V9.61728ZM10.46 12.7623H13.33V15.0123H10.46V12.7623ZM17.1 15.0123H14.23V12.7623H17.1V15.0123Z" fill="black"/>
</svg>
