<svg width="16" height="16" viewBox="0 0 16 16" fill="none" xmlns="http://www.w3.org/2000/svg">
<path d="M15.9777 7.26L15.6235 4.715C15.5552 4.23963 15.3185 3.80477 14.9566 3.48988C14.5947 3.17499 14.1318 3.0011 13.6525 3H13.3033C13.3624 2.83996 13.3928 2.67067 13.3931 2.5V1.5C13.3931 1.10218 13.2354 0.720644 12.9546 0.43934C12.6739 0.158035 12.2932 0 11.8962 0H4.08228C3.68527 0 3.30453 0.158035 3.0238 0.43934C2.74308 0.720644 2.58537 1.10218 2.58537 1.5V2.5C2.5856 2.67067 2.61601 2.83996 2.67518 3H2.3259C1.85094 3.00705 1.39405 3.18362 1.03736 3.49797C0.680667 3.81233 0.447554 4.24385 0.379916 4.715L0.025647 7.26C-0.0555485 7.81155 0.0574115 8.37421 0.345132 8.85139C0.632852 9.32857 1.07738 9.69049 1.60239 9.875V15H0.604453C0.472118 15 0.345203 15.0527 0.251628 15.1464C0.158052 15.2402 0.105482 15.3674 0.105482 15.5C0.105482 15.6326 0.158052 15.7598 0.251628 15.8536C0.345203 15.9473 0.472118 16 0.604453 16H15.3241C15.4564 16 15.5833 15.9473 15.6769 15.8536C15.7705 15.7598 15.8231 15.6326 15.8231 15.5C15.8231 15.3674 15.7705 15.2402 15.6769 15.1464C15.5833 15.0527 15.4564 15 15.3241 15H14.3261V9.875C14.8651 9.70446 15.3265 9.34843 15.6287 8.86988C15.931 8.39132 16.0546 7.82108 15.9777 7.26ZM14.6355 4.855L14.9798 7.4C15.0085 7.60177 14.994 7.80735 14.9372 8.00305C14.8804 8.19876 14.7827 8.3801 14.6505 8.535C14.4654 8.74609 14.2196 8.89456 13.9469 8.96H13.902C13.8153 8.97986 13.7266 8.98992 13.6376 8.99C13.5571 8.98962 13.4769 8.98124 13.3981 8.965H13.3382C13.2766 8.9527 13.2165 8.93428 13.1586 8.91H13.1087C13.0446 8.88164 12.9828 8.8482 12.924 8.81C12.7449 8.69109 12.5957 8.53209 12.4883 8.34553C12.3809 8.15897 12.3183 7.94997 12.3053 7.735L12.0109 4H13.6525C13.887 4.00693 14.1116 4.09644 14.2868 4.2528C14.462 4.40916 14.5766 4.62237 14.6106 4.855H14.6355ZM9.87034 9C9.78329 8.99924 9.69647 8.99088 9.61088 8.975H9.55599L9.3564 8.91H9.32147C9.06916 8.796 8.856 8.60996 8.70867 8.37517C8.56134 8.14038 8.48639 7.86726 8.49318 7.59V4H10.988L11.2325 7.5C11.2486 7.6962 11.2235 7.89359 11.1591 8.07956C11.0947 8.26552 10.9922 8.43597 10.8583 8.58C10.6698 8.78539 10.4222 8.92692 10.1498 8.985C10.0574 8.99981 9.96375 9.00484 9.87034 9ZM6.63202 8.895L6.43243 8.96H6.37755C6.29195 8.97588 6.20513 8.98424 6.11808 8.985C6.02414 8.9849 5.93048 8.97484 5.83866 8.955C5.56627 8.89692 5.31865 8.75539 5.13012 8.55C5.00003 8.4095 4.89978 8.24399 4.83545 8.06349C4.77112 7.883 4.74405 7.69129 4.75589 7.5L5.00039 4H7.49524V7.59C7.49704 7.8611 7.4208 8.12697 7.27567 8.35576C7.13053 8.58455 6.92265 8.76657 6.67693 8.88L6.63202 8.895ZM3.59329 1.5C3.59329 1.36739 3.64586 1.24021 3.73943 1.14645C3.83301 1.05268 3.95992 1 4.09226 1H11.9061C11.9717 1 12.0366 1.01293 12.0971 1.03806C12.1576 1.06319 12.2126 1.10002 12.259 1.14645C12.3053 1.19288 12.3421 1.248 12.3671 1.30866C12.3922 1.36932 12.4051 1.43434 12.4051 1.5V2.5C12.4051 2.63261 12.3525 2.75979 12.259 2.85355C12.1654 2.94732 12.0385 3 11.9061 3H4.08228C3.94994 3 3.82303 2.94732 3.72945 2.85355C3.63588 2.75979 3.58331 2.63261 3.58331 2.5L3.59329 1.5ZM1.00862 7.4L1.36289 4.855C1.39725 4.61988 1.51404 4.40471 1.69233 4.24804C1.87063 4.09136 2.09877 4.00343 2.33588 4H4.00244L3.74298 7.7C3.73 7.91497 3.66736 8.12397 3.55998 8.31053C3.45261 8.49709 3.30344 8.65609 3.12426 8.775C3.06547 8.8132 3.00373 8.84664 2.93964 8.875H2.88974C2.83184 8.89928 2.77166 8.9177 2.71011 8.93H2.65023C2.57142 8.94624 2.49119 8.95462 2.41073 8.955C2.32174 8.95492 2.23303 8.94486 2.14627 8.925H2.10137C1.82867 8.85956 1.58289 8.71109 1.39782 8.5C1.25966 8.3542 1.15363 8.18094 1.08658 7.99144C1.01953 7.80194 0.992972 7.60044 1.00862 7.4ZM6.4973 15V12.5C6.4973 12.3674 6.54987 12.2402 6.64344 12.1464C6.73702 12.0527 6.86393 12 6.99627 12H8.93227C9.06461 12 9.19153 12.0527 9.2851 12.1464C9.37868 12.2402 9.43125 12.3674 9.43125 12.5V15H6.4973ZM10.4092 15V12.5C10.4092 12.1022 10.2515 11.7206 9.97079 11.4393C9.69007 11.158 9.30932 11 8.91232 11H7.02621C6.6292 11 6.24846 11.158 5.96773 11.4393C5.687 11.7206 5.52929 12.1022 5.52929 12.5V15H2.61032V10C2.64187 10.0023 2.67356 10.0023 2.70512 10C2.7979 9.98891 2.88966 9.97052 2.97955 9.945L3.14421 9.895C3.23661 9.86108 3.32662 9.82099 3.41366 9.775L3.56335 9.695C3.63964 9.6479 3.71296 9.59614 3.7829 9.54C3.83778 9.495 3.89267 9.46 3.94257 9.415C3.99246 9.37 4.02739 9.325 4.06731 9.285C4.10723 9.245 4.18706 9.17 4.23696 9.105C4.27748 9.15889 4.32079 9.21063 4.36669 9.26C4.58901 9.49602 4.85751 9.68355 5.15542 9.81087C5.45334 9.9382 5.77425 10.0026 6.09812 10C6.24222 9.99791 6.38583 9.98285 6.52724 9.955H6.60208C6.73139 9.92488 6.85818 9.88476 6.9813 9.835L7.05615 9.8C7.18166 9.74431 7.3019 9.67737 7.4154 9.6C7.62043 9.46128 7.80373 9.29277 7.95928 9.1C8.11483 9.29277 8.29813 9.46128 8.50316 9.6C8.61603 9.67838 8.73637 9.74538 8.86242 9.8L8.93727 9.835C9.06039 9.88476 9.18717 9.92488 9.31648 9.955H9.39133C9.53273 9.98285 9.67635 9.99791 9.82044 10C10.1458 9.99867 10.4673 9.92953 10.7645 9.79696C11.0617 9.6644 11.3282 9.47132 11.5469 9.23C11.5947 9.17917 11.6396 9.12576 11.6816 9.07C11.7315 9.135 11.7964 9.19 11.8513 9.25C11.9061 9.31 11.9311 9.34 11.976 9.38C12.0209 9.42 12.0808 9.46 12.1357 9.505C12.2056 9.56114 12.2789 9.6129 12.3552 9.66L12.5049 9.74C12.5919 9.78599 12.682 9.82608 12.7744 9.86L12.939 9.91C13.0289 9.93552 13.1207 9.95391 13.2134 9.965C13.245 9.96734 13.2767 9.96734 13.3083 9.965V15H10.4092Z" fill="black"/>
</svg>
