<svg width="21" height="20" viewBox="0 0 21 20" fill="none" xmlns="http://www.w3.org/2000/svg">
<path d="M19.75 0.450195C20.0538 0.450195 20.2998 0.696243 20.2998 1C20.2998 1.30376 20.0538 1.5498 19.75 1.5498H18.3271C18.1596 1.54984 17.9971 1.61037 17.8701 1.71973C17.7433 1.82898 17.6598 1.98 17.6348 2.14551L16.0791 12.5176C16.015 12.9439 15.7995 13.333 15.4727 13.6143C15.1459 13.8954 14.729 14.05 14.2979 14.0498H1C0.696243 14.0498 0.450195 13.8038 0.450195 13.5C0.450195 13.1962 0.696243 12.9502 1 12.9502H14.2988C14.4664 12.9502 14.6288 12.8896 14.7559 12.7803C14.8826 12.671 14.9662 12.52 14.9912 12.3545L16.5469 1.98242L16.5781 1.82422C16.6667 1.46052 16.8667 1.13173 17.1523 0.885742C17.4788 0.60467 17.8954 0.450379 18.3262 0.450195H19.75Z" fill="white"/>
<path d="M6.7002 6.625C6.7002 6.58358 6.66642 6.5498 6.625 6.5498H2.875C2.83358 6.5498 2.7998 6.58358 2.7998 6.625V10.375C2.7998 10.4164 2.83358 10.4502 2.875 10.4502H6.625C6.66642 10.4502 6.7002 10.4164 6.7002 10.375V6.625ZM7.7998 10.375C7.7998 11.0239 7.27393 11.5498 6.625 11.5498H2.875C2.22607 11.5498 1.7002 11.0239 1.7002 10.375V6.625C1.7002 5.97607 2.22607 5.4502 2.875 5.4502H6.625C7.27393 5.4502 7.7998 5.97607 7.7998 6.625V10.375Z" fill="white"/>
<path d="M12.9502 4.125C12.9502 4.08358 12.9164 4.0498 12.875 4.0498H7.875C7.83358 4.0498 7.7998 4.08358 7.7998 4.125V10.375C7.7998 10.4164 7.83358 10.4502 7.875 10.4502H12.875C12.9164 10.4502 12.9502 10.4164 12.9502 10.375V4.125ZM14.0498 10.375C14.0498 11.0239 13.5239 11.5498 12.875 11.5498H7.875C7.22607 11.5498 6.7002 11.0239 6.7002 10.375V4.125C6.7002 3.47607 7.22607 2.9502 7.875 2.9502H12.875C13.5239 2.9502 14.0498 3.47607 14.0498 4.125V10.375Z" fill="white"/>
<path d="M4.8252 16.9375C4.8252 16.3783 4.37169 15.9248 3.8125 15.9248C3.25331 15.9248 2.7998 16.3783 2.7998 16.9375C2.7998 17.4967 3.25331 17.9502 3.8125 17.9502C4.37169 17.9502 4.8252 17.4967 4.8252 16.9375ZM5.9248 16.9375C5.9248 18.1042 4.9792 19.0498 3.8125 19.0498C2.6458 19.0498 1.7002 18.1042 1.7002 16.9375C1.7002 15.7708 2.6458 14.8252 3.8125 14.8252C4.9792 14.8252 5.9248 15.7708 5.9248 16.9375Z" fill="white"/>
<path d="M13.5752 16.9375C13.5752 16.3783 13.1217 15.9248 12.5625 15.9248C12.0033 15.9248 11.5498 16.3783 11.5498 16.9375C11.5498 17.4967 12.0033 17.9502 12.5625 17.9502C13.1217 17.9502 13.5752 17.4967 13.5752 16.9375ZM14.6748 16.9375C14.6748 18.1042 13.7292 19.0498 12.5625 19.0498C11.3958 19.0498 10.4502 18.1042 10.4502 16.9375C10.4502 15.7708 11.3958 14.8252 12.5625 14.8252C13.7292 14.8252 14.6748 15.7708 14.6748 16.9375Z" fill="white"/>
</svg>
