<svg width="19" height="17" viewBox="0 0 19 17" fill="none" xmlns="http://www.w3.org/2000/svg">
<path d="M5.33722 3.88915H12.8863C13.0949 3.88915 13.264 3.7203 13.264 3.51174C13.264 3.30317 13.0949 3.13379 12.8863 3.13379H5.33722C5.12866 3.13379 4.95981 3.30317 4.95981 3.51174C4.95981 3.7203 5.12866 3.88915 5.33722 3.88915Z" fill="white"/>
<path d="M13.9822 5.69824H6.90763C6.69911 5.69824 6.52997 5.86709 6.52997 6.07566C6.52997 6.28422 6.69911 6.4536 6.90763 6.4536H13.9822C14.1907 6.4536 14.3596 6.28422 14.3596 6.07566C14.3596 5.86709 14.1907 5.69824 13.9822 5.69824Z" fill="white"/>
<path d="M11.9675 8.26318H5.33722C5.12866 8.26318 4.95981 8.43203 4.95981 8.6406C4.95981 8.84911 5.12866 9.01801 5.33722 9.01801H11.9675C12.1757 9.01801 12.3449 8.84911 12.3449 8.6406C12.3448 8.43203 12.1757 8.26318 11.9675 8.26318Z" fill="white"/>
<path d="M16.352 0H2.64798C1.18817 0 0 1.09817 0 2.44866V9.98476C0 11.3347 1.18817 12.4329 2.64798 12.4329H10.7294L16.5611 16.5209V12.4258C17.9237 12.3266 19 11.2696 19 9.98476V2.44866C19 1.09817 17.8118 0 16.352 0ZM17.8672 9.98476C17.8672 10.7101 17.1872 11.3002 16.352 11.3002H15.4282V14.3434L11.0869 11.3002H2.64793C1.8125 11.3002 1.13268 10.7101 1.13268 9.98476V2.44866C1.13268 1.72279 1.8125 1.13278 2.64793 1.13278H16.352C17.1872 1.13278 17.8672 1.72284 17.8672 2.44866V9.98476Z" fill="white"/>
</svg>
