<svg width="17" height="16" viewBox="0 0 17 16" fill="none" xmlns="http://www.w3.org/2000/svg">
<path d="M15.9004 10.7934C15.9004 8.52575 14.0616 6.68702 11.794 6.68701C9.52626 6.68701 7.68753 8.52575 7.68753 10.7934C7.68754 13.0611 9.52627 14.8999 11.794 14.8999V15.9995L11.5264 15.9926C8.86415 15.8579 6.72955 13.7232 6.59476 11.061L6.58792 10.7934C6.58792 7.91823 8.91875 5.5874 11.794 5.5874L12.0615 5.59424C14.8124 5.73352 17 8.00798 17 10.7934L16.9932 11.061C16.8539 13.8119 14.5794 15.9995 11.794 15.9995V14.8999C14.0616 14.8999 15.9004 13.0611 15.9004 10.7934Z" fill="white"/>
<path d="M16.2563 8.33994C16.2563 8.47315 16.2044 8.60642 16.1007 8.70794L11.8508 12.8728C11.7475 12.9749 11.6114 13.0254 11.4752 13.0254C11.3391 13.0254 11.2033 12.9745 11.0997 12.8729L8.97481 10.7904C8.87105 10.6892 8.81909 10.5558 8.81909 10.4224C8.81909 10.125 9.06727 9.90175 9.35032 9.90175C9.48625 9.90175 9.62224 9.95259 9.72583 10.0543L11.4752 11.7694L15.3499 7.97226C15.4528 7.87026 15.5889 7.81934 15.7251 7.81934C16.0089 7.81934 16.2563 8.04222 16.2563 8.33994Z" fill="white"/>
<path d="M6.58795 10.7935C6.58813 7.9184 8.91891 5.58741 11.794 5.5874C12.3109 5.5874 12.81 5.66391 13.2813 5.8042V3.12549C13.2813 2.02092 12.3859 1.12549 11.2813 1.12549V0.0258789C12.9934 0.0258789 14.3809 1.41341 14.3809 3.12549V7.27881L12.9678 6.85889C12.5955 6.74808 12.2018 6.68701 11.794 6.68701C9.52651 6.68702 7.68774 8.52583 7.68756 10.7935C7.68756 11.9422 8.15891 12.9793 8.92096 13.7261L10.8458 15.6118H3.3819C1.66982 15.6118 0.282288 14.2243 0.282288 12.5122V3.12549C0.282288 1.41341 1.66981 0.0258789 3.3819 0.0258789V1.12549C2.27733 1.12549 1.3819 2.02092 1.3819 3.12549V12.5122C1.3819 13.6168 2.27733 14.5122 3.3819 14.5122H8.15143C7.18695 13.5673 6.58795 12.2504 6.58795 10.7935ZM11.2813 0.0258789V1.12549H3.3819V0.0258789H11.2813Z" fill="white"/>
</svg>
