<svg width="18" height="16" viewBox="0 0 18 16" fill="none" xmlns="http://www.w3.org/2000/svg">
<path d="M16.5185 10.7934C16.5185 8.52575 14.6797 6.68702 12.412 6.68701C10.1443 6.68701 8.3056 8.52575 8.3056 10.7934C8.30561 13.0611 10.1443 14.8999 12.412 14.8999V15.9995L12.1445 15.9926C9.48222 15.8579 7.34763 13.7232 7.21283 11.061L7.20599 10.7934C7.20599 7.91823 9.53683 5.5874 12.412 5.5874L12.6796 5.59424C15.4304 5.73352 17.6181 8.00798 17.6181 10.7934L17.6112 11.061C17.4719 13.8119 15.1975 15.9995 12.412 15.9995V14.8999C14.6797 14.8999 16.5184 13.0611 16.5185 10.7934Z" fill="black"/>
<path d="M16.8744 8.33994C16.8744 8.47315 16.8225 8.60642 16.7188 8.70794L12.4689 12.8728C12.3656 12.9749 12.2295 13.0254 12.0933 13.0254C11.9572 13.0254 11.8214 12.9745 11.7178 12.8729L9.59291 10.7904C9.48916 10.6892 9.43719 10.5558 9.43719 10.4224C9.43719 10.125 9.68538 9.90175 9.96842 9.90175C10.1044 9.90175 10.2403 9.95259 10.3439 10.0543L12.0933 11.7694L15.968 7.97226C16.0709 7.87026 16.207 7.81934 16.3432 7.81934C16.627 7.81934 16.8744 8.04222 16.8744 8.33994Z" fill="black"/>
<path d="M7.20605 10.7935C7.20623 7.9184 9.53701 5.5874 12.4121 5.5874C12.929 5.58741 13.4281 5.66391 13.8994 5.8042V3.12549C13.8994 2.02092 13.004 1.12549 11.8994 1.12549V0.0258789C13.6115 0.0258789 14.999 1.41341 14.999 3.12549V7.27979L13.5859 6.85889C13.3067 6.77576 13.0151 6.72087 12.7148 6.69873L12.4121 6.68701C10.1446 6.68701 8.30584 8.52582 8.30566 10.7935C8.30566 11.9423 8.777 12.9793 9.53906 13.7261L11.4639 15.6118H4C2.28792 15.6118 0.900391 14.2243 0.900391 12.5122V3.12549C0.900391 1.41341 2.28792 0.0258789 4 0.0258789V1.12549C2.89543 1.12549 2 2.02092 2 3.12549V12.5122C2 13.6168 2.89543 14.5122 4 14.5122H8.76953C7.80503 13.5673 7.20605 12.2504 7.20605 10.7935ZM11.8994 0.0258789V1.12549H4V0.0258789H11.8994Z" fill="black"/>
</svg>
