<svg width="21" height="15" viewBox="0 0 21 15" fill="none" xmlns="http://www.w3.org/2000/svg">
<path d="M19.6379 6.44202L16.6683 3.72598C16.5959 3.65355 16.5235 3.61733 16.4148 3.61733H13.1194C12.9745 3.61733 12.8659 3.65355 12.7572 3.68976V1.80663C12.7572 1.191 12.2864 0.720215 11.6708 0.720215H1.53088C0.91524 0.720215 0.444458 1.191 0.444458 1.80663V7.60087C0.444458 7.89058 0.5531 8.14408 0.73417 8.32515C0.5531 8.50622 0.444458 8.75972 0.444458 9.04943V11.2223C0.444458 11.8379 0.91524 12.3087 1.53088 12.3087H2.6173C2.6173 13.5038 3.59508 14.4815 4.79014 14.4815C5.9852 14.4815 6.96298 13.5038 6.96298 12.3087H11.6708C11.9605 12.3087 12.214 12.2 12.3951 12.019C12.5761 12.2 12.8296 12.3087 13.1194 12.3087H13.4815C13.4815 13.5038 14.4593 14.4815 15.6543 14.4815C16.8494 14.4815 17.8272 13.5038 17.8272 12.3087H18.9136C19.5292 12.3087 20 11.8379 20 11.2223V7.23873C20 6.94902 19.8552 6.65931 19.6379 6.44202ZM1.16874 1.80663C1.16874 1.58935 1.31359 1.44449 1.53088 1.44449H11.6708C11.8881 1.44449 12.0329 1.58935 12.0329 1.80663V4.70375V7.60087C12.0329 7.81816 11.8881 7.96301 11.6708 7.96301H1.53088C1.31359 7.96301 1.16874 7.81816 1.16874 7.60087V1.80663ZM4.79014 13.7573C3.99343 13.7573 3.34158 13.1054 3.34158 12.3087C3.34158 11.512 3.99343 10.8601 4.79014 10.8601C5.58684 10.8601 6.2387 11.512 6.2387 12.3087C6.2387 13.1054 5.58684 13.7573 4.79014 13.7573ZM11.6708 11.5844H6.81812C6.52841 10.7515 5.7317 10.1359 4.79014 10.1359C3.84857 10.1359 3.05187 10.7515 2.76215 11.5844H1.53088C1.31359 11.5844 1.16874 11.4396 1.16874 11.2223V9.04943C1.16874 8.83215 1.31359 8.68729 1.53088 8.68729H11.6708C11.8881 8.68729 12.0329 8.83215 12.0329 9.04943V11.2223C12.0329 11.4396 11.8881 11.5844 11.6708 11.5844ZM15.6543 13.7573C14.8576 13.7573 14.2058 13.1054 14.2058 12.3087C14.2058 11.512 14.8576 10.8601 15.6543 10.8601C16.451 10.8601 17.1029 11.512 17.1029 12.3087C17.1029 13.1054 16.451 13.7573 15.6543 13.7573ZM19.2757 11.2223C19.2757 11.4396 19.1309 11.5844 18.9136 11.5844H17.7547C17.7185 11.5844 17.7185 11.5844 17.6823 11.5844C17.3926 10.7515 16.5959 10.1359 15.6181 10.1359C14.6766 10.1359 13.8798 10.7515 13.5901 11.5844H13.1194C12.9021 11.5844 12.7572 11.4396 12.7572 11.2223V9.04943V7.60087V4.70375C12.7572 4.48647 12.9021 4.34161 13.1194 4.34161H16.27L19.1671 6.98523C19.2395 7.05766 19.2757 7.16631 19.2757 7.23873V11.2223Z" fill="white"/>
<path d="M12.6075 1.80615C12.6073 1.27367 12.2035 0.870719 11.671 0.870605H1.5304C0.998 0.870849 0.595092 1.27376 0.594849 1.80615V7.60107C0.594899 7.85215 0.687987 8.06723 0.839966 8.21924L0.946411 8.32471L0.839966 8.43115C0.687995 8.58318 0.594878 8.79822 0.594849 9.04932V11.2222C0.594849 11.7548 0.997839 12.1584 1.5304 12.1587H2.7677V12.3091C2.76791 13.4211 3.67807 14.3315 4.79016 14.3315C5.90224 14.3315 6.81241 13.4211 6.81262 12.3091V12.1587H11.671C11.9221 12.1586 12.1372 12.0646 12.2892 11.9126L12.3947 11.8071L12.5011 11.9126C12.6531 12.0646 12.8681 12.1587 13.1193 12.1587H13.632V12.3091C13.6322 13.4211 14.5423 14.3315 15.6544 14.3315C16.7665 14.3315 17.6767 13.4211 17.6769 12.3091V12.1587H18.9132C19.446 12.1587 19.8497 11.755 19.8497 11.2222V7.23877C19.8497 6.99784 19.7276 6.74457 19.5314 6.54834V6.54736L16.5675 3.83643L16.5626 3.83252C16.5353 3.8052 16.5135 3.79031 16.4943 3.78174C16.4757 3.77349 16.4518 3.76713 16.4152 3.76709H13.1193C13.0012 3.7671 12.9134 3.79634 12.8048 3.83252L12.6075 3.89795V1.80615ZM6.08899 12.3091C6.08899 11.5952 5.50402 11.0103 4.79016 11.0103C4.0763 11.0103 3.49133 11.5952 3.49133 12.3091C3.49155 13.0228 4.07643 13.6069 4.79016 13.6069C5.50389 13.6069 6.08878 13.0228 6.08899 12.3091ZM16.9532 12.3091C16.9532 11.5952 16.3682 11.0103 15.6544 11.0103C14.9406 11.0103 14.3556 11.5952 14.3556 12.3091C14.3558 13.0228 14.9407 13.6069 15.6544 13.6069C16.3681 13.6069 16.953 13.0227 16.9532 12.3091ZM4.79016 9.98584C5.76006 9.98585 6.58385 10.5957 6.92102 11.4341H11.671C11.7455 11.434 11.7958 11.4098 11.8273 11.3784C11.8586 11.3469 11.8829 11.2966 11.8829 11.2222V9.04932C11.8829 8.97487 11.8587 8.92451 11.8273 8.89307C11.7958 8.86164 11.7455 8.83745 11.671 8.8374H1.5304C1.45611 8.83751 1.40554 8.86168 1.37415 8.89307C1.34279 8.92452 1.31851 8.97497 1.31848 9.04932V11.2222C1.31848 11.2965 1.34283 11.3469 1.37415 11.3784C1.40554 11.4098 1.45611 11.434 1.5304 11.4341H2.6593C2.99648 10.5957 3.82026 9.98584 4.79016 9.98584ZM12.6075 4.70361C12.6076 4.56094 12.6558 4.43071 12.7511 4.33545C12.8464 4.24019 12.9766 4.19192 13.1193 4.19189H16.3282L16.3712 4.23096L19.2687 6.87451L19.2736 6.87939C19.3757 6.98178 19.4259 7.12935 19.4259 7.23877V11.2222C19.4259 11.3649 19.3776 11.496 19.2823 11.5913C19.1871 11.6865 19.0559 11.7349 18.9132 11.7349H17.5753L17.5402 11.6333C17.2707 10.8594 16.5302 10.2857 15.6183 10.2856C14.7438 10.2856 14.0014 10.8578 13.7316 11.6333L13.6964 11.7349H13.1193C12.9768 11.7348 12.8463 11.6863 12.7511 11.5913C12.6558 11.496 12.6075 11.3649 12.6075 11.2222V4.70361ZM11.8829 1.80615C11.8828 1.73186 11.8587 1.68129 11.8273 1.6499C11.7958 1.61854 11.7454 1.59429 11.671 1.59424H1.5304C1.4561 1.59434 1.40554 1.61851 1.37415 1.6499C1.34276 1.68129 1.31859 1.73186 1.31848 1.80615V7.60107C1.31852 7.67541 1.34278 7.72589 1.37415 7.75732C1.40554 7.78871 1.45611 7.81288 1.5304 7.81299H11.671C11.7455 7.81294 11.7958 7.78875 11.8273 7.75732C11.8587 7.72589 11.8829 7.67551 11.8829 7.60107V1.80615ZM6.38879 12.3091C6.38858 13.1884 5.66957 13.9077 4.79016 13.9077C3.91074 13.9077 3.19174 13.1885 3.19153 12.3091C3.19153 11.4295 3.91061 10.7104 4.79016 10.7104C5.6697 10.7105 6.38879 11.4295 6.38879 12.3091ZM17.2531 12.3091C17.2528 13.1884 16.5338 13.9077 15.6544 13.9077C14.775 13.9077 14.056 13.1885 14.0558 12.3091C14.0558 11.4295 14.7749 10.7104 15.6544 10.7104C16.5339 10.7105 17.2531 11.4296 17.2531 12.3091ZM12.1827 11.2222C12.1827 11.3649 12.1345 11.496 12.0392 11.5913C11.944 11.6863 11.8135 11.7348 11.671 11.7349H6.71106L6.67688 11.6333C6.40702 10.8577 5.66461 10.2857 4.79016 10.2856C3.9157 10.2856 3.17331 10.8577 2.90344 11.6333L2.86926 11.7349H1.5304C1.38795 11.7348 1.2574 11.6864 1.16223 11.5913C1.06694 11.496 1.01868 11.3649 1.01868 11.2222V9.04932C1.0187 8.90672 1.06709 8.7764 1.16223 8.68115C1.25742 8.58597 1.38785 8.53771 1.5304 8.5376H11.671C11.8137 8.53765 11.9439 8.58591 12.0392 8.68115C12.1344 8.77641 12.1827 8.90666 12.1827 9.04932V11.2222ZM12.9073 11.2222C12.9073 11.2966 12.9316 11.347 12.963 11.3784C12.9945 11.4099 13.0448 11.4341 13.1193 11.4341H13.4874C13.8246 10.5957 14.6484 9.98584 15.6183 9.98584C16.6216 9.98591 17.4476 10.5945 17.7853 11.4341H18.9132C18.9878 11.4341 19.039 11.4099 19.0704 11.3784C19.1017 11.3469 19.1261 11.2964 19.1261 11.2222V7.23877C19.1261 7.22499 19.1219 7.19844 19.1095 7.16748C19.0974 7.13722 19.0798 7.11044 19.0607 7.09131H19.0597L16.212 4.4917H13.1193C13.0448 4.49172 12.9945 4.51593 12.963 4.54736C12.9316 4.5788 12.9074 4.62914 12.9073 4.70361V11.2222ZM12.1827 7.60107C12.1827 7.74372 12.1344 7.87399 12.0392 7.96924C11.9439 8.06448 11.8137 8.11274 11.671 8.11279H1.5304C1.38785 8.11268 1.25742 8.06442 1.16223 7.96924C1.06708 7.874 1.01872 7.74365 1.01868 7.60107V1.80615C1.01879 1.66361 1.06705 1.53317 1.16223 1.43799C1.25742 1.3428 1.38785 1.29454 1.5304 1.29443H11.671C11.8136 1.29448 11.944 1.34283 12.0392 1.43799C12.1344 1.53317 12.1826 1.66361 12.1827 1.80615V7.60107ZM12.9073 3.49072C12.9705 3.47716 13.0403 3.46729 13.1193 3.46729H16.4152C16.4869 3.46732 16.5536 3.47943 16.6163 3.50732C16.6784 3.53496 16.7295 3.57463 16.7745 3.61963H16.7736L19.7394 6.33154L19.7443 6.33545V6.33643C19.9824 6.57473 20.1495 6.90046 20.1495 7.23877V11.2222C20.1495 11.9206 19.6117 12.4585 18.9132 12.4585H17.9698C17.8919 13.6672 16.8819 14.6313 15.6544 14.6313C14.4269 14.6313 13.4169 13.6672 13.339 12.4585H13.1193C12.8428 12.4585 12.5924 12.3705 12.3947 12.2173C12.197 12.3702 11.9472 12.4584 11.671 12.4585H7.10559C7.02768 13.6672 6.01769 14.6313 4.79016 14.6313C3.56263 14.6313 2.55265 13.6672 2.47473 12.4585H1.5304C0.83215 12.4582 0.294067 11.9205 0.294067 11.2222V9.04932C0.294092 8.77299 0.382203 8.52242 0.535278 8.32471C0.382486 8.12711 0.29411 7.87711 0.294067 7.60107V1.80615C0.294315 1.10807 0.83231 0.570072 1.5304 0.569824H11.671C12.3692 0.56994 12.9071 1.10798 12.9073 1.80615V3.49072Z" fill="white"/>
</svg>
