<svg width="21" height="16" viewBox="0 0 21 16" fill="none" xmlns="http://www.w3.org/2000/svg">
<path d="M9.3682 12.9795C9.31655 12.9798 9.26543 12.9692 9.21818 12.9483C9.17094 12.9275 9.12864 12.8968 9.09407 12.8585C9.0595 12.8201 9.03345 12.7748 9.01762 12.7257C9.00179 12.6765 8.99654 12.6246 9.00222 12.5732L9.3316 9.58321C9.34083 9.50003 9.37829 9.42253 9.43773 9.36362L16.4206 2.38443C16.5417 2.2626 16.6857 2.16592 16.8442 2.09994C17.0028 2.03397 17.1729 2 17.3447 2C17.5164 2 17.6865 2.03397 17.8451 2.09994C18.0037 2.16592 18.1477 2.2626 18.2688 2.38443L19.6156 3.71293C19.7374 3.83402 19.8341 3.978 19.9001 4.13659C19.966 4.29518 20 4.46525 20 4.63702C20 4.80879 19.966 4.97886 19.9001 5.13746C19.8341 5.29605 19.7374 5.44003 19.6156 5.56112L12.6181 12.5403C12.5592 12.5998 12.4817 12.6372 12.3985 12.6464L9.40846 12.9795H9.3682ZM10.0489 9.78816L9.78175 12.1999L12.1935 11.9328L19.0812 5.04143C19.1881 4.93321 19.248 4.78726 19.248 4.63519C19.248 4.48312 19.1881 4.33718 19.0812 4.22896L17.7527 2.90046C17.6445 2.79363 17.4986 2.73372 17.3465 2.73372C17.1944 2.73372 17.0485 2.79363 16.9403 2.90046L10.0489 9.78816Z" fill="black"/>
<path d="M19.8496 4.63672C19.8496 4.48489 19.82 4.33453 19.7617 4.19434C19.718 4.08917 19.6591 3.99088 19.5869 3.90332L19.5098 3.81934L18.1631 2.49121L18.1621 2.49023C18.055 2.38248 17.9274 2.29664 17.7871 2.23828C17.6469 2.18001 17.4966 2.1504 17.3447 2.15039C17.1929 2.15039 17.0425 2.18003 16.9023 2.23828C16.7621 2.29663 16.6344 2.3825 16.5273 2.49023L9.54393 9.46973C9.50888 9.50446 9.48593 9.55057 9.48046 9.59961L9.15136 12.5898C9.14802 12.6201 9.15084 12.6507 9.16015 12.6797C9.16944 12.7085 9.18483 12.7352 9.20507 12.7578C9.22542 12.7804 9.25051 12.7992 9.27831 12.8115C9.30616 12.8238 9.33673 12.8293 9.36718 12.8291H9.40038L12.3818 12.4971C12.4309 12.4916 12.4769 12.4697 12.5117 12.4346L19.5098 5.45508L19.5869 5.37109C19.6592 5.28352 19.7179 5.18528 19.7617 5.08008C19.8201 4.93974 19.8496 4.78871 19.8496 4.63672ZM19.0976 4.63477C19.0975 4.5227 19.0541 4.41492 18.9756 4.33496L17.6465 3.00684C17.5665 2.92845 17.4587 2.88383 17.3467 2.88379C17.2622 2.88379 17.1798 2.90825 17.1103 2.9541L17.0459 3.00684L10.1924 9.85742L9.95116 12.0293L12.125 11.7891L18.9756 4.93555C19.0542 4.85548 19.0976 4.74701 19.0976 4.63477ZM20.1504 4.63672C20.1504 4.82826 20.1116 5.01846 20.0381 5.19531C19.9645 5.37202 19.8574 5.53304 19.7217 5.66797L19.7207 5.66699L12.7236 12.6465C12.6614 12.709 12.5848 12.7542 12.501 12.7783L12.415 12.7959L9.42479 13.1289L9.41698 13.1299H9.36815C9.29566 13.1302 9.22354 13.1152 9.15722 13.0859C9.09067 13.0565 9.03111 13.013 8.98241 12.959C8.93369 12.9049 8.8973 12.8408 8.87499 12.7715C8.8527 12.7022 8.8455 12.629 8.85351 12.5566L9.18261 9.56641C9.19567 9.44924 9.24828 9.33983 9.33202 9.25684L16.3144 2.27832L16.4199 2.18262C16.5304 2.0914 16.6543 2.01715 16.7871 1.96191C16.9639 1.88841 17.1533 1.84961 17.3447 1.84961C17.5362 1.84962 17.7255 1.88839 17.9023 1.96191C18.0786 2.03526 18.2392 2.14207 18.374 2.27734L19.7207 3.60645C19.8565 3.74143 19.9645 3.90233 20.0381 4.0791C20.1116 4.25586 20.1503 4.44528 20.1504 4.63672ZM19.3984 4.63477C19.3984 4.82609 19.3228 5.01023 19.1885 5.14648L12.2627 12.0762L9.79784 12.3486L9.61229 12.3701L9.8994 9.77148L9.90526 9.71973L16.834 2.79395C16.9703 2.6594 17.1552 2.58398 17.3467 2.58398C17.4904 2.58402 17.6299 2.62603 17.748 2.7041L17.8584 2.79395L19.1885 4.12402C19.3226 4.26017 19.3983 4.44362 19.3984 4.63477Z" fill="black"/>
<path d="M18.342 6.66248C18.246 6.66208 18.154 6.62396 18.0858 6.55635L15.4251 3.89569C15.3567 3.82532 15.319 3.73065 15.3204 3.6325C15.3218 3.53435 15.3621 3.44077 15.4325 3.37234C15.5028 3.30391 15.5975 3.26624 15.6956 3.26761C15.7938 3.26899 15.8874 3.30929 15.9558 3.37966L18.6018 6.02568C18.67 6.09425 18.7082 6.18701 18.7082 6.28369C18.7082 6.38038 18.67 6.47314 18.6018 6.54171C18.5689 6.57828 18.5289 6.60783 18.4842 6.62858C18.4396 6.64933 18.3912 6.66086 18.342 6.66248Z" fill="black"/>
<path d="M18.5586 6.28422C18.5586 6.2272 18.5353 6.17234 18.4952 6.13188V6.1309L15.8487 3.48442C15.808 3.44257 15.7518 3.41883 15.6934 3.41801C15.6352 3.41723 15.5789 3.43903 15.5372 3.47954C15.4953 3.52023 15.4716 3.57644 15.4707 3.63481C15.47 3.69255 15.4914 3.7484 15.5313 3.79008L18.1915 6.45024L18.2237 6.47661C18.2576 6.49918 18.2977 6.51088 18.3389 6.51176C18.3673 6.51058 18.3952 6.50421 18.4209 6.49223C18.4472 6.48001 18.4709 6.46295 18.4903 6.44145L18.4952 6.43559C18.5352 6.39525 18.5585 6.34107 18.5586 6.28422ZM18.8584 6.28422C18.8583 6.41809 18.805 6.54559 18.712 6.64165L18.7129 6.64262C18.6666 6.6939 18.6105 6.73552 18.5479 6.76469C18.4849 6.79395 18.4161 6.81026 18.3467 6.81254H18.3409C18.2058 6.81185 18.0765 6.75816 17.9805 6.66313L15.3174 4.00004C15.2215 3.90128 15.1682 3.76857 15.17 3.6309C15.1719 3.49298 15.2293 3.36086 15.3282 3.26469C15.4269 3.16877 15.5596 3.11542 15.6973 3.11723C15.8344 3.11915 15.9656 3.17566 16.0616 3.27348L18.7081 5.91997C18.8042 6.01664 18.8584 6.14791 18.8584 6.28422Z" fill="black"/>
<path d="M14 0C15.1046 0 16 0.895431 16 2V2.5918L14.9004 3.69141V2C14.9004 1.50294 14.4971 1.09961 14 1.09961H2C1.50294 1.09961 1.09961 1.50294 1.09961 2V14C1.09961 14.4971 1.50294 14.9004 2 14.9004H14C14.4971 14.9004 14.9004 14.4971 14.9004 14V10.4746L16 9.37793V14C16 15.1046 15.1046 16 14 16H2C0.895431 16 0 15.1046 0 14V2C0 0.895431 0.895431 0 2 0H14Z" fill="black"/>
</svg>
