<svg width="18" height="17" viewBox="0 0 18 17" fill="none" xmlns="http://www.w3.org/2000/svg">
<path d="M8.68501 14.5173H3.37501V7.30233H12.265V8.19733C12.265 8.31667 12.3124 8.43113 12.3968 8.51552C12.4812 8.59992 12.5957 8.64733 12.715 8.64733C12.8344 8.64733 12.9488 8.59992 13.0332 8.51552C13.1176 8.43113 13.165 8.31667 13.165 8.19733V6.85233C13.165 6.73298 13.1176 6.61852 13.0332 6.53413C12.9488 6.44974 12.8344 6.40233 12.715 6.40233H2.92501C2.80567 6.40233 2.69121 6.44974 2.60682 6.53413C2.52242 6.61852 2.47501 6.73298 2.47501 6.85233V14.5373H1.60501C1.51205 14.5394 1.41964 14.5223 1.3336 14.487C1.24756 14.4518 1.16974 14.3991 1.10501 14.3323C1.03045 14.2586 0.97162 14.1705 0.932086 14.0734C0.892552 13.9763 0.873137 13.8722 0.875014 13.7673V6.16233C0.872997 6.03779 0.901028 5.9146 0.956731 5.80319C1.01244 5.69178 1.09417 5.59544 1.19501 5.52233L7.29501 1.23233C7.40624 1.154 7.53897 1.11196 7.67501 1.11196C7.81106 1.11196 7.94378 1.154 8.05501 1.23233L14.105 5.38233C14.2089 5.45669 14.2931 5.55513 14.3506 5.66921C14.4081 5.78329 14.4371 5.90961 14.435 6.03733V8.20233C14.4343 8.26118 14.4454 8.31959 14.4674 8.37416C14.4895 8.42873 14.5222 8.47837 14.5636 8.52023C14.605 8.56208 14.6542 8.59531 14.7085 8.61798C14.7629 8.64066 14.8211 8.65233 14.88 8.65233C14.9396 8.65509 14.9992 8.64555 15.055 8.62429C15.1108 8.60304 15.1616 8.57053 15.2043 8.52878C15.247 8.48704 15.2806 8.43696 15.3031 8.38165C15.3256 8.32635 15.3364 8.26701 15.335 8.20733V6.04233C15.3361 5.77113 15.2711 5.50376 15.1456 5.26332C15.0202 5.02287 14.8381 4.8166 14.615 4.66233L8.56001 0.487331C8.29877 0.303343 7.98704 0.20459 7.66751 0.20459C7.34798 0.20459 7.03626 0.303343 6.77501 0.487331L0.705014 4.78233C0.486553 4.94003 0.308703 5.14739 0.186127 5.38733C0.0635512 5.62726 -0.000239326 5.8929 1.48357e-05 6.16233V13.7723C-0.000925129 13.9963 0.0428098 14.2183 0.128662 14.4252C0.214514 14.6321 0.340759 14.8198 0.500015 14.9773C0.645194 15.1242 0.818021 15.241 1.00853 15.3208C1.19904 15.4006 1.40346 15.4419 1.61001 15.4423H2.95001H8.69001C8.80936 15.4423 8.92382 15.3949 9.00821 15.3105C9.0926 15.2261 9.14001 15.1117 9.14001 14.9923C9.14001 14.873 9.0926 14.7585 9.00821 14.6741C8.92382 14.5897 8.80936 14.5423 8.69001 14.5423L8.68501 14.5173Z" fill="white"/>
<path d="M17.55 12.0669H16.115V9.37187C16.115 9.25253 16.0676 9.13807 15.9832 9.05368C15.8988 8.96929 15.7844 8.92188 15.665 8.92188H11.895C11.7757 8.92188 11.6612 8.96929 11.5768 9.05368C11.4924 9.13807 11.445 9.25253 11.445 9.37187V12.0669H10C9.88067 12.0669 9.76621 12.1143 9.68182 12.1987C9.59743 12.2831 9.55002 12.3975 9.55002 12.5169V15.6619C9.55002 15.7812 9.59743 15.8957 9.68182 15.9801C9.76621 16.0645 9.88067 16.1119 10 16.1119H17.55C17.6694 16.1119 17.7838 16.0645 17.8682 15.9801C17.9526 15.8957 18 15.7812 18 15.6619V12.5119C17.9987 12.3934 17.9507 12.2802 17.8665 12.1969C17.7822 12.1136 17.6685 12.0669 17.55 12.0669ZM12.345 9.82187H15.215V12.0669H12.345V9.82187ZM10.46 12.9669H13.33V15.2169H10.46V12.9669ZM17.1 15.2169H14.23V12.9669H17.1V15.2169Z" fill="white"/>
</svg>
