<svg width="21" height="15" viewBox="0 0 21 15" fill="none" xmlns="http://www.w3.org/2000/svg">
<path d="M20.1934 6.44202L17.2239 3.72598C17.1514 3.65355 17.079 3.61733 16.9704 3.61733H13.6749C13.53 3.61733 13.4214 3.65355 13.3128 3.68976V1.80663C13.3128 1.191 12.842 0.720215 12.2263 0.720215H2.08642C1.47078 0.720215 1 1.191 1 1.80663V7.60087C1 7.89058 1.10864 8.14408 1.28971 8.32515C1.10864 8.50622 1 8.75972 1 9.04943V11.2223C1 11.8379 1.47078 12.3087 2.08642 12.3087H3.17284C3.17284 13.5038 4.15062 14.4815 5.34568 14.4815C6.54074 14.4815 7.51852 13.5038 7.51852 12.3087H12.2263C12.516 12.3087 12.7695 12.2 12.9506 12.019C13.1317 12.2 13.3852 12.3087 13.6749 12.3087H14.037C14.037 13.5038 15.0148 14.4815 16.2099 14.4815C17.4049 14.4815 18.3827 13.5038 18.3827 12.3087H19.4691C20.0848 12.3087 20.5556 11.8379 20.5556 11.2223V7.23873C20.5556 6.94902 20.4107 6.65931 20.1934 6.44202ZM1.72428 1.80663C1.72428 1.58935 1.86914 1.44449 2.08642 1.44449H12.2263C12.4436 1.44449 12.5885 1.58935 12.5885 1.80663V4.70375V7.60087C12.5885 7.81816 12.4436 7.96301 12.2263 7.96301H2.08642C1.86914 7.96301 1.72428 7.81816 1.72428 7.60087V1.80663ZM5.34568 13.7573C4.54897 13.7573 3.89712 13.1054 3.89712 12.3087C3.89712 11.512 4.54897 10.8601 5.34568 10.8601C6.14239 10.8601 6.79424 11.512 6.79424 12.3087C6.79424 13.1054 6.14239 13.7573 5.34568 13.7573ZM12.2263 11.5844H7.37366C7.08395 10.7515 6.28724 10.1359 5.34568 10.1359C4.40412 10.1359 3.60741 10.7515 3.3177 11.5844H2.08642C1.86914 11.5844 1.72428 11.4396 1.72428 11.2223V9.04943C1.72428 8.83215 1.86914 8.68729 2.08642 8.68729H12.2263C12.4436 8.68729 12.5885 8.83215 12.5885 9.04943V11.2223C12.5885 11.4396 12.4436 11.5844 12.2263 11.5844ZM16.2099 13.7573C15.4132 13.7573 14.7613 13.1054 14.7613 12.3087C14.7613 11.512 15.4132 10.8601 16.2099 10.8601C17.0066 10.8601 17.6584 11.512 17.6584 12.3087C17.6584 13.1054 17.0066 13.7573 16.2099 13.7573ZM19.8313 11.2223C19.8313 11.4396 19.6864 11.5844 19.4691 11.5844H18.3103C18.2741 11.5844 18.2741 11.5844 18.2379 11.5844C17.9481 10.7515 17.1514 10.1359 16.1737 10.1359C15.2321 10.1359 14.4354 10.7515 14.1457 11.5844H13.6749C13.4576 11.5844 13.3128 11.4396 13.3128 11.2223V9.04943V7.60087V4.70375C13.3128 4.48647 13.4576 4.34161 13.6749 4.34161H16.8255L19.7226 6.98523C19.7951 7.05766 19.8313 7.1663 19.8313 7.23873V11.2223Z" fill="black"/>
<path d="M13.1631 1.80615C13.1628 1.27367 12.7591 0.870719 12.2266 0.870605H2.08594C1.55354 0.870849 1.15063 1.27376 1.15039 1.80615V7.60107C1.15044 7.85215 1.24353 8.06723 1.39551 8.21924L1.50195 8.32471L1.39551 8.43115C1.24354 8.58318 1.15042 8.79822 1.15039 9.04932V11.2222C1.15039 11.7548 1.55338 12.1584 2.08594 12.1587H3.32324V12.3091C3.32346 13.4211 4.23361 14.3315 5.3457 14.3315C6.45778 14.3315 7.36795 13.4211 7.36816 12.3091V12.1587H12.2266C12.4777 12.1586 12.6927 12.0646 12.8447 11.9126L12.9502 11.8071L13.0566 11.9126C13.2087 12.0646 13.4236 12.1587 13.6748 12.1587H14.1875V12.3091C14.1877 13.4211 15.0979 14.3315 16.21 14.3315C17.322 14.3315 18.2322 13.4211 18.2324 12.3091V12.1587H19.4688C20.0015 12.1587 20.4053 11.755 20.4053 11.2222V7.23877C20.4053 6.99784 20.2831 6.74457 20.0869 6.54834V6.54736L17.123 3.83643L17.1182 3.83252C17.0908 3.8052 17.069 3.79031 17.0498 3.78174C17.0312 3.77349 17.0073 3.76713 16.9707 3.76709H13.6748C13.5568 3.7671 13.4689 3.79634 13.3604 3.83252L13.1631 3.89795V1.80615ZM6.64453 12.3091C6.64453 11.5952 6.05956 11.0103 5.3457 11.0103C4.63184 11.0103 4.04688 11.5952 4.04688 12.3091C4.04709 13.0228 4.63197 13.6069 5.3457 13.6069C6.05943 13.6069 6.64432 13.0228 6.64453 12.3091ZM17.5088 12.3091C17.5088 11.5952 16.9238 11.0103 16.21 11.0103C15.4961 11.0103 14.9111 11.5952 14.9111 12.3091C14.9113 13.0228 15.4962 13.6069 16.21 13.6069C16.9237 13.6069 17.5086 13.0227 17.5088 12.3091ZM5.3457 9.98584C6.3156 9.98585 7.13939 10.5957 7.47656 11.4341H12.2266C12.301 11.434 12.3514 11.4098 12.3828 11.3784C12.4142 11.3469 12.4385 11.2966 12.4385 11.2222V9.04932C12.4385 8.97487 12.4142 8.92451 12.3828 8.89307C12.3514 8.86164 12.301 8.83745 12.2266 8.8374H2.08594C2.01165 8.83751 1.96108 8.86168 1.92969 8.89307C1.89834 8.92452 1.87405 8.97497 1.87402 9.04932V11.2222C1.87402 11.2965 1.89837 11.3469 1.92969 11.3784C1.96108 11.4098 2.01165 11.434 2.08594 11.4341H3.21484C3.55202 10.5957 4.3758 9.98584 5.3457 9.98584ZM13.1631 4.70361C13.1631 4.56094 13.2114 4.43071 13.3066 4.33545C13.4019 4.24019 13.5321 4.19192 13.6748 4.19189H16.8838L16.9268 4.23096L19.8242 6.87451L19.8291 6.87939C19.9313 6.98178 19.9814 7.12935 19.9814 7.23877V11.2222C19.9814 11.3649 19.9332 11.496 19.8379 11.5913C19.7426 11.6865 19.6114 11.7349 19.4688 11.7349H18.1309L18.0957 11.6333C17.8263 10.8594 17.0858 10.2857 16.1738 10.2856C15.2994 10.2856 14.557 10.8578 14.2871 11.6333L14.252 11.7349H13.6748C13.5323 11.7348 13.4019 11.6863 13.3066 11.5913C13.2113 11.496 13.1631 11.3649 13.1631 11.2222V4.70361ZM12.4385 1.80615C12.4384 1.73186 12.4142 1.68129 12.3828 1.6499C12.3514 1.61854 12.3009 1.59429 12.2266 1.59424H2.08594C2.01165 1.59434 1.96108 1.61851 1.92969 1.6499C1.8983 1.68129 1.87413 1.73186 1.87402 1.80615V7.60107C1.87407 7.67541 1.89833 7.72589 1.92969 7.75732C1.96108 7.78871 2.01165 7.81288 2.08594 7.81299H12.2266C12.301 7.81294 12.3514 7.78875 12.3828 7.75732C12.4142 7.72589 12.4384 7.67551 12.4385 7.60107V1.80615ZM6.94434 12.3091C6.94412 13.1884 6.22511 13.9077 5.3457 13.9077C4.46628 13.9077 3.74728 13.1885 3.74707 12.3091C3.74707 11.4295 4.46615 10.7104 5.3457 10.7104C6.22524 10.7105 6.94434 11.4295 6.94434 12.3091ZM17.8086 12.3091C17.8084 13.1884 17.0893 13.9077 16.21 13.9077C15.3305 13.9077 14.6115 13.1885 14.6113 12.3091C14.6113 11.4295 15.3304 10.7104 16.21 10.7104C17.0895 10.7105 17.8086 11.4296 17.8086 12.3091ZM12.7383 11.2222C12.7383 11.3649 12.69 11.496 12.5947 11.5913C12.4995 11.6863 12.369 11.7348 12.2266 11.7349H7.2666L7.23242 11.6333C6.96256 10.8577 6.22016 10.2857 5.3457 10.2856C4.47125 10.2856 3.72885 10.8577 3.45898 11.6333L3.4248 11.7349H2.08594C1.94349 11.7348 1.81294 11.6864 1.71777 11.5913C1.62248 11.496 1.57422 11.3649 1.57422 11.2222V9.04932C1.57424 8.90672 1.62263 8.7764 1.71777 8.68115C1.81296 8.58597 1.9434 8.53771 2.08594 8.5376H12.2266C12.3692 8.53765 12.4995 8.58591 12.5947 8.68115C12.69 8.77641 12.7383 8.90666 12.7383 9.04932V11.2222ZM13.4629 11.2222C13.4629 11.2966 13.4871 11.347 13.5186 11.3784C13.55 11.4099 13.6003 11.4341 13.6748 11.4341H14.043C14.3802 10.5957 15.2039 9.98584 16.1738 9.98584C17.1771 9.98591 18.0032 10.5945 18.3408 11.4341H19.4688C19.5433 11.4341 19.5945 11.4099 19.626 11.3784C19.6573 11.3469 19.6816 11.2964 19.6816 11.2222V7.23877C19.6816 7.22499 19.6774 7.19844 19.665 7.16748C19.6529 7.13722 19.6353 7.11044 19.6162 7.09131H19.6152L16.7676 4.4917H13.6748C13.6003 4.49172 13.55 4.51593 13.5186 4.54736C13.4871 4.5788 13.4629 4.62914 13.4629 4.70361V11.2222ZM12.7383 7.60107C12.7382 7.74372 12.69 7.87399 12.5947 7.96924C12.4995 8.06448 12.3692 8.11274 12.2266 8.11279H2.08594C1.9434 8.11268 1.81296 8.06442 1.71777 7.96924C1.62262 7.874 1.57426 7.74365 1.57422 7.60107V1.80615C1.57433 1.66361 1.62259 1.53317 1.71777 1.43799C1.81296 1.3428 1.9434 1.29454 2.08594 1.29443H12.2266C12.3691 1.29448 12.4995 1.34283 12.5947 1.43799C12.6899 1.53317 12.7382 1.66361 12.7383 1.80615V7.60107ZM13.4629 3.49072C13.526 3.47716 13.5959 3.46729 13.6748 3.46729H16.9707C17.0424 3.46732 17.1091 3.47943 17.1719 3.50732C17.234 3.53496 17.2851 3.57463 17.3301 3.61963H17.3291L20.2949 6.33154L20.2998 6.33545V6.33643C20.5379 6.57473 20.7051 6.90046 20.7051 7.23877V11.2222C20.7051 11.9206 20.1672 12.4585 19.4688 12.4585H18.5254C18.4475 13.6672 17.4375 14.6313 16.21 14.6313C14.9824 14.6313 13.9724 13.6672 13.8945 12.4585H13.6748C13.3983 12.4585 13.148 12.3705 12.9502 12.2173C12.7526 12.3702 12.5027 12.4584 12.2266 12.4585H7.66113C7.58322 13.6672 6.57323 14.6313 5.3457 14.6313C4.11817 14.6313 3.10819 13.6672 3.03027 12.4585H2.08594C1.38769 12.4582 0.849609 11.9205 0.849609 11.2222V9.04932C0.849634 8.77299 0.937745 8.52242 1.09082 8.32471C0.938028 8.12711 0.849652 7.87711 0.849609 7.60107V1.80615C0.849857 1.10807 1.38785 0.570072 2.08594 0.569824H12.2266C12.9248 0.56994 13.4626 1.10798 13.4629 1.80615V3.49072Z" fill="black"/>
</svg>
