<svg width="6" height="10" viewBox="0 0 6 10" fill="none" xmlns="http://www.w3.org/2000/svg">
<g clip-path="url(#clip0_444_2)">
<path d="M4.51963 4.99895L0.452144 8.99895C0.411155 9.03749 0.379749 9.08509 0.360429 9.13795C0.341109 9.19081 0.334427 9.24748 0.340899 9.3034C0.347371 9.35931 0.366817 9.41293 0.3977 9.45997C0.428584 9.50701 0.470036 9.54618 0.518741 9.57431C0.624957 9.64437 0.751357 9.67726 0.878205 9.66786C1.00505 9.65845 1.12522 9.60727 1.21997 9.52231L5.55048 5.25831C5.58705 5.22519 5.61628 5.18475 5.63628 5.13962C5.65629 5.09449 5.66663 5.04568 5.66663 4.99631C5.66663 4.94694 5.65629 4.89812 5.63628 4.853C5.61628 4.80787 5.58705 4.76743 5.55048 4.73431L1.21198 0.478324C1.10842 0.381604 0.971339 0.328985 0.829736 0.331636C0.716251 0.330563 0.605079 0.363792 0.510754 0.426973C0.462261 0.455414 0.42111 0.49484 0.390588 0.542085C0.360066 0.58933 0.341027 0.643086 0.335006 0.699027C0.328984 0.754968 0.33613 0.811518 0.355897 0.864188C0.375664 0.916858 0.407505 0.964158 0.448832 1.00229L4.51963 4.99895Z" fill="#333333"/>
<path d="M0.82978 0.000113388C1.05884 -0.00237231 1.27982 0.0846961 1.44575 0.242789L5.78361 4.49812C5.85174 4.56232 5.90603 4.63979 5.94314 4.72578C5.98025 4.81177 5.99939 4.90445 5.99939 4.99812C5.99939 5.09179 5.98025 5.18447 5.94314 5.27046C5.90603 5.35644 5.85174 5.43392 5.78361 5.49812L1.44976 9.75744C1.2836 9.9151 1.06269 10.0019 0.833763 9.99946C0.653229 10.0009 0.476524 9.94739 0.327002 9.8461C0.237271 9.78667 0.161905 9.70797 0.106381 9.61571C0.050857 9.52345 0.0165758 9.41997 0.00602854 9.31277C-0.00204412 9.20982 0.012822 9.10638 0.0495593 9.00988C0.0862965 8.91338 0.143988 8.82625 0.218459 8.75479L4.04353 4.99547L0.215126 1.2388C0.140362 1.16736 0.082404 1.08017 0.0454338 0.983552C0.00846363 0.886931 -0.00660312 0.783287 0.00135437 0.680126C0.0122094 0.573551 0.0465769 0.470718 0.101971 0.37906C0.157365 0.287403 0.232415 0.209221 0.321677 0.150138C0.471902 0.0496482 0.649127 -0.00269604 0.82978 0.000113388ZM0.834433 9.33345C0.888788 9.3354 0.941937 9.31714 0.9836 9.28214L5.31745 5.02278C5.32199 5.02071 5.32585 5.01737 5.32854 5.01317C5.33124 5.00898 5.33267 5.00413 5.33267 4.99914C5.33267 4.99415 5.33124 4.98925 5.32854 4.98506C5.32585 4.98086 5.32199 4.97752 5.31745 4.97545L0.978947 0.718782C0.937379 0.68361 0.884163 0.66532 0.82978 0.667472C0.782689 0.665814 0.736209 0.678603 0.696586 0.704133C0.669949 0.7228 0.662627 0.738789 0.662627 0.742789C0.662627 0.746789 0.665968 0.754781 0.678621 0.767447L4.99182 5.00011L0.682604 9.23546C0.669952 9.24746 0.666631 9.2568 0.666631 9.25947C0.666631 9.26214 0.673953 9.28013 0.70059 9.29813C0.740669 9.32305 0.78729 9.33534 0.834433 9.33345Z" fill="#333333"/>
</g>
<defs>
<clipPath id="clip0_444_2">
<rect width="6" height="10" fill="white"/>
</clipPath>
</defs>
</svg>
