<svg width="18" height="18" viewBox="0 0 18 18" fill="none" xmlns="http://www.w3.org/2000/svg">
<path d="M8.25 14.25C11.5637 14.25 14.25 11.5637 14.25 8.25C14.25 4.93629 11.5637 2.25 8.25 2.25C4.93629 2.25 2.25 4.93629 2.25 8.25C2.25 11.5637 4.93629 14.25 8.25 14.25Z" stroke="black" stroke-linecap="round" stroke-linejoin="round"/>
<path d="M15 15L13 13" stroke="black" stroke-linecap="round" stroke-linejoin="round"/>
<path d="M10.925 7.8501C11.1045 7.85012 11.25 7.99557 11.25 8.17505C11.25 8.3545 11.1045 8.49997 10.925 8.5H5.57495C5.3955 8.49997 5.25003 8.3545 5.25 8.17505C5.25 7.99557 5.39548 7.85012 5.57495 7.8501H10.925Z" fill="black" stroke="black" stroke-width="0.3" stroke-linecap="round"/>
<path d="M8.6499 10.925C8.64988 11.1045 8.50443 11.25 8.32495 11.25C8.1455 11.25 8.00003 11.1045 8 10.925L8 5.57495C8.00003 5.3955 8.1455 5.25003 8.32495 5.25C8.50443 5.25 8.64988 5.39548 8.6499 5.57495L8.6499 10.925Z" fill="black" stroke="black" stroke-width="0.3" stroke-linecap="round"/>
</svg>
