<svg width="15" height="18" viewBox="0 0 15 18" fill="none" xmlns="http://www.w3.org/2000/svg">
<g clip-path="url(#clip0_404_48)">
<path d="M14.246 7.017C14.0592 6.57628 13.8309 6.15437 13.564 5.757L12.129 6.726C12.5524 7.35326 12.8461 8.05881 12.9929 8.80119C13.1397 9.54357 13.1367 10.3078 12.984 11.049C12.909 11.4145 12.7978 11.7716 12.652 12.115C12.5102 12.4524 12.3354 12.775 12.13 13.078C11.2982 14.3089 10.0187 15.1665 8.564 15.468C7.80785 15.6195 7.02915 15.6195 6.273 15.468C5.18426 15.2445 4.18502 14.7064 3.39902 13.9206C2.61302 13.1348 2.07479 12.1357 1.851 11.047C1.62249 9.92011 1.7378 8.75056 2.182 7.69C2.46672 7.01556 2.87931 6.40262 3.397 5.885C3.9157 5.36741 4.52875 4.95396 5.203 4.667C5.54495 4.52213 5.90033 4.41126 6.264 4.336C6.357 4.317 6.451 4.308 6.545 4.294V6.926L10.874 3.463L6.549 0V2.544C6.33833 2.56733 6.129 2.60067 5.921 2.644C4.61042 2.91392 3.39732 3.5335 2.41035 4.43702C1.42338 5.34054 0.699334 6.49433 0.314989 7.77603C-0.0693553 9.05772 -0.0996663 10.4195 0.227271 11.7171C0.554208 13.0146 1.2262 14.1995 2.172 15.146C3.03107 16.005 4.08806 16.6397 5.25 16.9943C6.41194 17.349 7.64322 17.4126 8.83554 17.1797C10.0279 16.9469 11.1447 16.4245 12.0878 15.6587C13.0308 14.8929 13.7713 13.9071 14.244 12.788C14.4343 12.3396 14.5794 11.8733 14.677 11.396C14.979 9.92656 14.8284 8.40008 14.245 7.018L14.246 7.017Z" fill="#045357"/>
</g>
<defs>
<clipPath id="clip0_404_48">
<rect width="14.829" height="17.318" fill="white"/>
</clipPath>
</defs>
</svg>
