<svg width="22" height="22" viewBox="0 0 22 22" fill="none" xmlns="http://www.w3.org/2000/svg">
<path d="M16.7256 5.4668C17.1122 5.46681 17.4258 5.7804 17.4258 6.16699V19C17.4258 19.3866 17.1122 19.7002 16.7256 19.7002H4.69049C4.30389 19.7002 3.9903 19.3866 3.9903 19V6.16699C3.9903 5.78039 4.30389 5.4668 4.69049 5.4668H16.7256ZM5.39069 18.2998H16.0255V6.86719H5.39069V18.2998Z" fill="white"/>
<path d="M18 5.4668C18.3866 5.4668 18.7002 5.7804 18.7002 6.16699C18.7002 6.55359 18.3866 6.86718 18 6.86719H3.41699C3.03039 6.86719 2.7168 6.55359 2.7168 6.16699C2.7168 5.78039 3.03039 5.4668 3.41699 5.4668H18Z" fill="white"/>
<path d="M13.2324 6.16699V4.11719H8.18555V6.16699C8.18555 6.55359 7.87195 6.86719 7.48535 6.86719C7.09875 6.86719 6.78516 6.55359 6.78516 6.16699V3.41699C6.78516 3.03039 7.09875 2.7168 7.48535 2.7168H13.9326C14.3191 2.71689 14.6328 3.03045 14.6328 3.41699V6.16699C14.6328 6.55354 14.3191 6.8671 13.9326 6.86719C13.546 6.86719 13.2324 6.55359 13.2324 6.16699Z" fill="white"/>
<path d="M8.00793 15.4736V9.47363C8.00793 9.08703 8.32153 8.77344 8.70813 8.77344C9.09473 8.77344 9.40833 9.08703 9.40833 9.47363V15.4736C9.40833 15.8602 9.09473 16.1738 8.70813 16.1738C8.32153 16.1738 8.00793 15.8602 8.00793 15.4736Z" fill="white"/>
<path d="M12.0079 15.4736V9.47363C12.0079 9.08703 12.3215 8.77344 12.7081 8.77344C13.0947 8.77344 13.4083 9.08703 13.4083 9.47363V15.4736C13.4083 15.8602 13.0947 16.1738 12.7081 16.1738C12.3215 16.1738 12.0079 15.8602 12.0079 15.4736Z" fill="white"/>
</svg>
