<svg width="16" height="12" viewBox="0 0 16 12" fill="none" xmlns="http://www.w3.org/2000/svg">
<mask id="mask0_501_28" style="mask-type:alpha" maskUnits="userSpaceOnUse" x="0" y="0" width="16" height="12">
<rect width="16" height="12" fill="#D9D9D9"/>
</mask>
<g mask="url(#mask0_501_28)">
<path d="M15.2727 1.45419C15.2727 1.73333 15.1713 2.0126 14.9684 2.22533L6.65668 10.9526C6.45457 11.1667 6.18833 11.2724 5.9221 11.2724C5.65587 11.2724 5.39028 11.1658 5.18768 10.9528L1.03184 6.58913C0.828918 6.37692 0.727295 6.09737 0.727295 5.81783C0.727295 5.19465 1.21268 4.72692 1.76626 4.72692C2.0321 4.72692 2.29807 4.83345 2.50067 5.04652L5.9221 8.64055L13.5 0.683736C13.7013 0.469986 13.9676 0.363281 14.2338 0.363281C14.789 0.363281 15.2727 0.830327 15.2727 1.45419Z" fill="black"/>
</g>
</svg>
