<svg width="18" height="14" viewBox="0 0 20 15" fill="none" xmlns="http://www.w3.org/2000/svg">
<mask id="mask0_500_20" style="mask-type:alpha" maskUnits="userSpaceOnUse" x="0" y="0" width="20" height="15">
<rect width="20" height="15" fill="#D9D9D9"/>
</mask>
<g mask="url(#mask0_500_20)">
<path d="M19 2.3C19 2.63264 18.8744 2.96544 18.6233 3.21894L8.33761 13.6189C8.0875 13.8741 7.75804 14 7.42857 14C7.09911 14 6.77045 13.873 6.51973 13.6191L1.37688 8.41914C1.12576 8.16625 1 7.83312 1 7.5C1 6.75737 1.60067 6.2 2.28571 6.2C2.6147 6.2 2.94384 6.32695 3.19455 6.58086L7.42857 10.8637L16.8062 1.38188C17.0554 1.12716 17.3848 1 17.7143 1C18.4013 1 19 1.55656 19 2.3Z" fill="white"/>
</g>
</svg>
