<svg width="22" height="20" viewBox="0 0 22 20" fill="none" xmlns="http://www.w3.org/2000/svg">
<mask id="mask0_530_167" style="mask-type:alpha" maskUnits="userSpaceOnUse" x="0" y="0" width="22" height="20">
<rect width="22" height="20" fill="#D9D9D9"/>
</mask>
<g mask="url(#mask0_530_167)">
<path d="M12.1379 18C13.6929 18 15.2129 17.5308 16.5059 16.6518C17.7988 15.7727 18.8065 14.5233 19.4015 13.0615C19.9966 11.5997 20.1523 9.99113 19.8489 8.43928C19.5456 6.88743 18.7968 5.46197 17.6973 4.34315C16.5977 3.22433 15.1968 2.4624 13.6717 2.15372C12.1467 1.84504 10.5659 2.00347 9.12925 2.60897C7.69264 3.21447 6.46475 4.23985 5.60086 5.55544C4.73696 6.87103 4.27586 8.41775 4.27586 10V14.1333L1.91724 11.7333L1 12.6667L4.93103 16.6667L8.86207 12.6667L7.94483 11.7333L5.58621 14.1333V10C5.58621 8.68146 5.97046 7.39253 6.69037 6.2962C7.41028 5.19987 8.43352 4.34539 9.63069 3.84081C10.8279 3.33622 12.1452 3.2042 13.4161 3.46143C14.687 3.71867 15.8544 4.35361 16.7707 5.28596C17.687 6.21831 18.311 7.40619 18.5638 8.6994C18.8166 9.99261 18.6868 11.333 18.1909 12.5512C17.695 13.7694 16.8553 14.8106 15.7779 15.5431C14.7004 16.2757 13.4337 16.6667 12.1379 16.6667V18Z" fill="black" stroke="black" stroke-width="0.5"/>
</g>
</svg>
