<svg width="22" height="22" viewBox="0 0 22 22" fill="none" xmlns="http://www.w3.org/2000/svg">
<g clip-path="url(#clip0_397_28)">
<path d="M10.7961 3.5787C9.53214 3.44585 8.25719 3.69079 7.13245 4.28255C6.00771 4.8743 5.0837 5.78629 4.47728 6.90319C3.87085 8.02008 3.60924 9.29173 3.72553 10.5573C3.84182 11.8229 4.33079 13.0256 5.1306 14.0132C5.93041 15.0009 7.00514 15.7293 8.21888 16.1061C9.43263 16.483 10.7309 16.4915 11.9494 16.1305C13.168 15.7696 14.2522 15.0554 15.0649 14.0783C15.8775 13.1011 16.3822 11.905 16.515 10.641C16.6912 8.9465 16.188 7.25131 15.1159 5.92733C14.0437 4.60335 12.4902 3.75871 10.7961 3.5787ZM10.9877 1.75541C12.6123 1.92616 14.1497 2.57481 15.4056 3.61934C16.6616 4.66387 17.5795 6.05736 18.0435 7.6236C18.5074 9.18984 18.4965 10.8585 18.0121 12.4185C17.5277 13.9786 16.5915 15.3599 15.3221 16.3879C14.0526 17.4159 12.5068 18.0444 10.8801 18.1939C9.25348 18.3433 7.61903 18.0071 6.18347 17.2276C4.74792 16.4482 3.57573 15.2606 2.81515 13.8149C2.05456 12.3693 1.73974 10.7306 1.91049 9.10601C2.13945 6.92754 3.22443 4.92926 4.92675 3.55075C6.62906 2.17225 8.80926 1.52644 10.9877 1.75541Z" fill="black"/>
<path d="M19.4821 20.0681C19.2631 20.0565 19.0554 19.9668 18.8969 19.8153L15.1381 16.222C14.9624 16.054 14.8606 15.8231 14.8551 15.5801C14.8496 15.3371 14.9408 15.1019 15.1087 14.9261C15.2767 14.7504 15.5076 14.6486 15.7506 14.6431C15.9936 14.6376 16.2288 14.7289 16.4046 14.8968L20.1679 18.4903C20.3034 18.6199 20.396 18.7879 20.433 18.9717C20.4701 19.1556 20.4499 19.3463 20.3752 19.5183C20.3004 19.6903 20.1747 19.8352 20.015 19.9335C19.8553 20.0318 19.6693 20.0788 19.4821 20.0681Z" fill="black"/>
</g>
<defs>
<clipPath id="clip0_397_28">
<rect width="22" height="22" fill="white"/>
</clipPath>
</defs>
</svg>
