<svg width="20" height="20" viewBox="0 0 20 20" fill="none" xmlns="http://www.w3.org/2000/svg">
<rect width="20" height="20" rx="4" fill="#AAAAAA"/>
<path d="M9.57353 14.3971C12.2375 14.3971 14.3971 12.2375 14.3971 9.57353C14.3971 6.90957 12.2375 4.75 9.57353 4.75C6.90957 4.75 4.75 6.90957 4.75 9.57353C4.75 12.2375 6.90957 14.3971 9.57353 14.3971Z" stroke="white" stroke-linecap="round" stroke-linejoin="round"/>
<path d="M15 15L13.3922 13.3922" stroke="white" stroke-linecap="round" stroke-linejoin="round"/>
<path d="M11.7241 9.25204C11.8683 9.25207 11.9853 9.369 11.9853 9.51328C11.9853 9.65755 11.8683 9.77449 11.7241 9.77452H7.42301C7.27874 9.77449 7.16179 9.65755 7.16177 9.51328C7.16177 9.369 7.27873 9.25207 7.42301 9.25204H11.7241Z" fill="white" stroke="white" stroke-width="0.3" stroke-linecap="round"/>
<path d="M9.89502 11.7241C9.895 11.8683 9.77807 11.9853 9.63378 11.9853C9.48952 11.9853 9.37257 11.8683 9.37255 11.7241L9.37255 7.42301C9.37257 7.27874 9.48952 7.16179 9.63378 7.16177C9.77807 7.16177 9.895 7.27873 9.89502 7.42301L9.89502 11.7241Z" fill="white" stroke="white" stroke-width="0.3" stroke-linecap="round"/>
</svg>
