<svg width="20" height="20" viewBox="0 0 20 20" fill="none" xmlns="http://www.w3.org/2000/svg">
<g clip-path="url(#clip0_534_197)">
<path d="M1.25001 19.3748C1.16181 19.3753 1.0745 19.3572 0.993818 19.3216C0.913132 19.2859 0.840899 19.2336 0.781865 19.1681C0.722832 19.1026 0.678335 19.0253 0.651301 18.9414C0.624267 18.8574 0.615307 18.7687 0.62501 18.681L1.18751 13.5748C1.20327 13.4327 1.26724 13.3004 1.36876 13.1998L13.2938 1.28103C13.5005 1.07297 13.7464 0.907857 14.0173 0.795186C14.2881 0.682516 14.5785 0.624512 14.8719 0.624512C15.1652 0.624512 15.4557 0.682516 15.7265 0.795186C15.9973 0.907857 16.2432 1.07297 16.45 1.28103L18.75 3.54978C18.9581 3.75656 19.1232 4.00245 19.2358 4.27328C19.3485 4.54412 19.4065 4.83456 19.4065 5.1279C19.4065 5.42124 19.3485 5.71168 19.2358 5.98252C19.1232 6.25336 18.9581 6.49924 18.75 6.70603L6.80001 18.6248C6.69941 18.7263 6.56706 18.7903 6.42501 18.806L1.31876 19.3748H1.25001ZM2.41251 13.9248L1.95626 18.0435L6.07501 17.5873L17.8375 5.81853C18.02 5.63371 18.1223 5.38447 18.1223 5.12478C18.1223 4.86508 18.02 4.61584 17.8375 4.43103L15.5688 2.16228C15.3839 1.97983 15.1347 1.87753 14.875 1.87753C14.6153 1.87753 14.3661 1.97983 14.1813 2.16228L2.41251 13.9248Z" fill="white"/>
<path d="M16.575 8.58721C16.411 8.58652 16.2539 8.52143 16.1375 8.40596L11.5937 3.86221C11.4768 3.74204 11.4125 3.58036 11.4149 3.41275C11.4172 3.24514 11.486 3.08533 11.6062 2.96846C11.7264 2.8516 11.8881 2.78727 12.0557 2.78961C12.2233 2.79196 12.3831 2.86079 12.5 2.98096L17.0187 7.49971C17.1351 7.61682 17.2005 7.77522 17.2005 7.94034C17.2005 8.10546 17.1351 8.26386 17.0187 8.38096C16.9624 8.44342 16.8941 8.49388 16.8179 8.52932C16.7416 8.56476 16.659 8.58445 16.575 8.58721Z" fill="white"/>
</g>
<defs>
<clipPath id="clip0_534_197">
<rect width="20" height="20" fill="white"/>
</clipPath>
</defs>
</svg>
