<svg width="22" height="22" viewBox="0 0 22 22" fill="none" xmlns="http://www.w3.org/2000/svg">
<path d="M16.7256 5.4668C17.1122 5.46681 17.4258 5.7804 17.4258 6.16699V19C17.4258 19.3866 17.1122 19.7002 16.7256 19.7002H4.69049C4.30389 19.7002 3.9903 19.3866 3.9903 19V6.16699C3.9903 5.78039 4.30389 5.4668 4.69049 5.4668H16.7256ZM5.39069 18.2998H16.0255V6.86719H5.39069V18.2998Z" fill="black"/>
<path d="M17.3262 6.16699C17.3262 5.87711 17.1201 5.63516 16.8467 5.5791L16.7256 5.56641H4.69049C4.35912 5.56641 4.0899 5.83562 4.0899 6.16699V19C4.0899 19.3314 4.35912 19.6006 4.69049 19.6006H16.7256L16.8467 19.5879C17.1201 19.5318 17.3262 19.2899 17.3262 19V6.16699ZM16.0255 6.76758C16.0807 6.76758 16.1251 6.81196 16.1251 6.86719V18.2998C16.1251 18.355 16.0807 18.3994 16.0255 18.3994H5.39069C5.33546 18.3994 5.29108 18.355 5.29108 18.2998V6.86719C5.29108 6.81196 5.33546 6.76758 5.39069 6.76758H16.0255ZM5.4903 18.2002H15.9258V6.9668H5.4903V18.2002ZM17.5255 19C17.5255 19.4418 17.1675 19.7998 16.7256 19.7998H4.69049C4.24866 19.7998 3.89069 19.4418 3.89069 19V6.16699C3.89069 5.72516 4.24866 5.36719 4.69049 5.36719H16.7256C17.1675 5.3672 17.5255 5.72517 17.5255 6.16699V19Z" fill="black"/>
<path d="M18 5.4668C18.3866 5.4668 18.7002 5.7804 18.7002 6.16699C18.7002 6.55359 18.3866 6.86718 18 6.86719H3.41699C3.03039 6.86719 2.7168 6.55359 2.7168 6.16699C2.7168 5.78039 3.03039 5.4668 3.41699 5.4668H18Z" fill="black"/>
<path d="M18.6006 6.16699C18.6006 5.87711 18.3945 5.63516 18.1211 5.5791L18 5.56641H3.41699C3.08562 5.56641 2.81641 5.83562 2.81641 6.16699C2.81641 6.49836 3.08562 6.76758 3.41699 6.76758H18L18.1211 6.75488C18.3945 6.69883 18.6006 6.45688 18.6006 6.16699ZM18.7998 6.16699C18.7998 6.60882 18.4418 6.96679 18 6.9668H3.41699C2.97516 6.9668 2.61719 6.60882 2.61719 6.16699C2.61719 5.72516 2.97516 5.36719 3.41699 5.36719H18C18.4418 5.36719 18.7998 5.72517 18.7998 6.16699Z" fill="black"/>
<path d="M13.2324 6.16699V4.11719H8.18555V6.16699C8.18555 6.55359 7.87195 6.86719 7.48535 6.86719C7.09875 6.86719 6.78516 6.55359 6.78516 6.16699V3.41699C6.78516 3.03039 7.09875 2.7168 7.48535 2.7168H13.9326C14.3191 2.71689 14.6328 3.03045 14.6328 3.41699V6.16699C14.6328 6.55354 14.3191 6.8671 13.9326 6.86719C13.546 6.86719 13.2324 6.55359 13.2324 6.16699Z" fill="black"/>
<path d="M14.5332 3.41699C14.5332 3.12719 14.327 2.88522 14.0537 2.8291L13.9326 2.81641H7.48535C7.15398 2.81641 6.88477 3.08562 6.88477 3.41699V6.16699C6.88477 6.49836 7.15398 6.76758 7.48535 6.76758C7.81672 6.76758 8.08594 6.49836 8.08594 6.16699V4.11719C8.08594 4.06196 8.13032 4.01758 8.18555 4.01758H13.2324C13.2877 4.01758 13.332 4.06196 13.332 4.11719V6.16699C13.332 6.49836 13.6012 6.76758 13.9326 6.76758L14.0537 6.75488C14.327 6.69877 14.5332 6.4568 14.5332 6.16699V3.41699ZM14.7324 6.16699C14.7324 6.60879 14.3743 6.96669 13.9326 6.9668C13.4908 6.9668 13.1328 6.60882 13.1328 6.16699V4.2168H8.28516V6.16699C8.28516 6.60882 7.92718 6.9668 7.48535 6.9668C7.04352 6.9668 6.68555 6.60882 6.68555 6.16699V3.41699C6.68555 2.97516 7.04352 2.61719 7.48535 2.61719H13.9326C14.3743 2.61729 14.7324 2.9752 14.7324 3.41699V6.16699Z" fill="black"/>
<path d="M8.00793 15.4736V9.47363C8.00793 9.08703 8.32153 8.77344 8.70813 8.77344C9.09473 8.77344 9.40833 9.08703 9.40833 9.47363V15.4736C9.40833 15.8602 9.09473 16.1738 8.70813 16.1738C8.32153 16.1738 8.00793 15.8602 8.00793 15.4736Z" fill="black"/>
<path d="M9.30872 9.47363C9.30872 9.14226 9.0395 8.87305 8.70813 8.87305C8.37676 8.87305 8.10754 9.14226 8.10754 9.47363V15.4736C8.10754 15.805 8.37676 16.0742 8.70813 16.0742C9.0395 16.0742 9.30872 15.805 9.30872 15.4736V9.47363ZM9.50793 15.4736C9.50793 15.9155 9.14996 16.2734 8.70813 16.2734C8.2663 16.2734 7.90833 15.9155 7.90833 15.4736V9.47363C7.90833 9.03181 8.2663 8.67383 8.70813 8.67383C9.14996 8.67383 9.50793 9.03181 9.50793 9.47363V15.4736Z" fill="black"/>
<path d="M12.0079 15.4736V9.47363C12.0079 9.08703 12.3215 8.77344 12.7081 8.77344C13.0947 8.77344 13.4083 9.08703 13.4083 9.47363V15.4736C13.4083 15.8602 13.0947 16.1738 12.7081 16.1738C12.3215 16.1738 12.0079 15.8602 12.0079 15.4736Z" fill="black"/>
<path d="M13.3087 9.47363C13.3087 9.14226 13.0395 8.87305 12.7081 8.87305C12.3768 8.87305 12.1075 9.14226 12.1075 9.47363V15.4736C12.1075 15.805 12.3768 16.0742 12.7081 16.0742C13.0395 16.0742 13.3087 15.805 13.3087 15.4736V9.47363ZM13.5079 15.4736C13.5079 15.9155 13.15 16.2734 12.7081 16.2734C12.2663 16.2734 11.9083 15.9155 11.9083 15.4736V9.47363C11.9083 9.03181 12.2663 8.67383 12.7081 8.67383C13.15 8.67383 13.5079 9.03181 13.5079 9.47363V15.4736Z" fill="black"/>
</svg>
