<svg width="32" height="32" viewBox="0 0 32 32" fill="none" xmlns="http://www.w3.org/2000/svg">
<path d="M17.459 16.014L25.698 7.81998C26.093 7.42898 26.093 6.79598 25.698 6.40598C25.304 6.01498 24.664 6.01498 24.27 6.40598L16.038 14.593L7.73 6.28398C7.336 5.88898 6.696 5.88898 6.302 6.28398C5.908 6.67998 5.908 7.32098 6.302 7.71598L14.604 16.019L6.272 24.305C5.878 24.696 5.878 25.329 6.272 25.719C6.666 26.11 7.306 26.11 7.7 25.719L16.025 17.44L24.3 25.716C24.694 26.111 25.334 26.111 25.728 25.716C26.122 25.32 26.122 24.679 25.728 24.284L17.459 16.014Z" fill="black"/>
</svg>
