<svg width="20" height="16" viewBox="0 0 20 16" fill="none" xmlns="http://www.w3.org/2000/svg">
<path d="M10.625 0.949219C11.0958 0.949219 11.547 1.13685 11.8799 1.46973C12.2128 1.8026 12.4004 2.25385 12.4004 2.72461V4.07422H16.4248C16.6666 4.074 16.9025 4.15057 17.0986 4.29199C17.2947 4.4334 17.4414 4.63285 17.5176 4.8623L18.5742 8.04395L18.5811 8.06641L18.5977 8.08301L19.5605 9.04492V9.0459C19.7495 9.2338 19.8665 9.48035 19.8936 9.74316L19.9004 9.85645V12.7246C19.9004 13.0296 19.7791 13.3224 19.5635 13.5381C19.3478 13.7538 19.055 13.875 18.75 13.875H17.9609L17.9414 13.9482C17.8033 14.4566 17.5014 14.9056 17.083 15.2256C16.6645 15.5456 16.1519 15.7188 15.625 15.7188C15.0981 15.7187 14.5855 15.5456 14.167 15.2256C13.7486 14.9056 13.4467 14.4566 13.3086 13.9482L13.2891 13.875H9.375C9.23576 13.875 9.10236 13.8192 9.00391 13.7207C8.90545 13.6222 8.84961 13.4888 8.84961 13.3496C8.84961 13.2104 8.90545 13.077 9.00391 12.9785C9.10236 12.8801 9.23576 12.8242 9.375 12.8242H11.3496V2.72461C11.3496 2.53233 11.2737 2.34788 11.1377 2.21191C11.0017 2.07595 10.8173 2 10.625 2H1.875C1.68272 2 1.49827 2.07595 1.3623 2.21191C1.22634 2.34788 1.15039 2.53233 1.15039 2.72461V12.0996C1.15039 12.2919 1.22634 12.4763 1.3623 12.6123C1.49827 12.7483 1.68272 12.8242 1.875 12.8242H2.66504L2.68457 12.75C2.8306 12.1844 3.17767 11.6911 3.66113 11.3633C4.1446 11.0354 4.73106 10.8951 5.31055 10.9688C5.88986 11.0423 6.42247 11.3246 6.80859 11.7627C7.19475 12.201 7.4082 12.7655 7.4082 13.3496C7.4082 13.9338 7.19475 14.4982 6.80859 14.9365C6.42247 15.3746 5.88986 15.6569 5.31055 15.7305C4.73106 15.8041 4.1446 15.6638 3.66113 15.3359C3.17768 15.0081 2.8306 14.5148 2.68457 13.9492L2.66504 13.875H1.875C1.40424 13.875 0.952993 13.6874 0.620117 13.3545C0.287243 13.0216 0.0996094 12.5704 0.0996094 12.0996V2.72461C0.0996095 2.25385 0.287242 1.8026 0.620117 1.46973C0.952993 1.13685 1.40424 0.94922 1.875 0.949219H10.625ZM15.3613 12.0254C15.0998 12.0775 14.8596 12.2061 14.6709 12.3945C14.4822 12.5833 14.3529 12.8242 14.3008 13.0859C14.2487 13.3478 14.2758 13.6195 14.3779 13.8662C14.4801 14.1128 14.6531 14.3234 14.875 14.4717C15.097 14.62 15.358 14.6992 15.625 14.6992C15.983 14.6992 16.3269 14.5579 16.5801 14.3047C16.8333 14.0515 16.9746 13.7077 16.9746 13.3496C16.9746 13.0826 16.8954 12.8216 16.7471 12.5996C16.5987 12.3777 16.3882 12.2047 16.1416 12.1025C15.8949 12.0004 15.6232 11.9733 15.3613 12.0254ZM5 12C4.64196 12 4.29809 12.1414 4.04492 12.3945C3.79175 12.6477 3.65039 12.9916 3.65039 13.3496C3.65039 13.6166 3.72959 13.8776 3.87793 14.0996C4.02625 14.3215 4.2368 14.4945 4.4834 14.5967C4.73008 14.6989 5.0018 14.7259 5.26367 14.6738C5.52545 14.6217 5.76634 14.4934 5.95508 14.3047C6.14382 14.1159 6.2721 13.8751 6.32422 13.6133C6.37631 13.3514 6.34925 13.0797 6.24707 12.833C6.14492 12.5864 5.97191 12.3759 5.75 12.2275C5.52799 12.0792 5.267 12 5 12ZM12.4004 5.125V12.8242H13.2891L13.3086 12.751C13.4467 12.2427 13.7486 11.7936 14.167 11.4736C14.5855 11.1536 15.0981 10.9805 15.625 10.9805C16.1519 10.9805 16.6645 11.1536 17.083 11.4736C17.5014 11.7936 17.8033 12.2427 17.9414 12.751L17.9609 12.8242H18.8496V9.81445L17.9102 8.875H14.375C14.2358 8.875 14.1024 8.81916 14.0039 8.7207C13.9055 8.62225 13.8496 8.48885 13.8496 8.34961V5.125H12.4004ZM14.9004 5.125V7.82422H17.3945L17.3516 7.69336L16.5195 5.19336L16.4971 5.125H14.9004Z" fill="white"/>
</svg>
