<svg width="20" height="16" viewBox="0 0 20 16" fill="none" xmlns="http://www.w3.org/2000/svg">
<path d="M12.3076 0C12.7573 0 13.1888 0.178172 13.5068 0.496094C13.8248 0.814078 14.0038 1.24563 14.0039 1.69531V6.61914C14.0022 6.81135 13.9679 7.00191 13.9023 7.18262L13.8291 7.38379H17.2305C17.6802 7.38379 18.1116 7.56296 18.4297 7.88086C18.7477 8.19888 18.9267 8.63034 18.9268 9.08008V14.0039C18.925 14.1961 18.8908 14.3867 18.8252 14.5674L18.752 14.7686H19.0771C19.2005 14.7686 19.319 14.8181 19.4062 14.9053C19.4934 14.9925 19.542 15.111 19.542 15.2344C19.542 15.3577 19.4935 15.4762 19.4062 15.5635C19.319 15.6507 19.2005 15.6992 19.0771 15.6992H0.615234C0.491865 15.6992 0.37337 15.6507 0.286133 15.5635C0.198897 15.4762 0.15043 15.3577 0.150391 15.2344C0.150391 15.111 0.198955 14.9925 0.286133 14.9053C0.37337 14.818 0.491865 14.7686 0.615234 14.7686H0.94043L0.867188 14.5674C0.817866 14.4315 0.785863 14.2901 0.772461 14.1465L0.765625 14.002V9.08008C0.765705 8.63041 0.943797 8.19886 1.26172 7.88086C1.57981 7.56277 2.01207 7.38379 2.46191 7.38379H5.86328L5.79004 7.18262C5.74074 7.04671 5.7087 6.90527 5.69531 6.76172L5.68848 6.61719V1.69531C5.6886 1.24563 5.86757 0.814077 6.18555 0.496094C6.50361 0.178194 6.93506 3.72368e-06 7.38477 0H12.3076ZM2.46191 8.31543C2.25893 8.31543 2.06346 8.39553 1.91992 8.53906C1.77655 8.68251 1.69637 8.87727 1.69629 9.08008V14.0039C1.69641 14.2067 1.77654 14.4015 1.91992 14.5449C2.06346 14.6885 2.25893 14.7686 2.46191 14.7686H7.38477C7.58763 14.7685 7.78229 14.6883 7.92578 14.5449C8.06921 14.4015 8.15027 14.2067 8.15039 14.0039V9.08008C8.15031 8.87719 8.06925 8.68253 7.92578 8.53906C7.78229 8.39561 7.58767 8.31547 7.38477 8.31543H2.46191ZM8.97949 8.5166C9.02876 8.65246 9.05986 8.794 9.07324 8.9375L9.08105 9.08203V14.0039C9.07935 14.1961 9.04504 14.3867 8.97949 14.5674L8.90625 14.7686H10.7861L10.7129 14.5674C10.6472 14.3862 10.6129 14.1947 10.6113 14.002V9.08203C10.6129 8.88933 10.6472 8.69776 10.7129 8.5166L10.7861 8.31543H8.90625L8.97949 8.5166ZM12.3076 8.31543C12.1047 8.31545 11.9101 8.39562 11.7666 8.53906C11.6231 8.68253 11.5421 8.8772 11.542 9.08008V14.0039C11.5421 14.2067 11.6232 14.4015 11.7666 14.5449C11.9101 14.6883 12.1047 14.7685 12.3076 14.7686H17.2305C17.4335 14.7686 17.6289 14.6885 17.7725 14.5449C17.9158 14.4015 17.996 14.2067 17.9961 14.0039V9.08008C17.996 8.87728 17.9158 8.68251 17.7725 8.53906C17.6289 8.39553 17.4335 8.31543 17.2305 8.31543H12.3076ZM7.38477 0.930664C7.18192 0.930668 6.98726 1.01095 6.84375 1.1543C6.70032 1.29773 6.61926 1.49249 6.61914 1.69531V6.61914C6.61922 6.82202 6.70029 7.01669 6.84375 7.16016C6.98726 7.30355 7.18188 7.38379 7.38477 7.38379H12.3076C12.5105 7.38379 12.7051 7.30357 12.8486 7.16016C12.9921 7.01669 13.0732 6.82202 13.0732 6.61914V1.69531C13.0731 1.49248 12.9921 1.29773 12.8486 1.1543C12.7051 1.01093 12.5105 0.930664 12.3076 0.930664H7.38477Z" fill="white"/>
<path d="M4.3077 13.2572H3.69232C3.52911 13.2572 3.37258 13.1993 3.25718 13.0961C3.14177 12.993 3.07693 12.8531 3.07693 12.7072C3.07693 12.5614 3.14177 12.4215 3.25718 12.3183C3.37258 12.2152 3.52911 12.1572 3.69232 12.1572H4.3077C4.47091 12.1572 4.62744 12.2152 4.74285 12.3183C4.85825 12.4215 4.92309 12.5614 4.92309 12.7072C4.92309 12.8531 4.85825 12.993 4.74285 13.0961C4.62744 13.1993 4.47091 13.2572 4.3077 13.2572Z" fill="white"/>
<path d="M14.1539 13.2572H13.5385C13.3753 13.2572 13.2187 13.1993 13.1033 13.0961C12.9879 12.993 12.9231 12.8531 12.9231 12.7072C12.9231 12.5614 12.9879 12.4215 13.1033 12.3183C13.2187 12.2152 13.3753 12.1572 13.5385 12.1572H14.1539C14.3171 12.1572 14.4736 12.2152 14.589 12.3183C14.7044 12.4215 14.7692 12.5614 14.7692 12.7072C14.7692 12.8531 14.7044 12.993 14.589 13.0961C14.4736 13.1993 14.3171 13.2572 14.1539 13.2572Z" fill="white"/>
<path d="M9.23077 5.87246H8.61538C8.45217 5.87246 8.29565 5.81451 8.18024 5.71137C8.06484 5.60822 8 5.46833 8 5.32246C8 5.17659 8.06484 5.0367 8.18024 4.93355C8.29565 4.83041 8.45217 4.77246 8.61538 4.77246H9.23077C9.39398 4.77246 9.5505 4.83041 9.66591 4.93355C9.78132 5.0367 9.84615 5.17659 9.84615 5.32246C9.84615 5.46833 9.78132 5.60822 9.66591 5.71137C9.5505 5.81451 9.39398 5.87246 9.23077 5.87246Z" fill="white"/>
</svg>
