<svg width="20" height="16" viewBox="0 0 20 16" fill="none" xmlns="http://www.w3.org/2000/svg">
<path d="M12.3076 0.150391C12.7573 0.150391 13.1888 0.328563 13.5068 0.646484C13.8248 0.964469 14.0038 1.39602 14.0039 1.8457V6.76953C14.0022 6.96174 13.9679 7.15231 13.9023 7.33301L13.8291 7.53418H17.2305C17.6802 7.53418 18.1116 7.71335 18.4297 8.03125C18.7477 8.34927 18.9267 8.78073 18.9268 9.23047V14.1543C18.925 14.3465 18.8908 14.5371 18.8252 14.7178L18.752 14.9189H19.0771C19.2005 14.919 19.319 14.9684 19.4062 15.0557C19.4934 15.1429 19.542 15.2614 19.542 15.3848C19.542 15.5081 19.4935 15.6266 19.4062 15.7139C19.319 15.8011 19.2005 15.8495 19.0771 15.8496H0.615234C0.491865 15.8496 0.37337 15.8011 0.286133 15.7139C0.198897 15.6266 0.15043 15.5081 0.150391 15.3848C0.150391 15.2614 0.198955 15.1429 0.286133 15.0557C0.37337 14.9684 0.491865 14.919 0.615234 14.9189H0.94043L0.867188 14.7178C0.817866 14.5819 0.785863 14.4404 0.772461 14.2969L0.765625 14.1523V9.23047C0.765705 8.7808 0.943797 8.34925 1.26172 8.03125C1.57981 7.71316 2.01207 7.53418 2.46191 7.53418H5.86328L5.79004 7.33301C5.74074 7.1971 5.7087 7.05567 5.69531 6.91211L5.68848 6.76758V1.8457C5.6886 1.39602 5.86757 0.964468 6.18555 0.646484C6.50361 0.328585 6.93506 0.150394 7.38477 0.150391H12.3076ZM2.46191 8.46582C2.25893 8.46582 2.06346 8.54592 1.91992 8.68945C1.77655 8.8329 1.69637 9.02766 1.69629 9.23047V14.1543C1.69641 14.3571 1.77654 14.5519 1.91992 14.6953C2.06346 14.8388 2.25893 14.9189 2.46191 14.9189H7.38477C7.58763 14.9189 7.78229 14.8387 7.92578 14.6953C8.06921 14.5519 8.15027 14.3571 8.15039 14.1543V9.23047C8.15031 9.02758 8.06925 8.83292 7.92578 8.68945C7.78229 8.546 7.58767 8.46586 7.38477 8.46582H2.46191ZM8.97949 8.66699C9.02876 8.80285 9.05986 8.94439 9.07324 9.08789L9.08105 9.23242V14.1543C9.07935 14.3465 9.04504 14.5371 8.97949 14.7178L8.90625 14.9189H10.7861L10.7129 14.7178C10.6472 14.5366 10.6129 14.3451 10.6113 14.1523V9.23242C10.6129 9.03972 10.6472 8.84815 10.7129 8.66699L10.7861 8.46582H8.90625L8.97949 8.66699ZM12.3076 8.46582C12.1047 8.46584 11.9101 8.54601 11.7666 8.68945C11.6231 8.83292 11.5421 9.02759 11.542 9.23047V14.1543C11.5421 14.3571 11.6232 14.5519 11.7666 14.6953C11.9101 14.8387 12.1047 14.9189 12.3076 14.9189H17.2305C17.4335 14.9189 17.6289 14.8388 17.7725 14.6953C17.9158 14.5519 17.996 14.3571 17.9961 14.1543V9.23047C17.996 9.02767 17.9158 8.8329 17.7725 8.68945C17.6289 8.54592 17.4335 8.46582 17.2305 8.46582H12.3076ZM7.38477 1.08105C7.18192 1.08106 6.98726 1.16134 6.84375 1.30469C6.70032 1.44812 6.61926 1.64288 6.61914 1.8457V6.76953C6.61922 6.97241 6.70029 7.16708 6.84375 7.31055C6.98726 7.45394 7.18188 7.53418 7.38477 7.53418H12.3076C12.5105 7.53418 12.7051 7.45396 12.8486 7.31055C12.9921 7.16708 13.0732 6.97242 13.0732 6.76953V1.8457C13.0731 1.64287 12.9921 1.44812 12.8486 1.30469C12.7051 1.16132 12.5105 1.08105 12.3076 1.08105H7.38477Z" fill="black"/>
<path d="M4.3077 13.4076H3.69232C3.52911 13.4076 3.37258 13.3497 3.25718 13.2465C3.14177 13.1434 3.07693 13.0035 3.07693 12.8576C3.07693 12.7117 3.14177 12.5719 3.25718 12.4687C3.37258 12.3656 3.52911 12.3076 3.69232 12.3076H4.3077C4.47091 12.3076 4.62744 12.3656 4.74285 12.4687C4.85825 12.5719 4.92309 12.7117 4.92309 12.8576C4.92309 13.0035 4.85825 13.1434 4.74285 13.2465C4.62744 13.3497 4.47091 13.4076 4.3077 13.4076Z" fill="black"/>
<path d="M14.1539 13.4076H13.5385C13.3753 13.4076 13.2187 13.3497 13.1033 13.2465C12.9879 13.1434 12.9231 13.0035 12.9231 12.8576C12.9231 12.7117 12.9879 12.5719 13.1033 12.4687C13.2187 12.3656 13.3753 12.3076 13.5385 12.3076H14.1539C14.3171 12.3076 14.4736 12.3656 14.589 12.4687C14.7044 12.5719 14.7692 12.7117 14.7692 12.8576C14.7692 13.0035 14.7044 13.1434 14.589 13.2465C14.4736 13.3497 14.3171 13.4076 14.1539 13.4076Z" fill="black"/>
<path d="M9.23077 6.02285H8.61538C8.45217 6.02285 8.29565 5.96491 8.18024 5.86176C8.06484 5.75862 8 5.61872 8 5.47285C8 5.32698 8.06484 5.18709 8.18024 5.08394C8.29565 4.9808 8.45217 4.92285 8.61538 4.92285H9.23077C9.39398 4.92285 9.5505 4.9808 9.66591 5.08394C9.78132 5.18709 9.84615 5.32698 9.84615 5.47285C9.84615 5.61872 9.78132 5.75862 9.66591 5.86176C9.5505 5.96491 9.39398 6.02285 9.23077 6.02285Z" fill="black"/>
</svg>
