<svg width="20" height="15" viewBox="0 0 20 15" fill="none" xmlns="http://www.w3.org/2000/svg">
<path d="M10.625 0.0996094C11.0958 0.0996094 11.547 0.287243 11.8799 0.620117C12.2128 0.952994 12.4004 1.40424 12.4004 1.875V3.22461H16.4248C16.6666 3.22439 16.9025 3.30097 17.0986 3.44238C17.2947 3.58379 17.4414 3.78324 17.5176 4.0127L18.5742 7.19434L18.5811 7.2168L18.5977 7.2334L19.5605 8.19531V8.19629C19.7495 8.38419 19.8665 8.63074 19.8936 8.89355L19.9004 9.00684V11.875C19.9004 12.18 19.7791 12.4728 19.5635 12.6885C19.3478 12.9041 19.055 13.0254 18.75 13.0254H17.9609L17.9414 13.0986C17.8033 13.607 17.5014 14.056 17.083 14.376C16.6645 14.696 16.1519 14.8691 15.625 14.8691C15.0981 14.8691 14.5855 14.696 14.167 14.376C13.7486 14.056 13.4467 13.607 13.3086 13.0986L13.2891 13.0254H9.375C9.23576 13.0254 9.10236 12.9695 9.00391 12.8711C8.90545 12.7726 8.84961 12.6392 8.84961 12.5C8.84961 12.3608 8.90545 12.2274 9.00391 12.1289C9.10236 12.0305 9.23576 11.9746 9.375 11.9746H11.3496V1.875C11.3496 1.68272 11.2737 1.49827 11.1377 1.3623C11.0017 1.22634 10.8173 1.15039 10.625 1.15039H1.875C1.68272 1.15039 1.49827 1.22634 1.3623 1.3623C1.22634 1.49827 1.15039 1.68272 1.15039 1.875V11.25C1.15039 11.4423 1.22634 11.6267 1.3623 11.7627C1.49827 11.8987 1.68272 11.9746 1.875 11.9746H2.66504L2.68457 11.9004C2.8306 11.3348 3.17767 10.8415 3.66113 10.5137C4.1446 10.1858 4.73106 10.0455 5.31055 10.1191C5.88986 10.1927 6.42247 10.475 6.80859 10.9131C7.19475 11.3514 7.4082 11.9159 7.4082 12.5C7.4082 13.0841 7.19475 13.6486 6.80859 14.0869C6.42247 14.525 5.88986 14.8073 5.31055 14.8809C4.73106 14.9545 4.1446 14.8142 3.66113 14.4863C3.17768 14.1585 2.8306 13.6652 2.68457 13.0996L2.66504 13.0254H1.875C1.40424 13.0254 0.952993 12.8378 0.620117 12.5049C0.287243 12.172 0.0996094 11.7208 0.0996094 11.25V1.875C0.0996095 1.40424 0.287242 0.952994 0.620117 0.620117C0.952993 0.287242 1.40424 0.0996111 1.875 0.0996094H10.625ZM15.3613 11.1758C15.0998 11.2279 14.8596 11.3565 14.6709 11.5449C14.4822 11.7337 14.3529 11.9746 14.3008 12.2363C14.2487 12.4982 14.2758 12.7699 14.3779 13.0166C14.4801 13.2632 14.6531 13.4737 14.875 13.6221C15.097 13.7704 15.358 13.8496 15.625 13.8496C15.983 13.8496 16.3269 13.7082 16.5801 13.4551C16.8333 13.2019 16.9746 12.858 16.9746 12.5C16.9746 12.233 16.8954 11.972 16.7471 11.75C16.5987 11.5281 16.3882 11.3551 16.1416 11.2529C15.8949 11.1508 15.6232 11.1237 15.3613 11.1758ZM5 11.1504C4.64196 11.1504 4.29809 11.2917 4.04492 11.5449C3.79175 11.7981 3.65039 12.142 3.65039 12.5C3.65039 12.767 3.72959 13.028 3.87793 13.25C4.02625 13.4719 4.2368 13.6449 4.4834 13.7471C4.73008 13.8492 5.0018 13.8763 5.26367 13.8242C5.52545 13.7721 5.76634 13.6438 5.95508 13.4551C6.14382 13.2663 6.2721 13.0254 6.32422 12.7637C6.37631 12.5018 6.34925 12.2301 6.24707 11.9834C6.14492 11.7368 5.97191 11.5263 5.75 11.3779C5.52799 11.2296 5.267 11.1504 5 11.1504ZM12.4004 4.27539V11.9746H13.2891L13.3086 11.9014C13.4467 11.393 13.7486 10.944 14.167 10.624C14.5855 10.304 15.0981 10.1309 15.625 10.1309C16.1519 10.1309 16.6645 10.304 17.083 10.624C17.5014 10.944 17.8033 11.393 17.9414 11.9014L17.9609 11.9746H18.8496V8.96484L17.9102 8.02539H14.375C14.2358 8.02539 14.1024 7.96955 14.0039 7.87109C13.9055 7.77264 13.8496 7.63924 13.8496 7.5V4.27539H12.4004ZM14.9004 4.27539V6.97461H17.3945L17.3516 6.84375L16.5195 4.34375L16.4971 4.27539H14.9004Z" fill="black"/>
</svg>
