<svg width="30" height="30" viewBox="0 0 30 30" fill="none" xmlns="http://www.w3.org/2000/svg">
<path d="M30 15C30 23.2843 23.2843 30 15 30C6.71573 30 0 23.2843 0 15C0 6.71573 6.71573 0 15 0C23.2843 0 30 6.71573 30 15Z" fill="white"/>
<path d="M15 14.9998C17.549 14.9998 19.6154 12.9334 19.6154 10.3844C19.6154 7.83542 17.549 5.76904 15 5.76904C12.451 5.76904 10.3846 7.83542 10.3846 10.3844C10.3846 12.9334 12.451 14.9998 15 14.9998Z" fill="white"/>
<path d="M18.1151 10.3843C18.115 8.66377 16.7204 7.26904 14.9999 7.26904C13.2794 7.26913 11.8847 8.66382 11.8846 10.3843C11.8846 12.1048 13.2794 13.4994 14.9999 13.4995V14.9995C12.4509 14.9994 10.3846 12.9332 10.3846 10.3843C10.3847 7.83539 12.451 5.76913 14.9999 5.76904C17.5488 5.76904 19.615 7.83534 19.6151 10.3843C19.6151 12.9333 17.5489 14.9995 14.9999 14.9995V13.4995C16.7205 13.4995 18.1151 12.1049 18.1151 10.3843Z" fill="black"/>
<path d="M24.2309 23.0769V24.2307C24.2309 24.5368 24.1093 24.8303 23.8929 25.0466C23.6765 25.263 23.383 25.3846 23.077 25.3846H6.92314C6.61712 25.3846 6.32363 25.263 6.10724 25.0466C5.89085 24.8303 5.76929 24.5368 5.76929 24.2307V23.0769C5.76929 21.2408 6.49868 19.4799 7.79701 18.1815C9.09534 16.8832 10.8563 16.1538 12.6924 16.1538H17.3078C19.1439 16.1538 20.9048 16.8832 22.2031 18.1815C23.5015 19.4799 24.2309 21.2408 24.2309 23.0769Z" fill="white"/>
<path d="M22.7312 23.0767C22.7311 21.6385 22.1592 20.2596 21.1423 19.2427C20.1253 18.2256 18.7457 17.6538 17.3074 17.6538H12.6921C11.2539 17.6539 9.87512 18.2257 8.85815 19.2427C7.84118 20.2596 7.26935 21.6385 7.26929 23.0767V23.8843H22.7312V23.0767ZM24.2312 24.231L24.2253 24.3452C24.1991 24.6091 24.0824 24.8572 23.8933 25.0464L23.8083 25.1235C23.603 25.2917 23.3446 25.3843 23.0769 25.3843H6.92358L6.80933 25.3794C6.54508 25.3532 6.29658 25.2358 6.10718 25.0464C5.91804 24.8572 5.80145 24.6091 5.77515 24.3452L5.76929 24.231V23.0767C5.76935 21.2406 6.49836 19.4794 7.79663 18.1812C9.09491 16.8829 10.8561 16.1539 12.6921 16.1538H17.3074C19.1433 16.1538 20.9046 16.883 22.2029 18.1812C23.5012 19.4794 24.2311 21.2406 24.2312 23.0767V24.231Z" fill="black"/>
</svg>
