<svg width="22" height="22" viewBox="0 0 22 22" fill="none" xmlns="http://www.w3.org/2000/svg">
<g clip-path="url(#clip0_404_50)">
<path d="M12.1379 19C13.6929 19 15.2129 18.5308 16.5059 17.6518C17.7988 16.7727 18.8065 15.5233 19.4015 14.0615C19.9966 12.5997 20.1523 10.9911 19.8489 9.43928C19.5456 7.88743 18.7968 6.46197 17.6973 5.34315C16.5977 4.22433 15.1968 3.4624 13.6717 3.15372C12.1467 2.84504 10.5659 3.00347 9.12925 3.60897C7.69264 4.21447 6.46475 5.23985 5.60086 6.55544C4.73696 7.87103 4.27586 9.41775 4.27586 11V15.1333L1.91724 12.7333L1 13.6667L4.93103 17.6667L8.86207 13.6667L7.94483 12.7333L5.58621 15.1333V11C5.58621 9.68146 5.97046 8.39253 6.69037 7.2962C7.41028 6.19987 8.43352 5.34539 9.63069 4.84081C10.8279 4.33622 12.1452 4.2042 13.4161 4.46143C14.687 4.71867 15.8544 5.35361 16.7707 6.28596C17.687 7.21831 18.311 8.40619 18.5638 9.6994C18.8166 10.9926 18.6868 12.333 18.1909 13.5512C17.695 14.7694 16.8553 15.8106 15.7779 16.5431C14.7004 17.2757 13.4337 17.6667 12.1379 17.6667V19Z" fill="white" stroke="white" stroke-width="0.5"/>
</g>
<defs>
<clipPath id="clip0_404_50">
<rect width="22" height="22" fill="white"/>
</clipPath>
</defs>
</svg>
