<?xml version="1.0" encoding="utf-8"?>
<!-- Generator: Adobe Illustrator 28.1.0, SVG Export Plug-In . SVG Version: 6.00 Build 0)  -->
<svg version="1.1" id="Layer_1" xmlns="http://www.w3.org/2000/svg" xmlns:xlink="http://www.w3.org/1999/xlink" x="0px" y="0px"
	 viewBox="0 0 200 70.9" style="enable-background:new 0 0 200 70.9;" xml:space="preserve">
<style type="text/css">
	.st0{fill:#FFFFFF;}
</style>
<g>
	<g>
		<path class="st0" d="M0,4.2v66.6h72.9V4.2H0z M37.3,38.2H24.7c-3.4,0-6.2,2.8-6.2,6.2l0,0c0,3.4,2.8,6.2,6.2,6.2h12.6v16.6H26.5
			c-12.7,0-23-10.3-23-23l0,0c0-12.7,10.3-23,23-23h10.8V38.2z M69.4,67.3h-5.7c-12.7,0-23-10.3-23-23l0,0l0,0l0,0V7.8h13.4v13.6
			h9.5h1.2v16.8H54.1l0,0c0,6.9,5.6,12.4,12.5,12.4h2.7L69.4,67.3L69.4,67.3z"/>
	</g>
	<g>
		<path class="st0" d="M104.3,26.2c3,3.1,4.5,7.5,4.5,13.1H81.8c0.3,7.3,1.8,12.7,4.5,16s5.9,5,9.6,5c3,0,5.5-0.9,7.6-2.6
			c2.1-1.7,3.9-4.2,5.7-7.4l1.5,0.6c-1.2,4-3.4,7.8-6.6,11.2c-3.2,3.4-7.1,5.1-11.8,5.1c-5.4,0-9.5-2.2-12.4-6.7s-4.4-9.7-4.4-15.5
			c0-6.4,1.7-11.9,5.1-16.5s7.8-6.9,13.3-6.9C97.8,21.6,101.3,23.2,104.3,26.2z M83.9,29.9c-0.9,1.7-1.6,3.9-2,6.5h18
			c-0.3-3.2-0.9-5.5-1.6-7.1c-1.4-2.8-3.7-4.2-7-4.2C88.1,25.1,85.6,26.7,83.9,29.9z"/>
		<path class="st0" d="M106.1,64.9c2.7-0.2,4.5-0.7,5.4-1.5s1.3-2.5,1.3-5.1V10.6c0-2.2-0.3-3.7-1-4.3s-1.7-0.9-3-0.9
			c-0.5,0-1,0-1.4,0s-0.8,0.1-1.3,0.1V4.3l3.8-1.1c2.9-0.9,5.4-1.7,7.5-2.4c1.3-0.5,2-0.7,2.2-0.7s0.3,0,0.3,0.1s0.1,0.3,0.1,0.5v40
			L131.9,29c0.9-0.9,1.4-1.5,1.7-2s0.4-1,0.4-1.3c0-0.7-0.3-1.2-1-1.4c-0.6-0.2-1.8-0.3-3.4-0.4v-1.3h17.8v1.3
			c-3.2,0.2-5.7,0.9-7.7,2.1c-1.9,1.2-5.6,4.6-11.1,10.2l-2.6,2.5l7.8,11.5c4.1,5.8,7.1,9.7,9.2,11.6c2.1,1.9,4.3,3,6.6,3.2v1.2h-19
			V65l1.5-0.1c0.5,0,0.9-0.1,1.3-0.3c0.4-0.2,0.6-0.5,0.6-1c0-0.4-0.1-0.7-0.2-1c-0.1-0.3-0.3-0.7-0.6-1.1l-13.3-19.4v17.7
			c0,2.2,0.7,3.7,2.2,4.4c0.9,0.4,2.3,0.7,4.4,0.7v1.2H106L106.1,64.9L106.1,64.9z"/>
		<path class="st0" d="M173.8,26.2c3,3.1,4.5,7.5,4.5,13.1h-27.1c0.3,7.3,1.8,12.7,4.5,16s5.9,5,9.6,5c3,0,5.5-0.9,7.6-2.6
			c2.1-1.7,3.9-4.2,5.7-7.4l1.5,0.6c-1.2,4-3.4,7.8-6.6,11.2c-3.2,3.4-7.1,5.1-11.8,5.1c-5.4,0-9.5-2.2-12.4-6.7s-4.4-9.7-4.4-15.5
			c0-6.4,1.7-11.9,5.1-16.5c3.4-4.6,7.8-6.9,13.3-6.9C167.3,21.6,170.8,23.2,173.8,26.2z M153.3,29.9c-0.9,1.7-1.6,3.9-2,6.5h18
			c-0.3-3.2-0.9-5.5-1.6-7.1c-1.4-2.8-3.7-4.2-7-4.2C157.5,25.1,155,26.7,153.3,29.9z"/>
		<path class="st0" d="M197.8,22.4v3.4h-8.7L189,53.2c0,2.4,0.2,4.2,0.6,5.5c0.7,2.2,2,3.3,4,3.3c1,0,1.9-0.3,2.7-0.8
			c0.8-0.5,1.6-1.4,2.6-2.6l1.1,1l-0.9,1.4c-1.5,2.2-3.1,3.8-4.7,4.7c-1.7,0.9-3.2,1.4-4.8,1.4c-3.4,0-5.6-1.7-6.8-5
			c-0.7-1.8-1-4.3-1-7.5V25.8h-4.7c-0.1-0.1-0.3-0.2-0.3-0.3c-0.1-0.1-0.1-0.2-0.1-0.4c0-0.3,0.1-0.6,0.2-0.7
			c0.1-0.2,0.5-0.6,1.2-1.2c2-1.8,3.4-3.3,4.3-4.4c0.9-1.1,2.9-4.1,6.1-8.9c0.4,0,0.6,0,0.7,0.1c0.1,0.1,0.1,0.3,0.1,0.7v11.7H197.8
			z"/>
	</g>
</g>
</svg>
